<?xml version="1.0" encoding="UTF-8" standalone="no"?>
<!-- Created with Inkscape (http://www.inkscape.org/) -->

<svg
   xmlns:dc="http://purl.org/dc/elements/1.1/"
   xmlns:cc="http://creativecommons.org/ns#"
   xmlns:rdf="http://www.w3.org/1999/02/22-rdf-syntax-ns#"
   xmlns:svg="http://www.w3.org/2000/svg"
   xmlns="http://www.w3.org/2000/svg"
   xmlns:sodipodi="http://sodipodi.sourceforge.net/DTD/sodipodi-0.dtd"
   xmlns:inkscape="http://www.inkscape.org/namespaces/inkscape"
   id="svg2"
   version="1.1"
   inkscape:version="0.91 r13725"
   xml:space="preserve"
   width="360"
   height="360"
   viewBox="0 0 360 360"
   sodipodi:docname="CRI-logo-sq.svg"><metadata
     id="metadata8"><rdf:RDF><cc:Work
         rdf:about=""><dc:format>image/svg+xml</dc:format><dc:type
           rdf:resource="http://purl.org/dc/dcmitype/StillImage" /><dc:title></dc:title></cc:Work></rdf:RDF></metadata><defs
     id="defs6" /><sodipodi:namedview
     pagecolor="#ffffff"
     bordercolor="#666666"
     borderopacity="1"
     objecttolerance="10"
     gridtolerance="10"
     guidetolerance="10"
     inkscape:pageopacity="0"
     inkscape:pageshadow="2"
     inkscape:window-width="1855"
     inkscape:window-height="1056"
     id="namedview4"
     showgrid="false"
     fit-margin-top="0"
     fit-margin-left="0"
     fit-margin-right="0"
     fit-margin-bottom="0"
     inkscape:zoom="1.7680328"
     inkscape:cx="177.57141"
     inkscape:cy="155.10742"
     inkscape:window-x="65"
     inkscape:window-y="24"
     inkscape:window-maximized="1"
     inkscape:current-layer="g10" /><g
     id="g10"
     inkscape:groupmode="layer"
     inkscape:label="ink_ext_XXXXXX"
     transform="matrix(1.25,0,0,-1.25,-53.918259,420.30886)"><g
       id="g4507"
       transform="translate(1.4973735,0)"><rect
         style="opacity:1;fill:#62b55a;fill-opacity:1;fill-rule:evenodd;stroke:none;stroke-width:12;stroke-linecap:round;stroke-linejoin:miter;stroke-miterlimit:15;stroke-dasharray:none;stroke-dashoffset:0;stroke-opacity:1"
         id="rect4497"
         width="32"
         height="16"
         x="41.637234"
         y="-31.860054"
         transform="scale(1,-1)" /><text
         xml:space="preserve"
         style="font-style:normal;font-weight:normal;font-size:90px;line-height:125%;font-family:sans-serif;letter-spacing:0px;word-spacing:0px;fill:#000000;fill-opacity:1;stroke:none;stroke-width:1px;stroke-linecap:butt;stroke-linejoin:miter;stroke-opacity:1"
         x="85.06105"
         y="-20.352173"
         id="text4503"
         sodipodi:linespacing="125%"
         transform="scale(1,-1)"><tspan
           sodipodi:role="line"
           id="tspan4505"
           x="85.06105"
           y="-20.352173"
           style="font-size:16px">#62b55a</tspan></text>
</g><g
       id="g4391"><g
         id="g4325"><path
           inkscape:connector-curvature="0"
           id="path14"
           style="fill:#62b55a;fill-opacity:1;fill-rule:nonzero;stroke:none"
           d="m 296.9623,308.71059 c 1.233,0.534 2.528,0.959 3.78,1.371 1.603,0.526 3.261,1.07 4.775,1.846 3.992,2.044 6.336,7.301 7.084,12.659 -0.736,0.711 -1.531,1.563 -2.375,2.378 -1.092,-2.026 -2.314,-4 -3.895,-5.715 -2.642,-2.866 -5.957,-4.473 -9.148,-4.428 -0.84,0.014 -1.689,0.141 -2.512,0.262 -1.574,0.234 -3.062,0.454 -4.457,-0.055 -0.636,-0.233 -1.185,-0.592 -1.664,-1.047 0.112,-1.357 0.395,-2.713 0.801,-3.992 0.715,-2.265 1.574,-4.634 2.557,-6.959 1.474,1.886 3.634,3.063 5.054,3.68" /><path
           inkscape:connector-curvature="0"
           id="path16"
           style="fill:#62b55a;fill-opacity:1;fill-rule:nonzero;stroke:none"
           d="m 289.9903,317.64459 c 1.548,0.566 3.191,0.323 4.777,0.087 0.801,-0.119 1.629,-0.241 2.426,-0.254 l 0.142,-0.002 c 2.942,0 6.037,1.532 8.514,4.219 1.572,1.705 2.789,3.692 3.881,5.734 -1.006,0.917 -2.074,1.72 -3.192,2.075 -2.849,0.907 -5.857,-0.954 -8.533,-1.691 -2.84,-0.783 -5.709,-1.883 -7.572,-4.288 -1.478,-1.908 -2.004,-4.304 -1.93,-6.744 0.444,0.353 0.926,0.658 1.487,0.864" /><path
           inkscape:connector-curvature="0"
           id="path18"
           style="fill:#62b55a;fill-opacity:1;fill-rule:nonzero;stroke:none"
           d="m 306.6873,305.23559 c 1.17,0.748 2.381,1.523 3.529,2.307 1.836,1.255 3.694,2.682 4.84,4.613 1.035,1.744 1.436,3.818 1.822,5.823 0.125,0.65 0.25,1.3 0.397,1.941 -1.303,1.449 -2.703,2.812 -4.098,4.117 -0.849,-5.385 -3.289,-10.606 -7.361,-12.692 -1.561,-0.799 -3.242,-1.352 -4.871,-1.886 -1.237,-0.406 -2.516,-0.827 -3.723,-1.35 -1.426,-0.619 -3.642,-1.827 -5.021,-3.777 1.111,-2.551 2.384,-5.026 3.812,-7.223 l 0.172,-0.249 c 2.799,3.44 6.699,5.943 10.502,8.376" /><path
           inkscape:connector-curvature="0"
           id="path20"
           style="fill:#62b55a;fill-opacity:1;fill-rule:nonzero;stroke:none"
           d="m 302.2533,291.68559 c 0.91,1.853 1.858,3.173 2.985,4.156 1.261,1.101 2.8,1.805 4.289,2.486 0.398,0.182 0.797,0.365 1.189,0.554 4.985,2.407 9.301,6.241 12.332,10.88 -0.033,0.142 -0.052,0.281 -0.09,0.424 -0.89,3.455 -2.826,6.436 -5.14,9.118 -0.102,-0.482 -0.201,-0.964 -0.295,-1.449 -0.399,-2.06 -0.809,-4.191 -1.902,-6.034 -1.211,-2.04 -3.137,-3.521 -5.036,-4.819 -1.156,-0.789 -2.371,-1.566 -3.545,-2.318 -3.808,-2.437 -7.722,-4.944 -10.464,-8.381 1.591,-2.237 3.433,-3.977 5.464,-5.102 0.075,0.16 0.135,0.327 0.213,0.485" /><path
           inkscape:connector-curvature="0"
           id="path22"
           style="fill:#62b55a;fill-opacity:1;fill-rule:nonzero;stroke:none"
           d="m 311.0013,298.29259 c -0.396,-0.192 -0.8,-0.377 -1.203,-0.561 -1.445,-0.661 -2.939,-1.345 -4.131,-2.384 -1.056,-0.923 -1.955,-2.178 -2.826,-3.951 -0.078,-0.159 -0.138,-0.327 -0.215,-0.488 3.731,-1.821 8.037,-1.651 12.52,1.134 0.428,0.266 0.851,0.541 1.266,0.829 1.677,1.161 3.224,2.514 4.46,4.182 2.329,3.141 3.17,7.38 2.366,11.785 -3.073,-4.486 -7.346,-8.185 -12.237,-10.546" /></g><g
         id="g4352"><path
           inkscape:connector-curvature="0"
           id="path24"
           style="fill:#62b55a;fill-opacity:1;fill-rule:nonzero;stroke:none"
           d="m 286.3453,211.33159 c 1.799,-3.944 3.818,-8.062 6.979,-11.257 3.08,-3.114 7.4,-5.313 12.838,-6.534 5.134,-1.152 11.628,-1.448 16.484,-0.79 -2.316,6.025 -4.549,12.073 -7.109,18.015 -0.293,-0.023 -0.586,-0.046 -0.875,-0.062 -8.797,-0.495 -15.862,2.007 -21.016,7.449 -1.365,1.442 -2.697,3.065 -4.108,4.784 -3.246,3.96 -6.589,8.034 -10.728,10.355 -3.326,0.07 -6.66,-0.081 -9.943,-0.504 8.875,-4.587 13.984,-13.792 17.478,-21.456" /><path
           inkscape:connector-curvature="0"
           id="path26"
           style="fill:#62b55a;fill-opacity:1;fill-rule:nonzero;stroke:none"
           d="m 290.0463,223.35159 c 1.401,-1.709 2.725,-3.323 4.076,-4.749 5.137,-5.422 12.231,-7.843 21.141,-7.197 l -0.043,0.1 c -1.297,2.97 -2.67,5.956 -4.435,8.658 -0.026,-0.107 -0.047,-0.215 -0.1,-0.317 -0.566,-1.079 -2.527,-1.414 -3.766,-1.484 -0.302,-0.017 -0.562,-0.018 -0.748,-0.01 -2.808,0.113 -5.529,0.985 -7.869,2.521 -2.512,1.649 -4.213,4.083 -5.855,6.437 -1.295,1.851 -2.631,3.747 -4.354,5.239 -0.892,0.126 -1.783,0.237 -2.672,0.328 -1.746,0.18 -3.508,0.301 -5.273,0.37 3.773,-2.435 6.879,-6.213 9.898,-9.896" /><path
           inkscape:connector-curvature="0"
           id="path28"
           style="fill:#62b55a;fill-opacity:1;fill-rule:nonzero;stroke:none"
           d="m 317.4493,168.91259 c -15.6,1.909 -33.284,4.074 -36.955,16.397 -0.86,2.585 -1.635,5.523 -2.457,8.633 -2.729,10.327 -5.823,22.034 -13.756,28.029 -3.479,2.811 -7.442,4.531 -11.41,6.014 -0.108,-0.056 -0.219,-0.104 -0.325,-0.161 -3.521,-1.852 -6.716,-4.198 -9.613,-6.881 4.914,-1.925 9.764,-4.968 14.439,-9.083 l 0.524,-0.46 c 3.363,-2.954 6.537,-5.744 8.889,-9.57 2.318,-3.775 4.05,-8.219 5.295,-13.586 0.714,-3.083 1.236,-6.256 1.742,-9.325 0.668,-4.071 1.359,-8.283 2.511,-12.305 1.641,-5.743 5.038,-13.505 11.885,-17.866 3.203,-2.038 7.215,-3.381 12.627,-4.225 1.764,-0.273 3.568,-0.486 5.315,-0.692 2.712,-0.32 5.517,-0.65 8.242,-1.22 2.537,-0.531 4.758,-1.209 6.678,-2.041 1.234,3.504 2.445,7.015 3.591,10.549 1.723,5.304 3.323,10.706 3.942,16.234 -3.426,0.609 -7.213,1.074 -11.164,1.559" /><path
           inkscape:connector-curvature="0"
           id="path30"
           style="fill:#62b55a;fill-opacity:1;fill-rule:nonzero;stroke:none"
           d="m 292.9843,227.68459 c 1.609,-2.303 3.271,-4.683 5.678,-6.264 2.242,-1.47 4.847,-2.305 7.537,-2.414 1.127,-0.045 3.431,0.241 3.906,1.144 0.187,0.359 0.06,0.833 -0.375,1.41 l 0.053,0.041 c -0.62,0.834 -1.278,1.638 -2.004,2.389 -4.809,4.964 -11.623,7.277 -18.53,8.384 1.434,-1.414 2.602,-3.068 3.735,-4.69" /><path
           inkscape:connector-curvature="0"
           id="path32"
           style="fill:#62b55a;fill-opacity:1;fill-rule:nonzero;stroke:none"
           d="m 319.8433,191.81659 c -4.433,-0.249 -9.594,0.135 -13.824,1.085 -5.564,1.249 -9.992,3.507 -13.16,6.712 -3.237,3.272 -5.287,7.449 -7.112,11.446 -3.56,7.813 -8.826,17.233 -18.06,21.56 -4.863,-0.73 -9.598,-2.083 -14.01,-4.236 3.824,-1.453 7.629,-3.166 11.006,-5.895 8.105,-6.127 11.23,-17.948 13.986,-28.38 0.819,-3.099 1.594,-6.026 2.452,-8.602 3.55,-11.921 21.007,-14.059 36.408,-15.944 3.951,-0.484 7.738,-0.95 11.154,-1.557 0.07,0.72 0.129,1.44 0.164,2.164 0.014,0.291 0.016,0.573 0.02,0.858 -0.11,2.223 -0.327,4.455 -0.778,6.744 -0.058,0.293 -0.123,0.585 -0.183,0.878 -0.942,3.556 -2.442,6.889 -3.924,10.657 -0.369,0.936 -0.733,1.874 -1.094,2.813 -0.963,-0.136 -1.975,-0.242 -3.045,-0.303" /><path
           inkscape:connector-curvature="0"
           id="path34"
           style="fill:#62b55a;fill-opacity:1;fill-rule:nonzero;stroke:none"
           d="m 243.5463,167.77159 c 4.022,6.057 8.58,12.923 2.739,19.221 -5.11,5.507 -13.043,7.983 -19.713,9.476 -1.453,-2.909 -2.996,-5.768 -4.864,-8.449 4.45,-0.754 9.053,-1.937 11.145,-6.159 2.963,-7.475 -0.125,-14.629 -3.111,-21.546 -1.553,-3.594 -3.157,-7.309 -3.873,-10.995 -0.875,-4.294 -1.549,-10.456 2.669,-14.418 1.29,-1.143 2.622,-2.271 4.034,-3.467 8.73,-7.393 18.603,-15.761 17.752,-28.469 4.248,-1.0332 8.527,-2.0019 12.8,-2.8301 -1.142,9.7351 -3.285,19.5991 -10.462,26.5271 -1.323,1.274 -2.77,2.514 -4.17,3.715 -4.614,3.951 -9.383,8.039 -10.922,14.333 -1.658,6.798 0.201,14.334 5.533,22.394 l 0.443,0.667" /><path
           inkscape:connector-curvature="0"
           id="path36"
           style="fill:#62b55a;fill-opacity:1;fill-rule:nonzero;stroke:none"
           d="m 216.9663,129.06959 c -0.486,0.848 -0.976,1.704 -1.465,2.577 -2.353,4.209 -3.464,9.081 -3.214,14.091 0.087,1.744 0.318,3.512 0.541,5.22 0.384,2.96 0.785,6.021 0.439,9.023 -0.484,4.224 -2.725,7.827 -6.834,10.991 -1.592,-2.124 -2.957,-4.399 -3.91,-6.95 -2.945,-7.884 -1.207,-16.686 1.053,-24.793 1.875,-6.731 4.175,-13.534 8.572,-18.967 3.142,-3.882 7.168,-6.83 11.617,-9.108 -0.518,6.924 -3.576,12.283 -6.799,17.916" /><path
           inkscape:connector-curvature="0"
           id="path38"
           style="fill:#62b55a;fill-opacity:1;fill-rule:nonzero;stroke:none"
           d="m 314.2673,141.96959 c -2.695,0.566 -5.486,0.893 -8.184,1.211 -1.752,0.206 -3.564,0.42 -5.337,0.697 -5.506,0.857 -9.598,2.229 -12.879,4.318 -7.022,4.473 -10.491,12.387 -12.164,18.238 -1.161,4.061 -1.856,8.29 -2.53,12.381 -0.502,3.058 -1.021,6.22 -1.732,9.281 -1.227,5.298 -2.934,9.678 -5.215,13.391 -2.299,3.743 -5.439,6.501 -8.762,9.421 l -0.525,0.462 c -4.711,4.146 -9.598,7.185 -14.541,9.074 -1.848,-1.76 -3.567,-3.661 -5.164,-5.659 0.42,-0.17 0.849,-0.32 1.275,-0.459 0.692,-0.226 1.346,-0.439 1.906,-0.762 10.541,-6.451 19.538,-16.582 24.694,-27.802 2.023,-5.617 1.396,-11.736 0.791,-17.654 -0.528,-5.137 -1.072,-10.449 0.195,-15.205 2.002,-6.863 11.037,-14.576 19.008,-21.381 3.812,-3.253 7.412,-6.326 9.666,-8.864 4.824,-5.434 6.582,-12.128 6.939,-18.9549 1.422,0.9668 2.768,2.0539 3.993,3.3079 3.724,3.814 6.105,8.646 8.095,13.638 0.655,1.643 1.266,3.303 1.871,4.948 1.754,4.777 3.498,9.557 5.196,14.353 -1.887,0.822 -4.08,1.494 -6.596,2.02" /><path
           inkscape:connector-curvature="0"
           id="path40"
           style="fill:#62b55a;fill-opacity:1;fill-rule:nonzero;stroke:none"
           d="m 294.2793,122.22259 c -2.225,2.504 -5.807,5.563 -9.6,8.8 -8.043,6.865 -17.156,14.646 -19.217,21.705 -1.299,4.879 -0.748,10.251 -0.216,15.446 0.601,5.846 1.22,11.89 -0.743,17.34 -5.093,11.079 -13.998,21.107 -24.422,27.487 -0.494,0.284 -1.115,0.487 -1.773,0.702 -0.484,0.157 -0.996,0.333 -1.5,0.55 -0.955,-1.221 -1.867,-2.476 -2.734,-3.757 -1.823,-2.692 -3.328,-5.552 -4.764,-8.447 11.955,0.224 18.348,-4.403 21.836,-15.692 3.072,-9.234 2.164,-20.81 1.361,-31.023 -0.168,-2.138 -0.326,-4.16 -0.439,-6.069 -0.17,-2.855 1.041,-6.196 3.695,-10.211 1.076,-1.207 2.205,-2.453 3.338,-3.704 9.924,-10.967 20.172,-22.302 19.838,-37.328104 7.795,-0.2469 15.775,1.1859 22.131,5.246104 -0.307,6.84 -1.994,13.554 -6.791,18.955" /><path
           inkscape:connector-curvature="0"
           id="path42"
           style="fill:#62b55a;fill-opacity:1;fill-rule:nonzero;stroke:none"
           d="m 258.6153,134.90959 c -1.135,1.253 -2.264,2.5 -3.369,3.747 -2.766,4.174 -4.01,7.645 -3.833,10.647 0.114,1.916 0.274,3.94 0.44,6.081 0.799,10.152 1.701,21.658 -1.332,30.772 -3.416,11.061 -9.715,15.533 -21.541,15.227 -0.705,-1.436 -1.4,-2.877 -2.109,-4.31 6.732,-1.518 14.705,-4.043 19.894,-9.636 6.191,-6.676 1.277,-14.078 -2.674,-20.028 l -0.441,-0.667 c -5.227,-7.902 -7.057,-15.263 -5.442,-21.878 1.487,-6.09 6.176,-10.106 10.709,-13.99 1.409,-1.206 2.864,-2.454 4.198,-3.742 7.377,-7.119 9.535,-17.206 10.683,-27.1291 3.51,-0.668004 7.01,-1.243004 10.477,-1.643004 1.322,-0.1531 2.662,-0.2578 4.008,-0.3168 0.324,14.765904 -9.832,25.997904 -19.668,36.865904" /><path
           inkscape:connector-curvature="0"
           id="path44"
           style="fill:#62b55a;fill-opacity:1;fill-rule:nonzero;stroke:none"
           d="m 213.9193,160.05459 c 0.354,-3.081 -0.05,-6.183 -0.443,-9.182 -0.221,-1.696 -0.449,-3.45 -0.535,-5.166 -0.244,-4.889 0.84,-9.64 3.133,-13.74 0.486,-0.87 0.974,-1.725 1.461,-2.572 3.322,-5.805 6.468,-11.324 6.908,-18.574 3.16,-1.557 6.515,-2.792 9.914,-3.788 -0.877,6.3 -4.588,11.095 -8.518,16.156 -2.33,3.003 -4.74,6.108 -6.646,9.659 -3.936,7.08 -1.631,13.756 0.81,20.824 0.455,1.316 0.926,2.678 1.354,4.043 1.797,8.359 -1.69,16.422 -8.553,20.372 -2.103,-2.116 -4.176,-4.261 -5.98,-6.587 4.261,-3.279 6.588,-7.031 7.095,-11.445" /><path
           inkscape:connector-curvature="0"
           id="path46"
           style="fill:#62b55a;fill-opacity:1;fill-rule:nonzero;stroke:none"
           d="m 232.1483,130.93559 c -1.414,1.197 -2.75,2.328 -4.051,3.482 -4.465,4.193 -3.775,10.585 -2.869,15.029 0.728,3.754 2.346,7.503 3.91,11.128 2.936,6.796 5.969,13.822 3.117,21.019 -1.998,4.03 -6.429,5.083 -10.97,5.831 -0.475,-0.658 -0.965,-1.309 -1.489,-1.942 -1.992,-2.412 -4.261,-4.654 -6.515,-6.917 7.011,-4.121 10.56,-12.408 8.709,-21.018 -0.438,-1.403 -0.91,-2.769 -1.366,-4.088 -2.392,-6.927 -4.652,-13.469 -0.855,-20.298 1.881,-3.506 4.275,-6.589 6.588,-9.572 4.043,-5.207 7.859,-10.141 8.685,-16.753 0.871,-0.247 1.745,-0.485 2.616,-0.703 3.947,-0.9891 7.968,-2.018 12.019,-3.0078 0.758,12.3148 -8.945,20.5408 -17.529,27.8098" /></g><g
         id="g4302"><path
           inkscape:connector-curvature="0"
           id="path48"
           style="fill:#62b55a;fill-opacity:1;fill-rule:nonzero;stroke:none"
           d="m 82.099304,297.50959 c 8.8047,-4.81 18.154296,-8.669 27.788996,-11.469 0.1,-0.03 0.19,-0.047 0.289,-0.073 -0.055,0.139 -0.111,0.278 -0.166,0.418 -1.494,3.853 -2.965,7.717 -5.012,11.303 -8.624596,2.238 -16.614796,6.962 -22.583596,13.571 -2.9375,-0.731 -5.4023,-2.471 -7.8437,-4.486 -0.8633,-0.714 -1.7031,-1.457 -2.5352,-2.21 2.918,-2.924 6.5235,-5.121 10.0625,-7.054" /><path
           inkscape:connector-curvature="0"
           id="path50"
           style="fill:#62b55a;fill-opacity:1;fill-rule:nonzero;stroke:none"
           d="m 66.378604,281.15459 c 3.9571,-1.65 8.1465,-2.893 12.1992,-4.093 2.459,-0.729 5,-1.482 7.470799,-2.32 11.6757,-3.962 22.704697,-10.184 32.177697,-18.122 0.139,0.319 0.264,0.645 0.367,0.982 0.897,2.9 0.258,6.059 -0.797,8.907 -1.187,3.212 -2.443,6.405 -3.711,9.594 -19.017196,0.833 -37.823897,8.035 -52.532796,20.124 -2.8477,-1.693 -5.8125,-3.214 -8.3164,-5.37 -0.1758,-0.151 -0.3399,-0.308 -0.5079,-0.462 3.2266,-3.697 7.7969,-6.797 13.6504,-9.24" /><path
           inkscape:connector-curvature="0"
           id="path52"
           style="fill:#62b55a;fill-opacity:1;fill-rule:nonzero;stroke:none"
           d="m 113.8223,276.76659 c -1.121,2.813 -2.244,5.624 -3.348,8.442 -0.254,0.066 -0.506,0.125 -0.769,0.202 -9.6802,2.814 -19.072797,6.691 -27.920397,11.524 -3.5938,1.963 -7.255899,4.196 -10.2344,7.188 -2.3613,-2.154 -4.6816,-4.36 -7.3125,-6.189 -0.6816,-0.473 -1.3828,-0.913 -2.0918,-1.345 14.4981,-11.852 32.9746,-18.939 51.676097,-19.822" /><path
           inkscape:connector-curvature="0"
           id="path54"
           style="fill:#62b55a;fill-opacity:1;fill-rule:nonzero;stroke:none"
           d="m 104.5423,298.48959 c -0.339,0.563 -0.693,1.119 -1.068,1.665 -2.4707,3.613 -5.632796,6.803 -9.437496,8.972 -2.3808,1.359 -5.0371,2.312 -7.765601,2.476 -0.251899,0.015 -0.505899,0.024 -0.757799,0.026 -0.8242,0.004 -1.6094,-0.069 -2.361301,-0.209 5.709,-6.211 13.248,-10.693 21.390197,-12.93" /><path
           inkscape:connector-curvature="0"
           id="path56"
           style="fill:#62b55a;fill-opacity:1;fill-rule:nonzero;stroke:none"
           d="m 85.837603,274.12159 c -2.457,0.834 -4.992199,1.585 -7.4453,2.312 -4.070299,1.206 -8.2773,2.452 -12.265599,4.116 -5.9375,2.478 -10.584,5.631 -13.875,9.396 -3.019601,-2.962 -4.9063,-6.654 -5.918,-10.657 4.085899,-4.607 10.062499,-8.326 18.1348,-11.284 3.334,-1.221 6.8008,-2.26 10.1543,-3.265 5.1484,-1.543 10.4707,-3.137 15.4394,-5.429 4.7227,-2.179 12.447096,-6.708 16.611096,-14.263 2.448,1.609 4.653,3.579 6.787,5.593 1.7,1.603 3.407,3.323 4.465,5.374 -9.439,7.934 -20.439197,14.154 -32.087697,18.107" /><path
           inkscape:connector-curvature="0"
           id="path58"
           style="fill:#62b55a;fill-opacity:1;fill-rule:nonzero;stroke:none"
           d="m 89.788803,258.71559 c -4.9277,2.272 -10.228499,3.861 -15.353499,5.397 -3.3633,1.007 -6.8399,2.049 -10.1914,3.277 -7.9746,2.922 -13.9453,6.586 -18.0938,11.116 -1.2129,-5.448 -0.8633,-11.404 0.418,-16.838 4.209,-2.91 9.3789,-3.888 14.818299,-4.912 5.269601,-0.992 10.718801,-2.019 15.168001,-4.993 2.3477,-1.569 4.291,-3.598 6.0234,-5.774 3.7247,-0.945 7.0586,-3.146 10.8067,-4.053 4.0391,-0.976 8.197296,0.157 11.745796,2.16 0.336,0.19 0.666,0.391 0.992,0.595 -4.0698,7.419 -11.683096,11.879 -16.333496,14.025" /><path
           inkscape:connector-curvature="0"
           id="path60"
           style="fill:#62b55a;fill-opacity:1;fill-rule:nonzero;stroke:none"
           d="m 76.191104,251.21759 c -4.3379,2.9 -9.7207,3.913 -14.9258,4.893 -5.0351,0.949 -10.212801,1.931 -14.4687,4.629 0.337899,-1.304 0.722699,-2.575 1.1562,-3.795 1.129,-3.182 2.724699,-6.317 4.2051,-9.363 2.369199,-0.037 4.761699,-0.169 7.109399,-0.613 3.4941,-0.659 6.484401,-1.991 8.7227,-3.856 4.082001,1.723 8.0742,3.771 12.6718,3.239 0.295001,-0.035 0.5899,-0.08 0.8789,-0.133 -1.5644,1.887 -3.3007,3.63 -5.3496,4.999" /><path
           inkscape:connector-curvature="0"
           id="path62"
           style="fill:#62b55a;fill-opacity:1;fill-rule:nonzero;stroke:none"
           d="m 59.146203,246.32459 c -2.1855,0.413 -4.4238,0.551 -6.648399,0.596 1.103499,-2.109 2.603499,-4.092 4.7558,-5.067 2.3575,-1.067 5.1231,-0.753 7.5801,0.051 0.8359,0.273 1.6582,0.592 2.4785,0.927 -2.1211,1.68 -4.9199,2.88 -8.166,3.493" /></g><g
         id="g4312"><path
           inkscape:connector-curvature="0"
           id="path104"
           style="fill:#62b55a;fill-opacity:1;fill-rule:nonzero;stroke:none"
           d="m 169.6243,259.67459 c -1.668,-4.986 -4.005,-9.801 -6.267,-14.458 -2.735,-5.629 -5.561,-11.448 -7.19,-17.568 -1.859,-6.982 -2.689,-12.571 -2.613,-17.59 l -0.094,-0.001 c 1.795,-3.023 3.327,-6.28 5.094,-9.354 -0.183,11.625 5.33,22.111 10.684,32.256 1.597,3.029 3.248,6.16 4.724,9.275 8.723,19.032 9.35,38.974 1.739,54.761 -3.17,-0.223 -6.338,-0.399 -9.506,-0.598 6.037,-13.517 7.164,-25.553 3.429,-36.723" /><path
           inkscape:connector-curvature="0"
           id="path106"
           style="fill:#62b55a;fill-opacity:1;fill-rule:nonzero;stroke:none"
           d="m 141.1463,268.12559 c -0.631,-1.576 -1.336,-3.134 -2.02,-4.64 -2.517,-5.559 -4.896,-10.809 -3.775,-16.974 0.713,-3.914 1.797,-7.736 2.848,-11.432 1.006,-3.551 2.033,-7.222 2.775,-11.053 1.227,-1.188 2.477,-2.353 3.711,-3.53 -0.322,2.229 -0.701,4.489 -1.098,6.835 -1.881,11.097 -3.828,22.572 0.584,33.051 4.078,10.193 9.098,22.774 8.787,34.844 -2.994,-0.4 -5.961,-1.008 -8.685,-2.259 0.711,-8.345 -0.522,-18.329 -3.127,-24.842" /><path
           inkscape:connector-curvature="0"
           id="path108"
           style="fill:#62b55a;fill-opacity:1;fill-rule:nonzero;stroke:none"
           d="m 132.0973,238.60959 c -2.203,8.247 -3.832,17.186 -0.875,26.677 0.789,2.534 1.861,5.074 2.899,7.53 2.156,5.106 4.375,10.378 4.228,15.962 -3.291,-3.301 -5.697,-7.611 -7.562,-11.943 -3.78,-8.777 -5.977,-18.53 -4.266,-27.932 1.158,-6.352 4.064,-12.205 7.842,-17.395 -0.848,2.26 -1.608,4.629 -2.266,7.101" /><path
           inkscape:connector-curvature="0"
           id="path110"
           style="fill:#62b55a;fill-opacity:1;fill-rule:nonzero;stroke:none"
           d="m 200.9583,280.97059 c 1.721,-2.653 3.346,-5.159 4.768,-7.667 8.193,-14.438 -3.418,-27.877 -12.746,-38.676 -0.983,-1.138 -1.943,-2.249 -2.854,-3.33 -0.953,-1.132 -1.959,-2.301 -2.992,-3.503 -9.068,-10.541 -20.304,-23.614 -18.431,-37.681 2.826,-1.452 5.957,-2.288 9.179,-2.776 -0.045,2.875 0.268,5.492 1.326,8.141 5.86,9.921 12.955,17.998 20.469,26.548 4.555,5.185 9.266,10.546 13.719,16.39 8.82,11.576 3.23,23.565 -2.176,35.161 -1.662,3.564 -3.23,6.93 -4.41,10.301 -0.605,1.816 -0.719,3.139 -0.803,4.701 -4.199,2.948 -8.543,5.746 -13.353,7.506 l -0.153,0.051 c 2.006,-5.189 5.274,-10.255 8.457,-15.166" /><path
           inkscape:connector-curvature="0"
           id="path112"
           style="fill:#62b55a;fill-opacity:1;fill-rule:nonzero;stroke:none"
           d="m 202.5783,207.41959 c 3.132,4.509 7.142,8.363 11.019,12.09 4.449,4.276 9.051,8.698 12.297,14.102 3.65,6.077 4.793,12.468 3.4,18.997 -0.519,2.434 -1.189,4.814 -1.838,7.117 -1.384,4.924 -2.687,9.587 -2.707,14.864 -5.847,4.499 -11.703,8.992 -17.716,13.267 -0.114,0.08 -0.227,0.16 -0.34,0.24 0.084,-1.298 0.226,-2.476 0.736,-4.007 1.168,-3.335 2.731,-6.687 4.385,-10.235 5.488,-11.772 11.162,-23.944 2.103,-35.835 -4.466,-5.863 -9.185,-11.232 -13.748,-16.425 -7.492,-8.527 -14.57,-16.581 -20.375,-26.405 -1.015,-2.549 -1.308,-5.108 -1.256,-7.943 2.434,-0.333 4.911,-0.486 7.336,-0.563 3.362,-0.108 6.77,-0.098 10.1,0.315 -0.271,6.663 2.035,13.844 6.604,20.421" /><path
           inkscape:connector-curvature="0"
           id="path114"
           style="fill:#62b55a;fill-opacity:1;fill-rule:nonzero;stroke:none"
           d="m 237.9583,261.26359 c -2.144,3.99 -5.455,7.147 -8.994,10.029 -1.166,0.948 -2.355,1.867 -3.535,2.775 l -0.012,0.009 c 0.098,-4.979 1.342,-9.456 2.67,-14.173 0.651,-2.313 1.325,-4.704 1.85,-7.159 1.428,-6.696 0.258,-13.247 -3.481,-19.47 -3.291,-5.479 -7.923,-9.932 -12.404,-14.237 -3.855,-3.705 -7.84,-7.535 -10.935,-11.993 -4.475,-6.441 -6.741,-13.46 -6.491,-19.965 2.329,0.328 4.612,0.863 6.803,1.728 7.817,3.09 13.547,9.917 17.938,17.085 5.445,8.888 11.382,18.21 15.611,27.7 3.893,8.734 5.508,19.248 0.98,27.671" /><path
           inkscape:connector-curvature="0"
           id="path116"
           style="fill:#62b55a;fill-opacity:1;fill-rule:nonzero;stroke:none"
           d="m 137.5663,234.90059 c -1.053,3.711 -2.143,7.548 -2.86,11.494 -1.158,6.366 1.262,11.706 3.823,17.36 0.679,1.501 1.383,3.052 2.008,4.614 2.546,6.367 3.761,16.106 3.103,24.307 -1.725,-0.87 -3.268,-1.995 -4.662,-3.295 0.33,-5.944 -1.996,-11.472 -4.254,-16.819 -1.031,-2.442 -2.096,-4.966 -2.877,-7.469 -2.908,-9.333 -1.295,-18.162 0.883,-26.314 0.867,-3.249 1.902,-6.324 3.092,-9.193 l 0.049,-0.061 c 1.32,-1.662 2.771,-3.198 4.271,-4.683 -0.721,3.467 -1.654,6.814 -2.576,10.059" /><path
           inkscape:connector-curvature="0"
           id="path118"
           style="fill:#62b55a;fill-opacity:1;fill-rule:nonzero;stroke:none"
           d="m 179.0053,230.95759 c 3.741,4.999 7.61,10.169 10.955,15.666 4.149,6.912 5.797,14.69 5.039,23.776 -1.326,9.946 -7.951,19.082 -14.4,26.972 -1.361,-0.094 -2.752,-0.218 -4.203,-0.326 7.578,-15.926 6.924,-35.967 -1.84,-55.088 -1.482,-3.131 -3.139,-6.269 -4.74,-9.304 -5.412,-10.261 -11.006,-20.871 -10.604,-32.587 0.006,-0.156 0.016,-0.335 0.024,-0.514 0.422,-0.691 0.857,-1.37 1.316,-2.031 l 0.035,0.148 c 3.123,12.85 10.551,22.777 18.418,33.288" /><path
           inkscape:connector-curvature="0"
           id="path120"
           style="fill:#62b55a;fill-opacity:1;fill-rule:nonzero;stroke:none"
           d="m 205.1583,272.97959 c -1.414,2.491 -3.034,4.989 -4.75,7.634 -3.305,5.099 -6.698,10.364 -8.707,15.794 -3.604,1.147 -6.875,1.217 -10.299,1.016 6.412,-7.878 12.92,-16.979 14.25,-26.953 0.769,-9.244 -0.908,-17.151 -5.131,-24.187 -3.363,-5.525 -7.242,-10.707 -10.992,-15.719 -7.824,-10.456 -15.215,-20.33 -18.305,-33.049 l -0.143,-0.729 c 1.266,-1.72 2.702,-3.305 4.432,-4.652 0.789,-0.614 1.619,-1.152 2.477,-1.634 -1.608,14.172 9.593,27.197 18.646,37.721 1.033,1.2 2.037,2.367 2.988,3.498 0.913,1.084 1.875,2.196 2.86,3.337 9.193,10.643 20.637,23.888 12.674,37.923" /><path
           inkscape:connector-curvature="0"
           id="path122"
           style="fill:#62b55a;fill-opacity:1;fill-rule:nonzero;stroke:none"
           d="m 165.4963,296.35259 c -1.499,-0.096 -2.999,-0.201 -4.499,-0.317 2.745,-15.839 -2.802,-31.003 -8.23,-43.898 -3.783,-10.086 -4.336,-26.361 -1.6,-38.649 0.467,-0.614 0.92,-1.241 1.344,-1.896 0.135,-0.207 0.264,-0.42 0.395,-0.63 0.029,4.846 0.863,10.229 2.627,16.855 1.646,6.18 4.486,12.029 7.234,17.685 2.252,4.638 4.582,9.434 6.234,14.38 3.702,11.068 2.547,23.019 -3.505,36.47" /><path
           inkscape:connector-curvature="0"
           id="path124"
           style="fill:#62b55a;fill-opacity:1;fill-rule:nonzero;stroke:none"
           d="m 155.6873,295.55159 c -0.691,-0.074 -1.383,-0.156 -2.074,-0.242 0.332,-12.224 -4.727,-24.902 -8.834,-35.176 -4.342,-10.308 -2.412,-21.688 -0.545,-32.692 0.428,-2.535 0.865,-5.129 1.219,-7.682 1.691,-1.632 3.328,-3.313 4.82,-5.134 -2.449,12.239 -1.811,27.901 1.885,37.754 5.404,12.839 10.937,27.838 8.199,43.526 l 0.002,0 -0.016,0.08 c -1.553,-0.125 -3.105,-0.266 -4.656,-0.434" /></g><g
         id="g4314"><path
           inkscape:connector-curvature="0"
           id="path126"
           style="fill:#231f20;fill-opacity:1;fill-rule:nonzero;stroke:none"
           d="m 174.6283,76.449586 c 0,3.1871 1.211,4.7809 3.635,4.7809 0.979,0 1.76,-0.2989 2.343,-0.8957 0.584,-0.5961 0.876,-1.4653 0.876,-2.6063 l -1.212,0 c 0,0.791 -0.181,1.3891 -0.539,1.7973 -0.36,0.4097 -0.848,0.6129 -1.468,0.6129 -0.808,0 -1.409,-0.277 -1.804,-0.834 -0.395,-0.5563 -0.593,-1.3961 -0.593,-2.5192 l 0,-0.6718 c 0,-1.1231 0.198,-1.9629 0.593,-2.518 0.395,-0.5582 0.996,-0.8359 1.804,-0.8359 0.637,0 1.138,0.2007 1.501,0.6058 0.364,0.4039 0.546,0.9981 0.546,1.7789 l 1.172,0 c 0,-1.15 -0.289,-2.016 -0.869,-2.6 -0.578,-0.584 -1.362,-0.875 -2.35,-0.875 -2.424,0 -3.635,1.5922 -3.635,4.7801" /><path
           inkscape:connector-curvature="0"
           id="path128"
           style="fill:#231f20;fill-opacity:1;fill-rule:nonzero;stroke:none"
           d="m 186.4233,72.853486 c 0.225,0.1352 0.408,0.3359 0.553,0.6 0.143,0.2652 0.215,0.5801 0.215,0.9492 l 0,0.6457 c -0.808,0 -1.413,-0.091 -1.818,-0.275 -0.404,-0.184 -0.606,-0.5328 -0.606,-1.0449 0,-0.3848 0.078,-0.6621 0.236,-0.8277 0.157,-0.166 0.398,-0.2481 0.72,-0.2481 0.242,0 0.477,0.066 0.7,0.2008 z m -2.248,-0.7539 c -0.377,0.2871 -0.566,0.809 -0.566,1.5629 0,0.9062 0.308,1.5269 0.923,1.8652 0.614,0.336 1.501,0.5039 2.659,0.5039 l 0,0.916 c 0,0.3688 -0.081,0.65 -0.242,0.8489 -0.162,0.198 -0.453,0.2949 -0.875,0.2949 -0.387,0 -0.664,-0.1066 -0.835,-0.3219 -0.17,-0.2168 -0.256,-0.4801 -0.256,-0.7949 l 0,-0.1621 -1.091,0 c -0.009,0.0551 -0.014,0.1519 -0.014,0.2973 0,0.6289 0.206,1.1128 0.619,1.4546 0.414,0.3403 0.966,0.5102 1.658,0.5102 0.709,0 1.243,-0.1699 1.602,-0.5102 0.359,-0.3418 0.538,-0.832 0.538,-1.4687 l 0,-3.9723 c 0,-0.1527 0.035,-0.2699 0.108,-0.35 0.072,-0.0797 0.162,-0.1207 0.269,-0.1207 l 0.431,0 0,-0.7679 c -0.197,-0.1071 -0.44,-0.1622 -0.727,-0.1622 -0.287,0 -0.527,0.0782 -0.72,0.2372 -0.194,0.1558 -0.326,0.3687 -0.398,0.6378 l -0.067,0 c -0.179,-0.2949 -0.42,-0.523 -0.72,-0.6851 -0.301,-0.1617 -0.635,-0.243 -1.003,-0.243 -0.485,0 -0.916,0.143 -1.293,0.4301" /><path
           inkscape:connector-curvature="0"
           id="path130"
           style="fill:#231f20;fill-opacity:1;fill-rule:nonzero;stroke:none"
           d="m 191.5003,72.160486 c -0.197,0.3102 -0.295,0.6969 -0.295,1.1641 l 0,4.6051 -0.606,0 0,0.9847 0.606,0 0.241,1.9661 0.862,0 0,-1.9661 0.957,0 0,-0.9847 -0.957,0 0,-4.6313 c 0,-0.4308 0.211,-0.6457 0.633,-0.6457 l 0.324,0 0,-0.7679 c -0.1,-0.0543 -0.223,-0.0993 -0.371,-0.134 -0.148,-0.0383 -0.29,-0.0551 -0.424,-0.0551 -0.449,0 -0.772,0.1559 -0.97,0.4648" /><path
           inkscape:connector-curvature="0"
           id="path132"
           style="fill:#231f20;fill-opacity:1;fill-rule:nonzero;stroke:none"
           d="m 197.8703,72.853486 c 0.223,0.1352 0.408,0.3359 0.551,0.6 0.144,0.2652 0.216,0.5801 0.216,0.9492 l 0,0.6457 c -0.807,0 -1.414,-0.091 -1.818,-0.275 -0.405,-0.184 -0.606,-0.5328 -0.606,-1.0449 0,-0.3848 0.078,-0.6621 0.236,-0.8277 0.157,-0.166 0.397,-0.2481 0.72,-0.2481 0.243,0 0.476,0.066 0.701,0.2008 z m -2.249,-0.7539 c -0.377,0.2871 -0.566,0.809 -0.566,1.5629 0,0.9062 0.308,1.5269 0.923,1.8652 0.614,0.336 1.501,0.5039 2.659,0.5039 l 0,0.916 c 0,0.3688 -0.081,0.65 -0.243,0.8489 -0.161,0.198 -0.453,0.2949 -0.874,0.2949 -0.387,0 -0.665,-0.1066 -0.835,-0.3219 -0.171,-0.2168 -0.257,-0.4801 -0.257,-0.7949 l 0,-0.1621 -1.091,0 c -0.008,0.0551 -0.013,0.1519 -0.013,0.2973 0,0.6289 0.207,1.1128 0.62,1.4546 0.413,0.3403 0.965,0.5102 1.656,0.5102 0.71,0 1.243,-0.1699 1.603,-0.5102 0.358,-0.3418 0.539,-0.832 0.539,-1.4687 l 0,-3.9723 c 0,-0.1527 0.035,-0.2699 0.107,-0.35 0.071,-0.0797 0.161,-0.1207 0.27,-0.1207 l 0.43,0 0,-0.7679 c -0.198,-0.1071 -0.439,-0.1622 -0.726,-0.1622 -0.288,0 -0.529,0.0782 -0.721,0.2372 -0.193,0.1558 -0.326,0.3687 -0.397,0.6378 l -0.068,0 c -0.18,-0.2949 -0.42,-0.523 -0.72,-0.6851 -0.301,-0.1617 -0.635,-0.243 -1.004,-0.243 -0.485,0 -0.915,0.143 -1.292,0.4301" /><path
           inkscape:connector-curvature="0"
           id="path134"
           style="fill:#231f20;fill-opacity:1;fill-rule:nonzero;stroke:none"
           d="m 202.5293,71.830486 1.10391,0 0,9.73594 -1.10391,0 0,-9.73594 z" /><path
           inkscape:connector-curvature="0"
           id="path136"
           style="fill:#231f20;fill-opacity:1;fill-rule:nonzero;stroke:none"
           d="m 205.9363,69.488686 0,0.7668 0.391,0 c 0.709,0 1.175,0.5261 1.4,1.575 l -2.168,7.0839 1.212,0 1.199,-4.2289 0.363,-1.266 0.054,0 0.31,1.293 1.009,4.2019 1.118,0 -1.804,-6.7207 c -0.233,-0.8793 -0.53,-1.5679 -0.889,-2.066 -0.359,-0.4992 -0.826,-0.7492 -1.4,-0.7492 -0.323,0 -0.589,0.0383 -0.795,0.1102" /><path
           inkscape:connector-curvature="0"
           id="path138"
           style="fill:#231f20;fill-opacity:1;fill-rule:nonzero;stroke:none"
           d="m 213.0743,72.267586 c -0.377,0.4011 -0.567,0.8929 -0.567,1.475 0,0.109 0.002,0.1832 0.007,0.2218 l 0.007,0.075 1.158,0 0,-0.1347 c 0,-0.4223 0.108,-0.7379 0.323,-0.9492 0.216,-0.211 0.494,-0.3168 0.835,-0.3168 0.305,0 0.559,0.0918 0.761,0.2757 0.202,0.1852 0.303,0.443 0.303,0.775 0,0.252 -0.064,0.4571 -0.189,0.6192 -0.126,0.1621 -0.277,0.289 -0.458,0.3851 -0.179,0.0938 -0.43,0.1989 -0.754,0.3137 -0.395,0.1371 -0.713,0.2703 -0.956,0.4051 -0.242,0.134 -0.449,0.334 -0.619,0.5992 -0.171,0.266 -0.256,0.6141 -0.256,1.0449 0,0.6192 0.2,1.1102 0.599,1.4731 0.399,0.3648 0.937,0.5449 1.609,0.5449 0.637,0 1.136,-0.1859 1.495,-0.557 0.359,-0.3731 0.54,-0.834 0.54,-1.3809 l -0.014,-0.2562 -1.145,0 0,0.1222 c 0,0.3137 -0.077,0.5758 -0.229,0.7867 -0.153,0.2114 -0.404,0.3161 -0.754,0.3161 -0.351,0 -0.597,-0.1 -0.741,-0.295 -0.144,-0.1988 -0.215,-0.4218 -0.215,-0.6738 0,-0.3062 0.104,-0.5312 0.316,-0.6793 0.21,-0.1488 0.537,-0.2949 0.976,-0.4398 0.404,-0.1418 0.736,-0.2828 0.997,-0.4239 0.26,-0.1382 0.482,-0.3472 0.666,-0.625 0.185,-0.2793 0.276,-0.65 0.276,-1.1171 0,-0.7282 -0.204,-1.2731 -0.612,-1.6372 -0.409,-0.3628 -0.959,-0.5449 -1.65,-0.5449 -0.763,0 -1.332,0.2 -1.709,0.5981" /><path
           inkscape:connector-curvature="0"
           id="path140"
           style="fill:#231f20;fill-opacity:1;fill-rule:nonzero;stroke:none"
           d="m 219.3743,78.914386 1.106,0 0,-7.0839 -1.106,0 0,7.0839 z m 0,2.652 1.106,0 0,-1.3199 -1.106,0 0,1.3199" /><path
           inkscape:connector-curvature="0"
           id="path142"
           style="fill:#231f20;fill-opacity:1;fill-rule:nonzero;stroke:none"
           d="m 223.0783,78.914386 0.835,0 0.148,-0.823 0.081,0 c 0.367,0.657 0.938,0.9832 1.71,0.9832 0.565,0 0.998,-0.166 1.299,-0.5039 0.302,-0.3359 0.451,-0.8832 0.451,-1.6371 l 0,-5.1031 -1.104,0 0,5.023 c 0,0.457 -0.085,0.7789 -0.255,0.9629 -0.171,0.1844 -0.417,0.275 -0.741,0.275 -0.368,0 -0.68,-0.1746 -0.936,-0.525 -0.256,-0.35 -0.384,-0.8199 -0.384,-1.4117 l 0,-4.3242 -1.104,0 0,7.0839" /><path
           inkscape:connector-curvature="0"
           id="path144"
           style="fill:#231f20;fill-opacity:1;fill-rule:nonzero;stroke:none"
           d="m 233.4133,75.615586 c 0.211,0.2602 0.316,0.6192 0.316,1.0758 0,0.4773 -0.105,0.8402 -0.316,1.0922 -0.21,0.25 -0.51,0.3769 -0.895,0.3769 -0.387,0 -0.684,-0.1308 -0.889,-0.391 -0.208,-0.2621 -0.309,-0.6211 -0.309,-1.0781 0,-0.475 0.101,-0.8379 0.309,-1.0898 0.205,-0.252 0.502,-0.377 0.889,-0.377 0.385,0 0.685,0.1289 0.895,0.391 z m 0.168,-5.2801 c 0.234,0 0.431,0.0813 0.592,0.243 0.162,0.1621 0.243,0.359 0.243,0.593 0,0.241 -0.072,0.4402 -0.215,0.5922 -0.144,0.1531 -0.35,0.2289 -0.62,0.2289 l -1.952,0 c -0.27,0 -0.474,-0.0758 -0.613,-0.2289 -0.139,-0.152 -0.209,-0.3512 -0.209,-0.5922 0,-0.2438 0.072,-0.443 0.215,-0.6008 0.144,-0.1563 0.346,-0.2352 0.607,-0.2352 l 1.952,0 z m -3.419,-0.4781 c -0.307,0.3184 -0.458,0.7211 -0.458,1.2051 0,0.35 0.083,0.6621 0.248,0.9383 0.167,0.2726 0.388,0.4617 0.667,0.5699 -0.18,0.1168 -0.322,0.2707 -0.425,0.459 -0.103,0.1867 -0.155,0.3898 -0.155,0.6051 0,0.2796 0.09,0.5257 0.27,0.7429 0.18,0.2137 0.422,0.3758 0.727,0.4821 -0.547,0.4488 -0.822,1.0597 -0.822,1.8316 0,0.7461 0.207,1.3281 0.62,1.7523 0.413,0.4219 0.978,0.6309 1.697,0.6309 0.369,0 0.71,-0.084 1.023,-0.2539 0.287,0.1519 0.496,0.332 0.626,0.5391 0.131,0.2046 0.214,0.4386 0.25,0.6988 l 0.969,0 c 0,-0.4309 -0.106,-0.7988 -0.317,-1.1031 -0.211,-0.3071 -0.5,-0.5039 -0.868,-0.5938 0.422,-0.4402 0.633,-0.9961 0.633,-1.6703 0,-0.727 -0.204,-1.3027 -0.613,-1.7309 -0.408,-0.425 -0.957,-0.6418 -1.65,-0.6519 l -0.74,0 c -0.18,0 -0.332,-0.0602 -0.458,-0.1809 -0.125,-0.1222 -0.188,-0.2722 -0.188,-0.4519 0,-0.1703 0.063,-0.3184 0.188,-0.4434 0.126,-0.1269 0.278,-0.1887 0.458,-0.1887 l 2.02,0 c 0.503,0 0.907,-0.1613 1.212,-0.4793 0.305,-0.3179 0.459,-0.7109 0.459,-1.1777 0,-0.584 -0.183,-1.0641 -0.546,-1.441 -0.365,-0.377 -0.874,-0.5672 -1.529,-0.5672 l -2.006,0 c -0.557,0 -0.988,0.1609 -1.292,0.4789" /><path
           inkscape:connector-curvature="0"
           id="path146"
           style="fill:#231f20;fill-opacity:1;fill-rule:nonzero;stroke:none"
           d="m 244.2463,72.853486 c 0.224,0.1352 0.408,0.3359 0.552,0.6 0.143,0.2652 0.215,0.5801 0.215,0.9492 l 0,0.6457 c -0.808,0 -1.413,-0.091 -1.817,-0.275 -0.405,-0.184 -0.606,-0.5328 -0.606,-1.0449 0,-0.3848 0.077,-0.6621 0.236,-0.8277 0.157,-0.166 0.397,-0.2481 0.719,-0.2481 0.243,0 0.477,0.066 0.701,0.2008 z m -2.249,-0.7539 c -0.376,0.2871 -0.565,0.809 -0.565,1.5629 0,0.9062 0.308,1.5269 0.922,1.8652 0.615,0.336 1.501,0.5039 2.659,0.5039 l 0,0.916 c 0,0.3688 -0.08,0.65 -0.242,0.8489 -0.162,0.198 -0.453,0.2949 -0.875,0.2949 -0.387,0 -0.664,-0.1066 -0.835,-0.3219 -0.17,-0.2168 -0.256,-0.4801 -0.256,-0.7949 l 0,-0.1621 -1.091,0 c -0.009,0.0551 -0.013,0.1519 -0.013,0.2973 0,0.6289 0.206,1.1128 0.619,1.4546 0.413,0.3403 0.966,0.5102 1.657,0.5102 0.709,0 1.243,-0.1699 1.603,-0.5102 0.358,-0.3418 0.538,-0.832 0.538,-1.4687 l 0,-3.9723 c 0,-0.1527 0.035,-0.2699 0.107,-0.35 0.072,-0.0797 0.162,-0.1207 0.271,-0.1207 l 0.429,0 0,-0.7679 c -0.197,-0.1071 -0.438,-0.1622 -0.726,-0.1622 -0.287,0 -0.528,0.0782 -0.721,0.2372 -0.192,0.1558 -0.325,0.3687 -0.398,0.6378 l -0.067,0 c -0.179,-0.2949 -0.42,-0.523 -0.72,-0.6851 -0.3,-0.1617 -0.634,-0.243 -1.003,-0.243 -0.485,0 -0.916,0.143 -1.293,0.4301" /><path
           inkscape:connector-curvature="0"
           id="path148"
           style="fill:#231f20;fill-opacity:1;fill-rule:nonzero;stroke:none"
           d="m 253.1613,77.929686 -0.62,0 0,0.9847 0.62,0 0,1.1301 c 0,0.4672 0.11,0.8563 0.331,1.1653 0.219,0.3097 0.576,0.4636 1.07,0.4636 0.314,0 0.623,-0.0519 0.929,-0.1617 l 0,-0.7672 -0.592,0 c -0.423,0 -0.634,-0.2148 -0.634,-0.6449 l 0,-1.1852 1.226,0 0,-0.9847 -1.226,0 0,-6.0992 -1.104,0 0,6.0992" /><path
           inkscape:connector-curvature="0"
           id="path150"
           style="fill:#231f20;fill-opacity:1;fill-rule:nonzero;stroke:none"
           d="m 257.4153,78.914386 0.836,0 0.149,-0.9296 0.081,0 c 0.098,0.3136 0.246,0.5738 0.444,0.7808 0.196,0.207 0.447,0.309 0.754,0.309 0.125,0 0.237,-0.016 0.336,-0.0449 0.099,-0.0313 0.161,-0.0531 0.189,-0.061 l 0,-1.1441 -0.364,0 c -0.386,0 -0.702,-0.1332 -0.949,-0.3988 -0.247,-0.2653 -0.37,-0.6891 -0.37,-1.2711 l 0,-4.3242 -1.106,0 0,7.0839" /><path
           inkscape:connector-curvature="0"
           id="path152"
           style="fill:#231f20;fill-opacity:1;fill-rule:nonzero;stroke:none"
           d="m 262.6623,72.173386 c -0.301,0.3364 -0.453,0.8832 -0.453,1.6371 l 0,5.1039 1.105,0 0,-5.0238 c 0,-0.457 0.085,-0.7789 0.256,-0.9629 0.171,-0.1832 0.418,-0.275 0.741,-0.275 0.368,0 0.68,0.1758 0.935,0.525 0.256,0.35 0.384,0.8231 0.384,1.4137 l 0,4.323 1.104,0 0,-7.0839 -0.834,0 -0.149,0.8222 -0.081,0 c -0.368,-0.6562 -0.937,-0.9832 -1.709,-0.9832 -0.566,0 -1,0.168 -1.299,0.5039" /><path
           inkscape:connector-curvature="0"
           id="path154"
           style="fill:#231f20;fill-opacity:1;fill-rule:nonzero;stroke:none"
           d="m 269.3333,78.914386 1.105,0 0,-7.0839 -1.105,0 0,7.0839 z m 0,2.652 1.105,0 0,-1.3199 -1.105,0 0,1.3199" /><path
           inkscape:connector-curvature="0"
           id="path156"
           style="fill:#231f20;fill-opacity:1;fill-rule:nonzero;stroke:none"
           d="m 273.3193,72.160486 c -0.198,0.3102 -0.296,0.6969 -0.296,1.1641 l 0,4.6051 -0.606,0 0,0.9847 0.606,0 0.242,1.9661 0.861,0 0,-1.9661 0.957,0 0,-0.9847 -0.957,0 0,-4.6313 c 0,-0.4308 0.212,-0.6457 0.634,-0.6457 l 0.323,0 0,-0.7679 c -0.099,-0.0543 -0.222,-0.0993 -0.37,-0.134 -0.149,-0.0383 -0.29,-0.0551 -0.425,-0.0551 -0.449,0 -0.772,0.1559 -0.969,0.4648" /><path
           inkscape:connector-curvature="0"
           id="path158"
           style="fill:#231f20;fill-opacity:1;fill-rule:nonzero;stroke:none"
           d="m 277.1583,77.929686 -0.62,0 0,0.9847 0.62,0 0,1.1301 c 0,0.4672 0.109,0.8563 0.33,1.1653 0.219,0.3097 0.576,0.4636 1.07,0.4636 0.314,0 0.623,-0.0519 0.93,-0.1617 l 0,-0.7672 -0.593,0 c -0.423,0 -0.633,-0.2148 -0.633,-0.6449 l 0,-1.1852 1.226,0 0,-0.9847 -1.226,0 0,-6.0992 -1.104,0 0,6.0992" /><path
           inkscape:connector-curvature="0"
           id="path160"
           style="fill:#231f20;fill-opacity:1;fill-rule:nonzero;stroke:none"
           d="m 281.8643,72.173386 c -0.301,0.3364 -0.451,0.8832 -0.451,1.6371 l 0,5.1039 1.104,0 0,-5.0238 c 0,-0.457 0.085,-0.7789 0.256,-0.9629 0.171,-0.1832 0.417,-0.275 0.74,-0.275 0.368,0 0.68,0.1758 0.937,0.525 0.255,0.35 0.383,0.8231 0.383,1.4137 l 0,4.323 1.104,0 0,-7.0839 -0.835,0 -0.147,0.8222 -0.082,0 c -0.368,-0.6562 -0.938,-0.9832 -1.71,-0.9832 -0.565,0 -0.999,0.168 -1.299,0.5039" /><path
           inkscape:connector-curvature="0"
           id="path162"
           style="fill:#231f20;fill-opacity:1;fill-rule:nonzero;stroke:none"
           d="m 288.5363,71.830486 1.10391,0 0,9.73594 -1.10391,0 0,-9.73594 z" /><path
           inkscape:connector-curvature="0"
           id="path164"
           style="fill:#231f20;fill-opacity:1;fill-rule:nonzero;stroke:none"
           d="m 296.3593,77.929686 -0.619,0 0,0.9847 0.619,0 0,1.1301 c 0,0.4672 0.11,0.8563 0.33,1.1653 0.221,0.3097 0.577,0.4636 1.07,0.4636 0.316,0 0.624,-0.0519 0.93,-0.1617 l 0,-0.7672 -0.592,0 c -0.423,0 -0.634,-0.2148 -0.634,-0.6449 l 0,-1.1852 1.226,0 0,-0.9847 -1.226,0 0,-6.0992 -1.104,0 0,6.0992" /><path
           inkscape:connector-curvature="0"
           id="path166"
           style="fill:#231f20;fill-opacity:1;fill-rule:nonzero;stroke:none"
           d="m 301.0673,72.173386 c -0.301,0.3364 -0.452,0.8832 -0.452,1.6371 l 0,5.1039 1.104,0 0,-5.0238 c 0,-0.457 0.085,-0.7789 0.257,-0.9629 0.17,-0.1832 0.417,-0.275 0.74,-0.275 0.368,0 0.68,0.1758 0.936,0.525 0.256,0.35 0.384,0.8231 0.384,1.4137 l 0,4.323 1.104,0 0,-7.0839 -0.835,0 -0.148,0.8222 -0.081,0 c -0.369,-0.6562 -0.938,-0.9832 -1.709,-0.9832 -0.567,0 -1,0.168 -1.3,0.5039" /><path
           inkscape:connector-curvature="0"
           id="path168"
           style="fill:#231f20;fill-opacity:1;fill-rule:nonzero;stroke:none"
           d="m 308.1573,72.160486 c -0.199,0.3102 -0.297,0.6969 -0.297,1.1641 l 0,4.6051 -0.606,0 0,0.9847 0.606,0 0.242,1.9661 0.862,0 0,-1.9661 0.956,0 0,-0.9847 -0.956,0 0,-4.6313 c 0,-0.4308 0.211,-0.6457 0.633,-0.6457 l 0.323,0 0,-0.7679 c -0.099,-0.0543 -0.221,-0.0993 -0.37,-0.134 -0.148,-0.0383 -0.29,-0.0551 -0.425,-0.0551 -0.449,0 -0.772,0.1559 -0.968,0.4648" /><path
           inkscape:connector-curvature="0"
           id="path170"
           style="fill:#231f20;fill-opacity:1;fill-rule:nonzero;stroke:none"
           d="m 312.5133,72.173386 c -0.302,0.3364 -0.452,0.8832 -0.452,1.6371 l 0,5.1039 1.104,0 0,-5.0238 c 0,-0.457 0.085,-0.7789 0.256,-0.9629 0.171,-0.1832 0.417,-0.275 0.741,-0.275 0.368,0 0.679,0.1758 0.936,0.525 0.255,0.35 0.384,0.8231 0.384,1.4137 l 0,4.323 1.103,0 0,-7.0839 -0.835,0 -0.147,0.8222 -0.081,0 c -0.368,-0.6562 -0.939,-0.9832 -1.71,-0.9832 -0.566,0 -0.999,0.168 -1.299,0.5039" /><path
           inkscape:connector-curvature="0"
           id="path172"
           style="fill:#231f20;fill-opacity:1;fill-rule:nonzero;stroke:none"
           d="m 319.3193,78.914386 0.836,0 0.147,-0.9296 0.081,0 c 0.099,0.3136 0.247,0.5738 0.445,0.7808 0.197,0.207 0.448,0.309 0.753,0.309 0.126,0 0.239,-0.016 0.336,-0.0449 0.1,-0.0313 0.163,-0.0531 0.19,-0.061 l 0,-1.1441 -0.363,0 c -0.387,0 -0.703,-0.1332 -0.951,-0.3988 -0.246,-0.2653 -0.37,-0.6891 -0.37,-1.2711 l 0,-4.3242 -1.104,0 0,7.0839" /><path
           inkscape:connector-curvature="0"
           id="path174"
           style="fill:#231f20;fill-opacity:1;fill-rule:nonzero;stroke:none"
           d="m 327.7073,76.031586 c 0,0.6739 -0.097,1.1848 -0.295,1.5348 -0.198,0.3504 -0.49,0.525 -0.875,0.525 -0.476,0 -0.832,-0.168 -1.071,-0.5039 -0.238,-0.3367 -0.38,-0.8551 -0.425,-1.5559 l 2.666,0 z m -3.169,-3.4808 c -0.445,0.5879 -0.667,1.5297 -0.667,2.8226 0,1.2653 0.219,2.1992 0.66,2.8 0.438,0.6 1.108,0.9012 2.006,0.9012 0.79,0 1.376,-0.2621 1.757,-0.7871 0.381,-0.5258 0.572,-1.3707 0.572,-2.5367 l 0,-0.7024 -3.838,0 c 0.01,-0.8258 0.137,-1.4308 0.384,-1.816 0.248,-0.3867 0.635,-0.5797 1.165,-0.5797 0.359,0 0.649,0.1438 0.869,0.4321 0.219,0.2847 0.33,0.6707 0.33,1.1558 l 1.09,0 c 0,-0.789 -0.213,-1.414 -0.639,-1.8769 -0.427,-0.4629 -0.985,-0.6942 -1.677,-0.6942 -0.897,0 -1.569,0.293 -2.012,0.8813" /></g><path
         style="fill:#231f20;fill-opacity:1;fill-rule:nonzero;stroke:none"
         d="m 174.70731,215.91714 -0.002,-69.83411 0,-17.20312 c 0,-3.709 3.00618,-6.71564 6.71719,-6.71564 3.11995,0 5.73743,2.13059 6.24322,3.7712 0.50578,1.64062 0.6099,2.33893 0.6099,3.08193 l 0,34.13125 c 0,0.73 0.22538,1.32326 0.68438,1.78126 0.455,0.456 1.04982,0.68593 1.78282,0.68593 l 9.04531,0 c 2.557,0 4.84269,-0.86969 6.85469,-2.60469 1.918,-1.644 3.10449,-3.79319 3.56249,-6.44219 0.275,-2.011 0.63787,-4.59174 1.09687,-7.74374 0.457,-3.153 0.89113,-6.25988 1.30313,-9.32188 0.41,-3.062 0.77587,-5.711 1.09687,-7.95 0.318,-2.24 0.47969,-3.40631 0.47969,-3.49531 0.274,-1.737 1.04869,-3.154 2.32969,-4.25 1.279,-1.097 2.7405,-1.64376 4.3875,-1.64376 0.455,0 0.77538,0.045 0.95938,0.13595 1.826,0.275 3.30969,1.16543 4.45469,2.67343 1.141,1.508 1.575,3.17413 1.3,5.00313 l -0.40938,3.15313 c -0.276,1.46 -0.57262,3.31 -0.89062,5.55 -0.322,2.239 -0.64095,4.57018 -0.96095,6.99218 -0.32,2.421 -0.63936,4.74962 -0.95936,6.99062 -0.32,2.238 -0.61664,4.18 -0.89064,5.825 -0.548,4.02 -2.10393,7.72113 -4.66093,11.10313 -0.367,0.455 -0.50294,1.00431 -0.41094,1.64531 0.09,0.638 0.36487,1.18576 0.82187,1.64376 0.823,0.731 1.62,1.55318 2.4,2.46718 0.775,0.912 1.48244,1.87269 2.12344,2.87969 3.291,4.66 4.93438,9.958 4.93438,15.9 0,1.918 -0.18187,3.78975 -0.54687,5.61875 -0.368,1.827 -0.91531,3.65381 -1.64531,5.48281 -2.193,5.117 -5.66676,9.275 -10.41876,12.475 -4.752,3.197 -10.053,4.79665 -15.9,4.79688 l -20.2854,7.8e-4 c -3.45805,-0.65094 -5.20595,-2.73414 -5.20595,-6.58386 z m 16.03511,-6.8513 9.45625,0 c 2.009,0 3.97531,-0.41081 5.89531,-1.23281 2.651,-1.097 4.84169,-2.87832 6.57969,-5.34532 1.645,-2.652 2.46719,-5.43793 2.46719,-8.36093 0,-1.92 -0.36788,-3.88475 -1.09688,-5.89375 -1.097,-2.741 -2.92737,-4.93569 -5.48437,-6.57969 -2.467,-1.647 -5.25594,-2.46719 -8.36094,-2.46719 l -9.45625,0 c -0.733,0 -1.32781,0.22638 -1.78281,0.68438 -0.459,0.457 -0.68438,1.00574 -0.68438,1.64374 l 0,25.08595 c 0,0.73 0.22538,1.32225 0.68438,1.78125 0.455,0.456 1.04981,0.68437 1.78281,0.68437 z"
         id="path178"
         inkscape:connector-curvature="0"
         sodipodi:nodetypes="ccsscsscsscccccccscccccccccccccscccsccssccsccsscsscs" /><path
         d="m 257.7463,128.87959 c 0,-3.709 -3.008,-6.716 -6.717,-6.716 -3.711,0 -6.717,3.007 -6.717,6.716 l 0,86.904 c 0,3.71 3.006,6.717 6.717,6.717 3.709,0 6.717,-3.007 6.717,-6.717 l 0,-86.904"
         style="fill:#231f20;fill-opacity:1;fill-rule:nonzero;stroke:none"
         id="path176"
         inkscape:connector-curvature="0" /><g
         id="g4366"><path
           inkscape:connector-curvature="0"
           id="path64"
           style="fill:#62b55a;fill-opacity:1;fill-rule:nonzero;stroke:none"
           d="m 78.923603,224.16859 c 4.3886,-0.387 8.533201,-0.752 13.0937,-2.124 4.1328,-1.241 8.833997,-2.84 12.339997,-6.119 4.183,-3.915 5.994,-9.689 6.992,-13.69 1.51,-6.052 2.223,-12.283 2.117,-18.523 -0.193,-11.479 -3.17,-22.787 -6.051,-33.721 -2.181,-8.287 -4.435,-16.855 -5.4722,-25.452 -2.712896,-22.5611 2.8732,-44.986904 10.0232,-65.017004 5.717,-2.4351 11.932,-4.0628 18.008,-4.591 -10.021,22.0602 -12.84,47.364104 -7.666,71.056004 0.898,4.121 2.049,8.271 3.162,12.283 2.389,8.612 4.856,17.518 4.947,26.546 0.057,5.616 -0.826,11.284 -1.697,16.089 -1.713,9.447 -4.017,18.892 -6.851,28.07 -1.727,5.595 -3.965,11.901 -8.702,15.916 -2.81,2.382 -6.33,3.808 -9.714,4.994 -4.375497,1.533 -8.875497,2.788 -13.416497,3.773 -3.7715,-0.484 -7.5117,-1.603 -11.1875,-3.598 -2.7285,-1.481 -5.039,-3.203 -7.0097,-5.121 2.457,-0.359 4.8086,-0.57 7.084,-0.771" /><path
           inkscape:connector-curvature="0"
           id="path66"
           style="fill:#62b55a;fill-opacity:1;fill-rule:nonzero;stroke:none"
           d="m 93.089603,119.35759 c 3.582001,15.509 7.285097,31.548 9.829697,48.087 1.092,6.547 -0.021,13.226 -1.0993,19.686 -5.763596,16.127 -18.927697,29.049 -33.792897,33.288 -0.6524,-0.94 -1.2539,-1.909 -1.8047,-2.906 7.0508,-8.185 22.6992,-28.335 22.056601,-45.233 -0.3222,-8.423 -1.529301,-16.886 -2.6972,-25.07 -1.3965,-9.766 -2.8379,-19.867 -2.765701,-29.92 0.0352,-5.167 0.3203,-10.415 0.5996,-15.4912 0.1602,-2.941804 0.3184,-5.946804 0.4356,-8.957804 0.7246,-1.9832 1.4258,-3.9832 2.1621,-5.9648 2.1211,10.9597 4.6289,21.890804 7.0762,32.481804" /><path
           inkscape:connector-curvature="0"
           id="path68"
           style="fill:#62b55a;fill-opacity:1;fill-rule:nonzero;stroke:none"
           d="m 101.2946,124.61659 c 1.0387,8.642 3.3007,17.234 5.4887,25.542 2.869,10.897 5.836,22.165 6.027,33.566 0.103,6.182 -0.602,12.356 -2.098,18.352 -0.976,3.921 -2.746,9.573 -6.804,13.371 -3.4008,3.181 -8.017996,4.75 -12.080496,5.97 -4.496,1.352 -8.6074,1.715 -12.9628,2.099 -2.4024,0.212 -4.8887,0.431 -7.5059,0.829 l -0.0898,0.014 c -1.043,-1.071 -1.9883,-2.199 -2.8438,-3.378 14.9746,-4.36 28.207,-17.391 34.027796,-33.687 1.099,-6.569 2.222,-13.303 1.113,-19.955 -2.547,-16.558 -6.254096,-32.609 -9.838096,-48.13 -2.5214,-10.918 -5.1191,-22.197104 -7.2773,-33.494004 1.6973,-4.4461 3.6445,-8.759 6.541,-12.507 4.1328,-5.3461 10.679396,-10.0149 18.152396,-13.3281 -7.08,19.9601 -12.554697,42.265204 -9.8497,64.736104" /><path
           inkscape:connector-curvature="0"
           id="path70"
           style="fill:#62b55a;fill-opacity:1;fill-rule:nonzero;stroke:none"
           d="m 57.015304,139.70259 c 1.257899,-1.825 2.595799,-3.617 3.917999,-5.368 0.9785,14.89 -0.6133,29.977 -4.6211,44.371 -1.0469,-4.336 -2.2422,-8.636 -3.5879,-12.889 -0.2343,-0.742 -0.4726,-1.489 -0.7031,-2.241 3.4121,-7.433 5.1387,-15.698 4.9941,-23.873" /><path
           inkscape:connector-curvature="0"
           id="path72"
           style="fill:#62b55a;fill-opacity:1;fill-rule:nonzero;stroke:none"
           d="m 82.761403,101.76249 c -0.277299,5.0841 -0.566399,10.3401 -0.601499,15.5231 -0.0703,10.102 1.375,20.226 2.7734,30.016 1.1641,8.167 2.3711,16.614 2.6895,25.004 0.6289,16.535 -14.6524,36.341 -21.7325,44.589 -1.3535,-2.558 -2.4218,-5.282 -3.2929,-8.121 3.4922,-9.582 7.003899,-19.8 8.5859,-30.321 0.8848,-5.883 1.1738,-11.905 1.453099,-17.728 l 2.3145,-48.32 c 3.080101,-5.687 5.865201,-11.5269 8.1641,-17.580004 l 0.0019,-0.0059 c -0.105501,2.3348 -0.230501,4.6579 -0.355501,6.943804" /><path
           inkscape:connector-curvature="0"
           id="path74"
           style="fill:#62b55a;fill-opacity:1;fill-rule:nonzero;stroke:none"
           d="m 71.980204,160.69259 c -0.2774,5.808 -0.5645,11.813 -1.445301,17.661 -1.5274,10.161 -4.8711,20.051 -8.251999,29.361 -1.3301,-4.6 -2.2031,-9.47 -3.0293,-14.378 7.0059,-21.467 9.4395,-44.181 7.1992,-66.601 0.101599,-0.158 0.2129,-0.319 0.3125,-0.477 2.6075,-4.1 5.1153,-8.276 7.4649,-12.534 l -2.25,46.968" /><path
           inkscape:connector-curvature="0"
           id="path76"
           style="fill:#62b55a;fill-opacity:1;fill-rule:nonzero;stroke:none"
           d="m 65.880604,127.60059 c 2.0547,21.653 -0.2617,43.566 -6.863301,64.338 -0.6719,-3.998 -1.476599,-7.973 -2.4004,-11.92 4.334001,-15.045 6.023401,-30.872 4.9102,-46.468 1.548801,-2.044 3.0507,-4.032 4.3535,-5.95" /><path
           inkscape:connector-curvature="0"
           id="path78"
           style="fill:#62b55a;fill-opacity:1;fill-rule:nonzero;stroke:none"
           d="m 51.730204,162.60959 c -0.853501,-2.911 -1.490201,-5.877 -1.093801,-8.856 0.591801,-4.481 2.906301,-8.876 5.736401,-13.104 0,7.52 -1.6035,15.081 -4.6426,21.96" /><path
           inkscape:connector-curvature="0"
           id="path80"
           style="fill:#62b55a;fill-opacity:1;fill-rule:nonzero;stroke:none"
           d="m 169.7203,89.888686 c -2.06,3.6738 -3.572,7.6007 -4.826,11.266804 -7.162,20.9351 -9.828,43.3301 -7.857,65.3501 -1.942,2.619 -3.758,5.2 -5.452,7.713 0.258,-7.574 -0.67,-15.232 -1.589,-22.726 -0.85,-6.935 -1.731,-14.105 -1.659,-21.119 0.104,-10.271 2.244,-20.496 4.315,-30.381804 1.453,-6.9461 3.101,-14.8192 7.543,-20.9762 1.31,-1.8191 2.881,-3.5058 4.427,-5.1379 l 0.141,0.2117 c 2.221,3.3872 5.002,7.2204 7.867,11.3411 -1.084,1.4152 -2.045,2.9152 -2.91,4.4582" /><path
           inkscape:connector-curvature="0"
           id="path82"
           style="fill:#62b55a;fill-opacity:1;fill-rule:nonzero;stroke:none"
           d="m 180.4493,100.82579 c -6.737,10.0888 -11.172,19.0308 -13.838,27.8898 -2.153,7.156 -4.004,17.386 -2.002,28.227 -2.483,2.937 -4.813,5.88 -6.99,8.785 -1.838,-21.696 0.839,-43.739 7.894,-64.36 1.231,-3.600004 2.711,-7.450004 4.719,-11.052004 0.834,-1.4941 1.756,-2.9469 2.793,-4.3191 2.91,4.2 5.879,8.6941 8.435,13.3281 -0.345,0.5039 -0.677,1.002004 -1.011,1.501204" /><path
           inkscape:connector-curvature="0"
           id="path84"
           style="fill:#62b55a;fill-opacity:1;fill-rule:nonzero;stroke:none"
           d="m 142.6443,181.51959 c 0.41,-4.808 0.748,-11.119 -0.307,-17.297 -0.74,-4.324 -2.142,-8.552 -3.502,-12.641 -0.523,-1.578 -1.066,-3.209 -1.56,-4.821 -8.664,-28.213 -5.586,-59.286004 8.443,-85.253204 0.785,-1.4527 1.658,-2.9328 2.932,-3.8879 1.252,0.5731 2.453,1.2301 3.586,1.9922 5.08,3.4098 8.644,8.5777 12.015,13.7027 -1.595,1.6852 -3.222,3.4243 -4.588,5.3172 -4.523,6.2711 -6.185,14.216 -7.652,21.225 -2.078,9.919004 -4.224,20.175004 -4.33,30.510004 -0.072,7.057 0.811,14.25 1.664,21.206 0.959,7.814 1.934,15.811 1.547,23.68 -3.781,5.686 -6.918,10.989 -9.406,15.509 0.486,-2.813 0.869,-5.866 1.158,-9.242" /><path
           inkscape:connector-curvature="0"
           id="path86"
           style="fill:#62b55a;fill-opacity:1;fill-rule:nonzero;stroke:none"
           d="m 145.1423,61.196486 c -14.113,26.1199 -17.209,57.378104 -8.494,85.758104 0.498,1.617 1.041,3.253 1.566,4.834 1.35,4.065 2.746,8.269 3.477,12.545 1.043,6.104 0.707,12.362 0.299,17.131 -0.356,4.169 -0.858,7.84 -1.524,11.168 -4.129,7.682 -6.191,12.675 -6.193,12.682 -0.807,1.605 -1.545,3.359 -2.277,5.166 -6.715,15.36 -19.159,20.756 -28.368,22.585 -3.841497,0.71 -7.691097,1.057 -11.515297,0.796 3.9082,-0.92 7.7793,-2.034 11.556297,-3.358 3.444,-1.207 7.03,-2.662 9.922,-5.113 4.871,-4.128 7.151,-10.538 8.905,-16.222 2.839,-9.203 5.152,-18.673 6.869,-28.147 0.877,-4.833 1.765,-10.541 1.709,-16.213 -0.094,-9.112 -2.575,-18.059 -4.971,-26.713 -1.111,-4.005 -2.26,-8.145 -3.154,-12.249 -5.172,-23.6732 -2.315,-48.966104 7.771,-70.975104 6.154,-0.443 12.125,0.2742 17.252,2.457 -1.219,1.0231 -2.068,2.4563 -2.83,3.868" /><path
           inkscape:connector-curvature="0"
           id="path88"
           style="fill:#62b55a;fill-opacity:1;fill-rule:nonzero;stroke:none"
           d="m 181.7203,138.62359 c 0.104,-0.12 0.203,-0.24 0.309,-0.363 -0.104,0.121 -0.205,0.243 -0.309,0.363" /><path
           inkscape:connector-curvature="0"
           id="path90"
           style="fill:#62b55a;fill-opacity:1;fill-rule:nonzero;stroke:none"
           d="m 181.7203,138.62359 c -0.666,0.779 -1.348,1.547 -2.029,2.315 0.652,-0.722 1.332,-1.495 2.029,-2.315" /><path
           inkscape:connector-curvature="0"
           id="path92"
           style="fill:#62b55a;fill-opacity:1;fill-rule:nonzero;stroke:none"
           d="m 182.2443,138.00359 -0.215,0.257 0.119,-0.14 0.096,-0.117" /><path
           inkscape:connector-curvature="0"
           id="path94"
           style="fill:#62b55a;fill-opacity:1;fill-rule:nonzero;stroke:none"
           d="m 186.8593,130.69159 c -1.059,2.71 -2.746,5.067 -4.615,7.312 l -0.215,0.257 c -0.106,0.123 -0.205,0.242 -0.309,0.363 -0.666,0.779 -1.348,1.547 -2.029,2.315 -0.494,0.544 -0.975,1.063 -1.44,1.556 0.094,-1.165 0.174,-2.326 0.25,-3.471 0.026,-0.4 0.053,-0.803 0.08,-1.205 0.25,-3.691 0.571,-7.465 1.504,-11.064 1.289,-4.957 3.825,-9.645 7.231,-13.501 1.562,5.932 1.73,11.844 -0.457,17.438" /><path
           inkscape:connector-curvature="0"
           id="path96"
           style="fill:#62b55a;fill-opacity:1;fill-rule:nonzero;stroke:none"
           d="m 172.0273,148.71459 c -0.639,0.665 -1.27,1.332 -1.893,2.001 0.637,-0.693 1.24,-1.337 1.744,-1.851 l 0.149,-0.15" /><path
           inkscape:connector-curvature="0"
           id="path98"
           style="fill:#62b55a;fill-opacity:1;fill-rule:nonzero;stroke:none"
           d="m 177.5273,143.25359 -0.069,0.067 0.071,-0.072 -0.002,0.005" /><path
           inkscape:connector-curvature="0"
           id="path100"
           style="fill:#62b55a;fill-opacity:1;fill-rule:nonzero;stroke:none"
           d="m 170.1343,150.71559 c -1.715,1.845 -3.373,3.705 -4.967,5.571 0,0 2.694,-3.096 4.967,-5.571" /><path
           inkscape:connector-curvature="0"
           id="path102"
           style="fill:#62b55a;fill-opacity:1;fill-rule:nonzero;stroke:none"
           d="m 187.0763,112.53859 c -3.602,3.983 -6.278,8.875 -7.623,14.051 -1.014,3.899 -1.311,7.972 -1.575,11.928 -0.009,0.154 -0.021,0.309 -0.031,0.463 -0.094,1.405 -0.193,2.837 -0.318,4.268 l -0.071,0.072 c -2.193,2.269 -4.037,3.981 -5.431,5.394 l -0.149,0.15 c -0.504,0.513 -1.107,1.158 -1.744,1.851 -1.715,1.845 -3.373,3.705 -4.967,5.571 -1.822,-10.516 -0.025,-20.418 2.073,-27.382 2.631,-8.741 6.998,-17.571 13.629,-27.53 0.312,-0.4691 0.623,-0.9359 0.945,-1.409004 0.836,1.543004 1.627,3.098804 2.348,4.666004 1.197,2.607 2.203,5.239 2.949,7.869 l -0.035,0.038" /></g><path
         d="m 160.8713,153.02959 c -1.92,0 -3.543,-0.663 -4.868,-1.988 -1.326,-1.325 -1.986,-2.902 -1.986,-4.729 0,-1.371 -0.275,-2.742 -0.824,-4.112 -0.914,-2.103 -2.192,-3.656 -3.838,-4.66 -1.736,-1.189 -3.699,-1.783 -5.893,-1.783 -1.554,0 -2.925,0.276 -4.113,0.823 -1.918,0.823 -3.473,2.102 -4.66,3.839 -1.279,1.827 -1.918,3.791 -1.918,5.893 l 0,52.086 c 0,2.103 0.639,4.066 1.918,5.894 1.187,1.736 2.742,3.015 4.66,3.838 1.188,0.547 2.559,0.823 4.113,0.823 2.194,0 4.157,-0.594 5.893,-1.783 1.646,-1.004 2.924,-2.557 3.838,-4.66 0.549,-1.37 0.824,-2.741 0.824,-4.112 0,-1.827 0.66,-3.404 1.986,-4.729 1.325,-1.325 2.948,-1.988 4.868,-1.988 1.826,0 3.402,0.663 4.728,1.988 1.322,1.325 1.986,2.902 1.986,4.729 0,2.378 -0.365,4.707 -1.095,6.991 -0.733,2.284 -1.739,4.433 -3.016,6.442 -2.65,4.022 -6.215,6.945 -10.691,8.772 -3.016,1.28 -6.123,1.92 -9.321,1.92 -4.752,0 -9.277,-1.371 -13.57,-4.112 -3.93,-2.65 -6.809,-6.214 -8.635,-10.692 -1.281,-3.015 -1.92,-6.121 -1.92,-9.321 l 0,-52.086 c 0,-3.2 0.639,-6.306 1.92,-9.321 1.826,-4.478 4.705,-8.042 8.635,-10.692 4.293,-2.741 8.818,-4.112 13.57,-4.112 3.198,0 6.305,0.64 9.321,1.92 4.476,1.827 8.041,4.75 10.691,8.772 1.277,2.009 2.283,4.158 3.016,6.442 0.73,2.284 1.095,4.613 1.095,6.991 0,1.827 -0.664,3.404 -1.986,4.729 -1.326,1.325 -2.902,1.988 -4.728,1.988"
         style="fill:#231f20;fill-opacity:1;fill-rule:nonzero;stroke:none"
         id="path180"
         inkscape:connector-curvature="0" /></g></g></svg>