<svg xmlns="http://www.w3.org/2000/svg" xmlns:xlink="http://www.w3.org/1999/xlink" version="1.1" x="0px" y="0px" viewBox="0 0 100 125" enable-background="new 0 0 100 100" xml:space="preserve"><path fill="none" d="M40.741,26.748c0-0.655-0.448-1.186-1.001-1.186c-0.552,0-1.001,0.531-1.001,1.186  c0,0.196,0.05,0.373,0.121,0.536l-0.229,15.064l1.108,1.407l1.109-1.407L40.62,27.284C40.691,27.121,40.741,26.944,40.741,26.748z"/><rect x="52.227" y="42.792" fill="none" width="1.531" height="1.531"/><rect x="52.227" y="51.607" fill="none" width="1.531" height="1.531"/><rect x="52.227" y="33.978" fill="none" width="1.531" height="1.531"/><path fill="none" d="M32.968,36.947c-0.588-0.946-0.986-2.02-1.145-3.172c-0.739,0.49-1.427,0.936-1.913,1.236  c-0.522,0.322-1.305,0.738-2.149,1.119c1.092,1.568,3.307,4.85,4.531,7.373c0.08-0.173,0.16-0.347,0.251-0.513l0-0.002  c0.334-1.073,0.632-2.675,0.632-3.893C33.174,38.354,33.096,37.638,32.968,36.947z"/><path fill="none" d="M68.851,26.049H58.708v-1.038H49.37v40.62h28.819v-40.62h-9.338V26.049z M57.681,35.226h5.675v0.604h-5.675  V35.226z M57.681,44.041h5.675v0.604h-5.675V44.041z M54.4,53.46c0,0.177-0.144,0.321-0.321,0.321h-2.174  c-0.177,0-0.321-0.144-0.321-0.321v-2.174c0-0.178,0.144-0.321,0.321-0.321h2.174c0.177,0,0.321,0.144,0.321,0.321V53.46z   M54.4,44.645c0,0.178-0.144,0.321-0.321,0.321h-2.174c-0.177,0-0.321-0.144-0.321-0.321v-2.174c0-0.177,0.144-0.321,0.321-0.321  h2.174c0.177,0,0.321,0.144,0.321,0.321V44.645z M54.4,35.83c0,0.177-0.144,0.321-0.321,0.321h-2.174  c-0.177,0-0.321-0.144-0.321-0.321v-2.174c0-0.178,0.144-0.321,0.321-0.321h2.174c0.177,0,0.321,0.144,0.321,0.321V35.83z   M63.357,53.46h-5.675v-0.604h5.675V53.46z M73.802,51.89h-16.12v-0.604h16.12V51.89z M73.802,43.075h-16.12v-0.604h16.12V43.075z   M73.802,34.26h-16.12v-0.604h16.12V34.26z"/><circle cx="39.889" cy="14.568" r="7.736"/><path d="M54.079,33.335h-2.174c-0.177,0-0.321,0.144-0.321,0.321v2.174c0,0.177,0.144,0.321,0.321,0.321h2.174  c0.177,0,0.321-0.144,0.321-0.321v-2.174C54.4,33.479,54.257,33.335,54.079,33.335z M53.758,35.509h-1.531v-1.531h1.531V35.509z"/><path d="M54.079,42.15h-2.174c-0.177,0-0.321,0.144-0.321,0.321v2.174c0,0.178,0.144,0.321,0.321,0.321h2.174  c0.177,0,0.321-0.144,0.321-0.321v-2.174C54.4,42.294,54.257,42.15,54.079,42.15z M53.758,44.324h-1.531v-1.531h1.531V44.324z"/><path d="M54.079,50.965h-2.174c-0.177,0-0.321,0.144-0.321,0.321v2.174c0,0.177,0.144,0.321,0.321,0.321h2.174  c0.177,0,0.321-0.144,0.321-0.321v-2.174C54.4,51.109,54.257,50.965,54.079,50.965z M53.758,53.139h-1.531v-1.531h1.531V53.139z"/><rect x="57.681" y="33.656" width="16.12" height="0.604"/><rect x="57.681" y="35.226" width="5.675" height="0.604"/><rect x="57.681" y="42.471" width="16.12" height="0.604"/><rect x="57.681" y="44.041" width="5.675" height="0.604"/><rect x="57.681" y="51.286" width="16.12" height="0.604"/><rect x="57.681" y="52.856" width="5.675" height="0.604"/><path d="M59.323,23.061c0.395,0,0.729-0.204,0.946-0.499c0.693,0.48,1.814,0.795,3.087,0.795c2.107,0,3.815-0.854,3.815-1.907  c0-1.053-1.708-1.907-3.815-1.907c-1.628,0-3.007,0.512-3.555,1.23c-0.147-0.065-0.308-0.103-0.479-0.103  c-0.661,0-1.196,0.535-1.196,1.196C58.127,22.525,58.662,23.061,59.323,23.061z"/><path d="M80.766,21.864h-5.952h-5.963h-0.71c-0.316,1.464-2.256,2.526-4.784,2.526c-1.095,0-2.134-0.207-2.963-0.58  c-0.324,0.185-0.69,0.285-1.071,0.285c-1.229,0-2.231-1.001-2.231-2.231v0H54.4h-7.607c-0.622,0-1.126,0.504-1.126,1.126v44.662  c0,0.622,0.504,1.126,1.126,1.126h33.972c0.622,0,1.126-0.504,1.126-1.126V22.991C81.892,22.369,81.388,21.864,80.766,21.864z   M78.189,65.632H49.37v-40.62h9.338v1.038h10.143v-1.038h9.338V65.632z"/><path d="M51.765,70.331h-4.972c-1.477,0-2.678-1.201-2.678-2.678V25.258c-0.41-0.135-0.719-0.213-0.88-0.221  c-0.105-0.051-0.217-0.089-0.325-0.135l0.014-0.003l-0.734-1.195h-1.588h-1.871h-1.588l-0.735,1.195l0.001,0  c-2.536,0.71-11.565,4.861-13.11,10.948c-0.004,0.017-0.002,0.029-0.006,0.045c-0.185,0.63-0.091,1.333,0.328,1.902  c0,0,4.891,6.49,7.69,8.459c-0.117,0.397-0.237,0.839-0.357,1.3c-0.006-0.024-0.014-0.044-0.02-0.068  c-0.016,0.114-0.031,0.219-0.047,0.33c-0.659,2.587-1.293,6.041-1.376,9.743c-0.045,0.32-0.045,0.32-0.045,0.32l-3.323,24.629  c2.03,0.592,3.972,1.028,5.819,1.339c0.498,4.853,1.384,9.387,2.958,9.387c1.508,0,2.384-4.161,2.893-8.776  c1.313,0.052,2.555,0.044,3.723-0.01c0.513,4.518,1.385,8.534,2.866,8.534c1.558,0,2.441-4.438,2.942-9.232  c3.877-0.773,6.045-1.869,6.045-1.869L51.765,70.331z M32.542,42.988c-0.092,0.167-0.171,0.34-0.251,0.513  c-1.223-2.522-3.438-5.805-4.531-7.373c0.844-0.38,1.627-0.796,2.149-1.119c0.487-0.3,1.175-0.746,1.913-1.236  c0.159,1.152,0.557,2.226,1.145,3.172c0.129,0.692,0.206,1.407,0.206,2.147c0,1.218-0.298,2.82-0.632,3.893L32.542,42.988z   M36.957,33.36c-0.686,0.457-1.6-0.449-2.289-0.006v1.166c0,0.059-0.037,0.166-0.096,0.166s-0.117-0.107-0.117-0.166v-3.046  c0-0.059,0.048-0.107,0.106-0.107s0.106,0.048,0.106,0.107v0.041c0.689-0.444,1.602,0.463,2.289,0.006  C36.957,32.21,37.187,32.9,36.957,33.36z M39.74,43.756l-1.108-1.407l0.229-15.064c-0.071-0.163-0.121-0.34-0.121-0.536  c0-0.655,0.448-1.186,1.001-1.186c0.553,0,1.001,0.531,1.001,1.186c0,0.196-0.05,0.373-0.121,0.536l0.229,15.064L39.74,43.756z"/><text x="0" y="115" fill="#000000" font-size="5px" font-weight="bold" font-family="'Helvetica Neue', Helvetica, Arial-Unicode, Arial, Sans-serif">Created by Marie Van den Broeck</text><text x="0" y="120" fill="#000000" font-size="5px" font-weight="bold" font-family="'Helvetica Neue', Helvetica, Arial-Unicode, Arial, Sans-serif">from the Noun Project</text></svg>