<svg xmlns:inkscape="http://www.inkscape.org/namespaces/inkscape" xmlns:rdf="http://www.w3.org/1999/02/22-rdf-syntax-ns#" xmlns="http://www.w3.org/2000/svg" sodipodi:docname="dashboard.svg" height="240" width="330" version="1.1" xmlns:cc="http://creativecommons.org/ns#" xmlns:dc="http://purl.org/dc/elements/1.1/" inkscape:version="0.91 r13725" viewBox="0 0 329.99999 240" xmlns:sodipodi="http://sodipodi.sourceforge.net/DTD/sodipodi-0.dtd">
 <sodipodi:namedview fit-margin-left="0" inkscape:zoom="2.6302682" borderopacity="1.0" inkscape:current-layer="layer1" inkscape:cx="165.76795" inkscape:cy="111.23647" inkscape:window-maximized="1" showgrid="false" fit-margin-right="0" units="px" inkscape:document-units="px" bordercolor="#666666" inkscape:window-x="65" inkscape:window-y="24" fit-margin-bottom="0" inkscape:window-width="1855" inkscape:pageopacity="0.0" inkscape:pageshadow="2" pagecolor="#ffffff" inkscape:window-height="1056" fit-margin-top="0"/>
 <g inkscape:label="Layer 1" inkscape:groupmode="layer" transform="translate(-111.8 -537.5)">
  <g fill-rule="evenodd">
   <path style="color-rendering:auto;text-decoration-color:#000000;color:#000000;isolation:auto;mix-blend-mode:normal;shape-rendering:auto;solid-color:#000000;block-progression:tb;text-decoration-line:none;text-decoration-style:solid;image-rendering:auto;white-space:normal;text-indent:0;text-transform:none" d="m441.8 777.5v-223.8c0-8.826-7.284-16.16-16.05-16.16h-297.9c-8.762 0-16.05 7.335-16.05 16.16v223.8z" sodipodi:nodetypes="csssscc" inkscape:connector-curvature="0" fill="#faf8f7"/>
   <path style="color-rendering:auto;text-decoration-color:#000000;color:#000000;isolation:auto;mix-blend-mode:normal;shape-rendering:auto;solid-color:#000000;block-progression:tb;text-decoration-line:none;text-decoration-style:solid;image-rendering:auto;white-space:normal;text-indent:0;text-transform:none" d="m441.8 777.5v-223.8c0-8.826-7.284-16.16-16.05-16.16h-297.9c-8.762 0-16.05 7.335-16.05 16.16v223.8m14.68 0v-212.8h300.6v212.8" sodipodi:nodetypes="cssssccccc" inkscape:connector-curvature="0" fill="#e9e4df"/>
  </g>
  <g transform="translate(-.7680)">
   <text style="word-spacing:0px;letter-spacing:0px" line-height="125%" sodipodi:linespacing="125%" font-size="12.21px" y="662.98157" x="149.52708" font-family="sans-serif" xml:space="preserve" fill="#555753"><tspan y="662.98157" x="149.52708" sodipodi:role="line">Your class&apos;s grades</tspan></text>
   <g>
    <path d="m147.5 687.7v-20h260v20" fill-rule="evenodd" sodipodi:nodetypes="cccc" inkscape:connector-curvature="0" stroke="#fff" stroke-linecap="round" stroke-miterlimit="15" fill="#f4feed"/>
    <g font-size="9.769px" font-family="sans-serif" fill="#555753">
     <text style="word-spacing:0px;letter-spacing:0px" line-height="125%" sodipodi:linespacing="125%" y="681.48395" x="201.48402" xml:space="preserve"><tspan y="681.48395" x="201.48402" sodipodi:role="line">by profs</tspan></text>
     <text style="word-spacing:0px;letter-spacing:0px" line-height="125%" xml:space="preserve" y="681.48395" x="248.04405" sodipodi:linespacing="125%"><tspan sodipodi:role="line" x="248.04405" y="681.48395">by peers</tspan></text>
     <text style="word-spacing:0px;letter-spacing:0px" line-height="125%" sodipodi:linespacing="125%" y="681.48395" x="297.37549" xml:space="preserve"><tspan sodipodi:role="line" font-style="italic" y="681.48395" x="297.37549" font-family="sans-serif">&quot;as prof&quot;</tspan></text>
     <text style="word-spacing:0px;letter-spacing:0px" line-height="125%" sodipodi:linespacing="125%" y="681.29071" x="156.02283" xml:space="preserve"><tspan y="681.29071" x="156.02283" sodipodi:role="line">Names</tspan></text>
     <text style="word-spacing:0px;letter-spacing:0px" line-height="125%" xml:space="preserve" y="680.8847" x="358.94742" sodipodi:linespacing="125%"><tspan sodipodi:role="line" font-weight="bold" y="680.8847" x="358.94742" font-family="sans-serif">Final</tspan></text>
    </g>
    <g transform="matrix(.02787 0 0 .02787 345.3 671.2)">
     <g transform="translate(0 -1020)">
      <g style="image-rendering:auto;color-rendering:auto;shape-rendering:auto">
       <path inkscape:connector-curvature="0" fill="#5a3392" d="m95.95 1020c-13.14 0-23.97 10.82-23.97 23.97 0 13.16 10.84 24 24 24l0.128 188c0.01 22.02 18.02 40.03 40.03 40.03h39.91v55.97h-27.97c-4.419-0.018-8.014 3.551-8.031 7.971v0.061 29.56c-21.85 5.043-39.95 22.23-47.03 45.44l-5.188 16.91h10.75 245.2l-5.187-16.91c-7.034-23.05-24.92-40.13-46.56-45.31l-0.128-29.78c-0.034-4.357-3.549-7.887-7.906-7.938h-28v-55.97h40.03c22.02 0 39.94-18.01 39.94-40.03l-0.128-188h0.128c13.16 0 23.97-10.84 23.97-24s-10.81-23.97-23.97-23.97h-240-0.032 0.001z"/>
       <path inkscape:connector-curvature="0" fill="#fff" d="m95.98 1036h240c4.572 0 8.031 3.459 8.031 8.031s-3.459 8.031-8.031 8.031h-232.8-7.188c-4.572 0-8.031-3.459-8.031-8.031 0-4.57 3.459-8.032 8.031-8.031z"/>
       <path inkscape:connector-curvature="0" fill="#29a3ec" d="m111.9 1068h208l0.122 188c0 13.44-10.58 23.97-24 23.97h-48.06c-4.393 0.051-7.923 3.637-7.907 8.029l-0.122 71.94c-0.018 4.418 3.55 8.016 7.968 8.033h0.063 28v19.94h-119.9l-0.122-19.94h27.97c4.419 0.018 8.014-3.551 8.031-7.971v-0.063-71.94c0.016-4.393-3.513-7.977-7.906-8.029h-47.94c-13.42 0-24.09-10.53-24.09-23.97l-0.121-188h-0.007z"/>
       <path inkscape:connector-curvature="0" fill="#ee746c" d="m153.1 1404h125.3c18.04 0 32.31 14.06 40.28 32.03h-205.9c7.968-17.97 22.24-32.03 40.28-32.03z"/>
       <g fill="#5a3392">
        <path inkscape:connector-curvature="0" d="m64.08 1076c-22.8 2.057-39.04 22.16-40.04 42.4-0.605 12.17 4.554 22.62 11.69 31.06 7.139 8.443 16.26 15.43 25.16 22.2 8.9 6.771 17.61 13.33 23.98 20.08 6.369 6.748 10.25 13.36 10.98 20.79 0.75 7.574-3.205 17.12-10.16 20.9-7.427 4.039-16.57 2.977-22.91-2.6-6.346-5.574-8.509-14.35-5.43-22.2 1.632-4.109-0.377-8.764-4.487-10.4-4.109-1.633-8.763 0.377-10.4 4.486-5.509 14.07-1.548 30.18 9.803 40.16 11.35 9.979 27.82 11.84 41.1 4.607 13.76-7.488 19.78-22.88 18.42-36.62-1.185-12.04-7.479-21.9-15.24-30.12-7.757-8.217-17.17-15.15-25.98-21.85-8.814-6.705-17.01-13.16-22.56-19.72-5.545-6.559-8.395-12.6-8.032-19.96 0.544-11.56 11.97-26.06 25.51-27.28 14.22-1.279 27.02 8.182 30 22.09 0.889 4.344 5.13 7.143 9.473 6.254s7.143-5.131 6.254-9.473c-0.006-0.029-0.012-0.059-0.018-0.088-4.65-21.71-25-36.72-47.13-34.72h-0.004z"/>
        <path inkscape:connector-curvature="0" d="m367.9 1076c-22.13-1.996-42.47 12.9-47.13 34.6-0.985 4.328 1.725 8.637 6.054 9.623 4.329 0.984 8.637-1.725 9.623-6.055 0.011-0.049 0.022-0.098 0.032-0.146 2.981-13.9 15.78-23.37 30-22.09 13.54 1.217 24.94 15.73 25.51 27.28 0.363 7.365-2.485 13.4-8.032 19.96-5.545 6.559-13.74 13.02-22.56 19.72-8.814 6.705-18.23 13.63-25.98 21.85-7.757 8.217-14.05 18.08-15.24 30.12-1.355 13.73 4.668 29.13 18.42 36.62 13.28 7.229 29.75 5.371 41.1-4.607 11.35-9.979 15.32-26.09 9.803-40.16-1.632-4.109-6.285-6.119-10.4-4.486-4.109 1.631-6.118 6.285-4.487 10.4 3.078 7.85 0.913 16.62-5.43 22.2-6.345 5.576-15.49 6.641-22.91 2.6-6.949-3.783-10.91-13.45-10.16-21.02 0.732-7.42 4.614-13.92 10.98-20.67 6.37-6.748 15.08-13.31 23.98-20.08 8.9-6.771 18.02-13.76 25.16-22.2 7.139-8.441 12.29-18.9 11.69-31.06-0.998-20.24-17.24-40.34-40.04-42.4h-0.004z"/>
       </g>
       <path inkscape:connector-curvature="0" fill="#3cdef6" d="m122 1078h187.9l0.122 176.3c0 12.6-9.552 22.48-21.68 22.48h-43.41c-3.968 0.049-7.157 3.41-7.142 7.529l-0.122 67.46c-0.017 4.143 3.206 7.516 7.197 7.533h0.058 25.29v18.7h-108.3l-0.122-18.7h25.26c3.991 0.016 7.239-3.33 7.255-7.473v-0.061-67.46c0.015-4.119-3.174-7.48-7.142-7.529h-43.3c-12.13 0-21.76-9.871-21.76-22.48l-0.122-176.3h0.018z"/>
       <path inkscape:connector-curvature="0" fill="#fff" d="m289.3 1108c-4.116 0.473-7.191 4.008-7.086 8.15v67.91c-0.372 4.402 2.896 8.273 7.299 8.646 4.403 0.371 8.274-2.896 8.646-7.299 0.038-0.449 0.038-0.898 0-1.348v-67.91c0.108-4.418-3.385-8.086-7.802-8.195-0.354-0.01-0.706 0.01-1.057 0.046z"/>
      </g>
      <path inkscape:connector-curvature="0" fill="#fff" d="m298.1 1212c0 4.418-3.582 8-8 8s-8-3.582-8-8 3.582-8 8-8 8 3.582 8 8z"/>
      <g style="image-rendering:auto;color-rendering:auto;shape-rendering:auto">
       <path inkscape:connector-curvature="0" fill="#fb9761" d="m165.4 1407h100.9c14.52 0 26.01 11.32 32.42 25.78h-165.7c6.414-14.46 17.9-25.78 32.42-25.78z"/>
       <path inkscape:connector-curvature="0" fill="#ebfeff" d="m114.7 1038h202.6c3.858 0 6.781 2.921 6.781 6.78s-2.921 6.781-6.781 6.781h-196.6-6.069c-3.858 0-6.781-2.92-6.781-6.781 0-3.857 2.921-6.781 6.781-6.78z"/>
       <path inkscape:connector-curvature="0" fill="#5a3392" d="m95.95 1020c-13.14 0-23.97 10.82-23.97 23.97 0 13.16 10.84 24 24 24l0.128 188c0.01 22.02 18.02 40.03 40.03 40.03h39.91v55.97h-27.97c-4.419-0.018-8.014 3.551-8.031 7.971v0.061 29.56c-21.85 5.043-39.95 22.23-47.03 45.44l-5.188 16.91h10.75 245.2l-5.187-16.91c-7.034-23.05-24.92-40.13-46.56-45.31l-0.128-29.78c-0.034-4.357-3.549-7.887-7.906-7.938h-28v-55.97h40.03c22.02 0 39.94-18.01 39.94-40.03l-0.128-188h0.128c13.16 0 23.97-10.84 23.97-24s-10.81-23.97-23.97-23.97h-240-0.032 0.001zm0.032 15.94h240c4.572 0 8.031 3.46 8.031 8.032 0 4.57-3.459 8.031-8.031 8.031h-232.8-7.187c-4.572 0-8.031-3.459-8.031-8.031s3.459-8.032 8.031-8.032zm15.94 32.03h208l0.128 188c0 13.44-10.58 23.97-24 23.97h-48.06c-4.394 0.053-7.923 3.637-7.906 8.031l-0.128 71.94c-0.017 4.418 3.552 8.014 7.97 8.031h0.061 28v19.94h-119.9l-0.128-19.94h27.97c4.419 0.018 8.014-3.551 8.031-7.971v-0.061-71.94c0.017-4.395-3.513-7.979-7.906-8.031h-47.94c-13.42 0-24.09-10.53-24.09-23.97l-0.128-188h0.006zm41.22 336h125.3c18.04 0 32.31 14.06 40.28 32.03h-205.9c7.968-17.97 22.24-32.03 40.28-32.03z"/>
      </g>
     </g>
    </g>
   </g>
   <g>
    <path d="m147.5 687.7h260v20h-260z" fill-rule="evenodd" inkscape:connector-curvature="0" stroke="#fff" stroke-linecap="round" stroke-miterlimit="15" fill="#edf4fe"/>
    <g font-size="9.769px" font-family="sans-serif" fill="#555753">
     <text style="word-spacing:0px;letter-spacing:0px" line-height="125%" xml:space="preserve" y="701.26868" x="215.25037" sodipodi:linespacing="125%"><tspan sodipodi:role="line" x="215.25037" y="701.26868">86</tspan></text>
     <text style="word-spacing:0px;letter-spacing:0px" line-height="125%" sodipodi:linespacing="125%" y="701.26868" x="261.59888" xml:space="preserve"><tspan y="701.26868" x="261.59888" sodipodi:role="line">94</tspan></text>
     <text style="word-spacing:0px;letter-spacing:0px" line-height="125%" xml:space="preserve" y="701.26868" x="308.3728" sodipodi:linespacing="125%"><tspan sodipodi:role="line" x="308.3728" y="701.26868">90</tspan></text>
     <text style="word-spacing:0px;letter-spacing:0px" line-height="125%" xml:space="preserve" y="701.27344" x="156.90527" sodipodi:linespacing="125%"><tspan sodipodi:role="line" x="156.90527" y="701.27344">Ann</tspan></text>
     <text style="word-spacing:0px;letter-spacing:0px" line-height="125%" sodipodi:linespacing="125%" y="700.8847" x="358.94742" xml:space="preserve"><tspan sodipodi:role="line" font-weight="bold" y="700.8847" x="358.94742" font-family="sans-serif">89<tspan font-family="sans-serif" font-weight="normal">/100</tspan></tspan></text>
    </g>
    <g transform="matrix(.02787 0 0 .02787 345.3 691.7)">
     <g transform="translate(0 -1020)">
      <g style="image-rendering:auto;color-rendering:auto;shape-rendering:auto">
       <path inkscape:connector-curvature="0" fill="#5a3392" d="m95.95 1020c-13.14 0-23.97 10.82-23.97 23.97 0 13.16 10.84 24 24 24l0.128 188c0.01 22.02 18.02 40.03 40.03 40.03h39.91v55.97h-27.97c-4.419-0.018-8.014 3.551-8.031 7.971v0.061 29.56c-21.85 5.043-39.95 22.23-47.03 45.44l-5.188 16.91h10.75 245.2l-5.187-16.91c-7.034-23.05-24.92-40.13-46.56-45.31l-0.128-29.78c-0.034-4.357-3.549-7.887-7.906-7.938h-28v-55.97h40.03c22.02 0 39.94-18.01 39.94-40.03l-0.128-188h0.128c13.16 0 23.97-10.84 23.97-24s-10.81-23.97-23.97-23.97h-240-0.032 0.001z"/>
       <path inkscape:connector-curvature="0" fill="#fff" d="m95.98 1036h240c4.572 0 8.031 3.459 8.031 8.031s-3.459 8.031-8.031 8.031h-232.8-7.188c-4.572 0-8.031-3.459-8.031-8.031 0-4.57 3.459-8.032 8.031-8.031z"/>
       <path inkscape:connector-curvature="0" fill="#29a3ec" d="m111.9 1068h208l0.122 188c0 13.44-10.58 23.97-24 23.97h-48.06c-4.393 0.051-7.923 3.637-7.907 8.029l-0.122 71.94c-0.018 4.418 3.55 8.016 7.968 8.033h0.063 28v19.94h-119.9l-0.122-19.94h27.97c4.419 0.018 8.014-3.551 8.031-7.971v-0.063-71.94c0.016-4.393-3.513-7.977-7.906-8.029h-47.94c-13.42 0-24.09-10.53-24.09-23.97l-0.121-188h-0.007z"/>
       <path inkscape:connector-curvature="0" fill="#ee746c" d="m153.1 1404h125.3c18.04 0 32.31 14.06 40.28 32.03h-205.9c7.968-17.97 22.24-32.03 40.28-32.03z"/>
       <g fill="#5a3392">
        <path inkscape:connector-curvature="0" d="m64.08 1076c-22.8 2.057-39.04 22.16-40.04 42.4-0.605 12.17 4.554 22.62 11.69 31.06 7.139 8.443 16.26 15.43 25.16 22.2 8.9 6.771 17.61 13.33 23.98 20.08 6.369 6.748 10.25 13.36 10.98 20.79 0.75 7.574-3.205 17.12-10.16 20.9-7.427 4.039-16.57 2.977-22.91-2.6-6.346-5.574-8.509-14.35-5.43-22.2 1.632-4.109-0.377-8.764-4.487-10.4-4.109-1.633-8.763 0.377-10.4 4.486-5.509 14.07-1.548 30.18 9.803 40.16 11.35 9.979 27.82 11.84 41.1 4.607 13.76-7.488 19.78-22.88 18.42-36.62-1.185-12.04-7.479-21.9-15.24-30.12-7.757-8.217-17.17-15.15-25.98-21.85-8.814-6.705-17.01-13.16-22.56-19.72-5.545-6.559-8.395-12.6-8.032-19.96 0.544-11.56 11.97-26.06 25.51-27.28 14.22-1.279 27.02 8.182 30 22.09 0.889 4.344 5.13 7.143 9.473 6.254s7.143-5.131 6.254-9.473c-0.006-0.029-0.012-0.059-0.018-0.088-4.65-21.71-25-36.72-47.13-34.72h-0.004z"/>
        <path inkscape:connector-curvature="0" d="m367.9 1076c-22.13-1.996-42.47 12.9-47.13 34.6-0.985 4.328 1.725 8.637 6.054 9.623 4.329 0.984 8.637-1.725 9.623-6.055 0.011-0.049 0.022-0.098 0.032-0.146 2.981-13.9 15.78-23.37 30-22.09 13.54 1.217 24.94 15.73 25.51 27.28 0.363 7.365-2.485 13.4-8.032 19.96-5.545 6.559-13.74 13.02-22.56 19.72-8.814 6.705-18.23 13.63-25.98 21.85-7.757 8.217-14.05 18.08-15.24 30.12-1.355 13.73 4.668 29.13 18.42 36.62 13.28 7.229 29.75 5.371 41.1-4.607 11.35-9.979 15.32-26.09 9.803-40.16-1.632-4.109-6.285-6.119-10.4-4.486-4.109 1.631-6.118 6.285-4.487 10.4 3.078 7.85 0.913 16.62-5.43 22.2-6.345 5.576-15.49 6.641-22.91 2.6-6.949-3.783-10.91-13.45-10.16-21.02 0.732-7.42 4.614-13.92 10.98-20.67 6.37-6.748 15.08-13.31 23.98-20.08 8.9-6.771 18.02-13.76 25.16-22.2 7.139-8.441 12.29-18.9 11.69-31.06-0.998-20.24-17.24-40.34-40.04-42.4h-0.004z"/>
       </g>
       <path inkscape:connector-curvature="0" fill="#3cdef6" d="m122 1078h187.9l0.122 176.3c0 12.6-9.552 22.48-21.68 22.48h-43.41c-3.968 0.049-7.157 3.41-7.142 7.529l-0.122 67.46c-0.017 4.143 3.206 7.516 7.197 7.533h0.058 25.29v18.7h-108.3l-0.122-18.7h25.26c3.991 0.016 7.239-3.33 7.255-7.473v-0.061-67.46c0.015-4.119-3.174-7.48-7.142-7.529h-43.3c-12.13 0-21.76-9.871-21.76-22.48l-0.122-176.3h0.018z"/>
       <path inkscape:connector-curvature="0" fill="#fff" d="m289.3 1108c-4.116 0.473-7.191 4.008-7.086 8.15v67.91c-0.372 4.402 2.896 8.273 7.299 8.646 4.403 0.371 8.274-2.896 8.646-7.299 0.038-0.449 0.038-0.898 0-1.348v-67.91c0.108-4.418-3.385-8.086-7.802-8.195-0.354-0.01-0.706 0.01-1.057 0.046z"/>
      </g>
      <path inkscape:connector-curvature="0" fill="#fff" d="m298.1 1212c0 4.418-3.582 8-8 8s-8-3.582-8-8 3.582-8 8-8 8 3.582 8 8z"/>
      <g style="image-rendering:auto;color-rendering:auto;shape-rendering:auto">
       <path inkscape:connector-curvature="0" fill="#fb9761" d="m165.4 1407h100.9c14.52 0 26.01 11.32 32.42 25.78h-165.7c6.414-14.46 17.9-25.78 32.42-25.78z"/>
       <path inkscape:connector-curvature="0" fill="#ebfeff" d="m114.7 1038h202.6c3.858 0 6.781 2.921 6.781 6.78s-2.921 6.781-6.781 6.781h-196.6-6.069c-3.858 0-6.781-2.92-6.781-6.781 0-3.857 2.921-6.781 6.781-6.78z"/>
       <path inkscape:connector-curvature="0" fill="#5a3392" d="m95.95 1020c-13.14 0-23.97 10.82-23.97 23.97 0 13.16 10.84 24 24 24l0.128 188c0.01 22.02 18.02 40.03 40.03 40.03h39.91v55.97h-27.97c-4.419-0.018-8.014 3.551-8.031 7.971v0.061 29.56c-21.85 5.043-39.95 22.23-47.03 45.44l-5.188 16.91h10.75 245.2l-5.187-16.91c-7.034-23.05-24.92-40.13-46.56-45.31l-0.128-29.78c-0.034-4.357-3.549-7.887-7.906-7.938h-28v-55.97h40.03c22.02 0 39.94-18.01 39.94-40.03l-0.128-188h0.128c13.16 0 23.97-10.84 23.97-24s-10.81-23.97-23.97-23.97h-240-0.032 0.001zm0.032 15.94h240c4.572 0 8.031 3.46 8.031 8.032 0 4.57-3.459 8.031-8.031 8.031h-232.8-7.187c-4.572 0-8.031-3.459-8.031-8.031s3.459-8.032 8.031-8.032zm15.94 32.03h208l0.128 188c0 13.44-10.58 23.97-24 23.97h-48.06c-4.394 0.053-7.923 3.637-7.906 8.031l-0.128 71.94c-0.017 4.418 3.552 8.014 7.97 8.031h0.061 28v19.94h-119.9l-0.128-19.94h27.97c4.419 0.018 8.014-3.551 8.031-7.971v-0.061-71.94c0.017-4.395-3.513-7.979-7.906-8.031h-47.94c-13.42 0-24.09-10.53-24.09-23.97l-0.128-188h0.006zm41.22 336h125.3c18.04 0 32.31 14.06 40.28 32.03h-205.9c7.968-17.97 22.24-32.03 40.28-32.03z"/>
      </g>
     </g>
    </g>
   </g>
   <g>
    <path d="m407.5 707.7v20h-260v-20" fill-rule="evenodd" sodipodi:nodetypes="cccc" inkscape:connector-curvature="0" stroke="#fff" stroke-linecap="round" stroke-miterlimit="15" fill="#edf4fe"/>
    <g font-size="9.769px" font-family="sans-serif" fill="#555753">
     <text style="word-spacing:0px;letter-spacing:0px" line-height="125%" xml:space="preserve" y="721.26868" x="215.29091" sodipodi:linespacing="125%"><tspan sodipodi:role="line" x="215.29091" y="721.26868">90</tspan></text>
     <text style="word-spacing:0px;letter-spacing:0px" line-height="125%" sodipodi:linespacing="125%" y="721.26868" x="261.59888" xml:space="preserve"><tspan y="721.26868" x="261.59888" sodipodi:role="line">94</tspan></text>
     <text style="word-spacing:0px;letter-spacing:0px" line-height="125%" xml:space="preserve" y="721.26868" x="308.3728" sodipodi:linespacing="125%"><tspan sodipodi:role="line" x="308.3728" y="721.26868">94</tspan></text>
     <text style="word-spacing:0px;letter-spacing:0px" line-height="125%" xml:space="preserve" y="721.23584" x="156.02283" sodipodi:linespacing="125%"><tspan sodipodi:role="line" x="156.02283" y="721.23584">Benji</tspan></text>
     <text style="word-spacing:0px;letter-spacing:0px" line-height="125%" sodipodi:linespacing="125%" y="720.8847" x="358.93613" xml:space="preserve"><tspan sodipodi:role="line" font-weight="bold" y="720.8847" x="358.93613" font-family="sans-serif"><tspan font-family="sans-serif" font-weight="normal"><tspan font-family="sans-serif" font-weight="bold">92</tspan>/100</tspan></tspan></text>
    </g>
    <g transform="matrix(.02787 0 0 .02787 345.3 711.7)">
     <g transform="translate(0 -1020)">
      <g style="image-rendering:auto;color-rendering:auto;shape-rendering:auto">
       <path inkscape:connector-curvature="0" fill="#5a3392" d="m95.95 1020c-13.14 0-23.97 10.82-23.97 23.97 0 13.16 10.84 24 24 24l0.128 188c0.01 22.02 18.02 40.03 40.03 40.03h39.91v55.97h-27.97c-4.419-0.018-8.014 3.551-8.031 7.971v0.061 29.56c-21.85 5.043-39.95 22.23-47.03 45.44l-5.188 16.91h10.75 245.2l-5.187-16.91c-7.034-23.05-24.92-40.13-46.56-45.31l-0.128-29.78c-0.034-4.357-3.549-7.887-7.906-7.938h-28v-55.97h40.03c22.02 0 39.94-18.01 39.94-40.03l-0.128-188h0.128c13.16 0 23.97-10.84 23.97-24s-10.81-23.97-23.97-23.97h-240-0.032 0.001z"/>
       <path inkscape:connector-curvature="0" fill="#fff" d="m95.98 1036h240c4.572 0 8.031 3.459 8.031 8.031s-3.459 8.031-8.031 8.031h-232.8-7.188c-4.572 0-8.031-3.459-8.031-8.031 0-4.57 3.459-8.032 8.031-8.031z"/>
       <path inkscape:connector-curvature="0" fill="#29a3ec" d="m111.9 1068h208l0.122 188c0 13.44-10.58 23.97-24 23.97h-48.06c-4.393 0.051-7.923 3.637-7.907 8.029l-0.122 71.94c-0.018 4.418 3.55 8.016 7.968 8.033h0.063 28v19.94h-119.9l-0.122-19.94h27.97c4.419 0.018 8.014-3.551 8.031-7.971v-0.063-71.94c0.016-4.393-3.513-7.977-7.906-8.029h-47.94c-13.42 0-24.09-10.53-24.09-23.97l-0.121-188h-0.007z"/>
       <path inkscape:connector-curvature="0" fill="#ee746c" d="m153.1 1404h125.3c18.04 0 32.31 14.06 40.28 32.03h-205.9c7.968-17.97 22.24-32.03 40.28-32.03z"/>
       <g fill="#5a3392">
        <path inkscape:connector-curvature="0" d="m64.08 1076c-22.8 2.057-39.04 22.16-40.04 42.4-0.605 12.17 4.554 22.62 11.69 31.06 7.139 8.443 16.26 15.43 25.16 22.2 8.9 6.771 17.61 13.33 23.98 20.08 6.369 6.748 10.25 13.36 10.98 20.79 0.75 7.574-3.205 17.12-10.16 20.9-7.427 4.039-16.57 2.977-22.91-2.6-6.346-5.574-8.509-14.35-5.43-22.2 1.632-4.109-0.377-8.764-4.487-10.4-4.109-1.633-8.763 0.377-10.4 4.486-5.509 14.07-1.548 30.18 9.803 40.16 11.35 9.979 27.82 11.84 41.1 4.607 13.76-7.488 19.78-22.88 18.42-36.62-1.185-12.04-7.479-21.9-15.24-30.12-7.757-8.217-17.17-15.15-25.98-21.85-8.814-6.705-17.01-13.16-22.56-19.72-5.545-6.559-8.395-12.6-8.032-19.96 0.544-11.56 11.97-26.06 25.51-27.28 14.22-1.279 27.02 8.182 30 22.09 0.889 4.344 5.13 7.143 9.473 6.254s7.143-5.131 6.254-9.473c-0.006-0.029-0.012-0.059-0.018-0.088-4.65-21.71-25-36.72-47.13-34.72h-0.004z"/>
        <path inkscape:connector-curvature="0" d="m367.9 1076c-22.13-1.996-42.47 12.9-47.13 34.6-0.985 4.328 1.725 8.637 6.054 9.623 4.329 0.984 8.637-1.725 9.623-6.055 0.011-0.049 0.022-0.098 0.032-0.146 2.981-13.9 15.78-23.37 30-22.09 13.54 1.217 24.94 15.73 25.51 27.28 0.363 7.365-2.485 13.4-8.032 19.96-5.545 6.559-13.74 13.02-22.56 19.72-8.814 6.705-18.23 13.63-25.98 21.85-7.757 8.217-14.05 18.08-15.24 30.12-1.355 13.73 4.668 29.13 18.42 36.62 13.28 7.229 29.75 5.371 41.1-4.607 11.35-9.979 15.32-26.09 9.803-40.16-1.632-4.109-6.285-6.119-10.4-4.486-4.109 1.631-6.118 6.285-4.487 10.4 3.078 7.85 0.913 16.62-5.43 22.2-6.345 5.576-15.49 6.641-22.91 2.6-6.949-3.783-10.91-13.45-10.16-21.02 0.732-7.42 4.614-13.92 10.98-20.67 6.37-6.748 15.08-13.31 23.98-20.08 8.9-6.771 18.02-13.76 25.16-22.2 7.139-8.441 12.29-18.9 11.69-31.06-0.998-20.24-17.24-40.34-40.04-42.4h-0.004z"/>
       </g>
       <path inkscape:connector-curvature="0" fill="#3cdef6" d="m122 1078h187.9l0.122 176.3c0 12.6-9.552 22.48-21.68 22.48h-43.41c-3.968 0.049-7.157 3.41-7.142 7.529l-0.122 67.46c-0.017 4.143 3.206 7.516 7.197 7.533h0.058 25.29v18.7h-108.3l-0.122-18.7h25.26c3.991 0.016 7.239-3.33 7.255-7.473v-0.061-67.46c0.015-4.119-3.174-7.48-7.142-7.529h-43.3c-12.13 0-21.76-9.871-21.76-22.48l-0.122-176.3h0.018z"/>
       <path inkscape:connector-curvature="0" fill="#fff" d="m289.3 1108c-4.116 0.473-7.191 4.008-7.086 8.15v67.91c-0.372 4.402 2.896 8.273 7.299 8.646 4.403 0.371 8.274-2.896 8.646-7.299 0.038-0.449 0.038-0.898 0-1.348v-67.91c0.108-4.418-3.385-8.086-7.802-8.195-0.354-0.01-0.706 0.01-1.057 0.046z"/>
      </g>
      <path inkscape:connector-curvature="0" fill="#fff" d="m298.1 1212c0 4.418-3.582 8-8 8s-8-3.582-8-8 3.582-8 8-8 8 3.582 8 8z"/>
      <g style="image-rendering:auto;color-rendering:auto;shape-rendering:auto">
       <path inkscape:connector-curvature="0" fill="#fb9761" d="m165.4 1407h100.9c14.52 0 26.01 11.32 32.42 25.78h-165.7c6.414-14.46 17.9-25.78 32.42-25.78z"/>
       <path inkscape:connector-curvature="0" fill="#ebfeff" d="m114.7 1038h202.6c3.858 0 6.781 2.921 6.781 6.78s-2.921 6.781-6.781 6.781h-196.6-6.069c-3.858 0-6.781-2.92-6.781-6.781 0-3.857 2.921-6.781 6.781-6.78z"/>
       <path inkscape:connector-curvature="0" fill="#5a3392" d="m95.95 1020c-13.14 0-23.97 10.82-23.97 23.97 0 13.16 10.84 24 24 24l0.128 188c0.01 22.02 18.02 40.03 40.03 40.03h39.91v55.97h-27.97c-4.419-0.018-8.014 3.551-8.031 7.971v0.061 29.56c-21.85 5.043-39.95 22.23-47.03 45.44l-5.188 16.91h10.75 245.2l-5.187-16.91c-7.034-23.05-24.92-40.13-46.56-45.31l-0.128-29.78c-0.034-4.357-3.549-7.887-7.906-7.938h-28v-55.97h40.03c22.02 0 39.94-18.01 39.94-40.03l-0.128-188h0.128c13.16 0 23.97-10.84 23.97-24s-10.81-23.97-23.97-23.97h-240-0.032 0.001zm0.032 15.94h240c4.572 0 8.031 3.46 8.031 8.032 0 4.57-3.459 8.031-8.031 8.031h-232.8-7.187c-4.572 0-8.031-3.459-8.031-8.031s3.459-8.032 8.031-8.032zm15.94 32.03h208l0.128 188c0 13.44-10.58 23.97-24 23.97h-48.06c-4.394 0.053-7.923 3.637-7.906 8.031l-0.128 71.94c-0.017 4.418 3.552 8.014 7.97 8.031h0.061 28v19.94h-119.9l-0.128-19.94h27.97c4.419 0.018 8.014-3.551 8.031-7.971v-0.061-71.94c0.017-4.395-3.513-7.979-7.906-8.031h-47.94c-13.42 0-24.09-10.53-24.09-23.97l-0.128-188h0.006zm41.22 336h125.3c18.04 0 32.31 14.06 40.28 32.03h-205.9c7.968-17.97 22.24-32.03 40.28-32.03z"/>
      </g>
     </g>
    </g>
   </g>
   <g>
    <path d="m407.5 727.7v20h-260v-20" fill-rule="evenodd" sodipodi:nodetypes="cccc" inkscape:connector-curvature="0" stroke="#fff" stroke-linecap="round" stroke-miterlimit="15" fill="#edf4fe"/>
    <g font-size="9.769px" font-family="sans-serif" fill="#555753">
     <text style="word-spacing:0px;letter-spacing:0px" line-height="125%" sodipodi:linespacing="125%" y="741.26868" x="215.38393" xml:space="preserve"><tspan y="741.26868" x="215.38393" sodipodi:role="line">97</tspan></text>
     <text style="word-spacing:0px;letter-spacing:0px" line-height="125%" xml:space="preserve" y="741.26868" x="261.59888" sodipodi:linespacing="125%"><tspan sodipodi:role="line" x="261.59888" y="741.26868">94</tspan></text>
     <text style="word-spacing:0px;letter-spacing:0px" line-height="125%" sodipodi:linespacing="125%" y="741.26868" x="302.25284" xml:space="preserve"><tspan y="741.26868" x="302.25284" sodipodi:role="line">100</tspan></text>
     <text style="word-spacing:0px;letter-spacing:0px" line-height="125%" sodipodi:linespacing="125%" y="741.48987" x="156.43304" xml:space="preserve"><tspan y="741.48987" x="156.43304" sodipodi:role="line">Cathy</tspan></text>
     <text style="word-spacing:0px;letter-spacing:0px" line-height="125%" xml:space="preserve" y="740.8847" x="358.93613" sodipodi:linespacing="125%"><tspan sodipodi:role="line" font-weight="bold" y="740.8847" x="358.93613" font-family="sans-serif">97<tspan font-family="sans-serif" font-weight="normal">/100</tspan></tspan></text>
    </g>
    <g transform="matrix(.02787 0 0 .02787 345.3 731.7)">
     <g transform="translate(0 -1020)">
      <g style="image-rendering:auto;color-rendering:auto;shape-rendering:auto">
       <path inkscape:connector-curvature="0" fill="#5a3392" d="m95.95 1020c-13.14 0-23.97 10.82-23.97 23.97 0 13.16 10.84 24 24 24l0.128 188c0.01 22.02 18.02 40.03 40.03 40.03h39.91v55.97h-27.97c-4.419-0.018-8.014 3.551-8.031 7.971v0.061 29.56c-21.85 5.043-39.95 22.23-47.03 45.44l-5.188 16.91h10.75 245.2l-5.187-16.91c-7.034-23.05-24.92-40.13-46.56-45.31l-0.128-29.78c-0.034-4.357-3.549-7.887-7.906-7.938h-28v-55.97h40.03c22.02 0 39.94-18.01 39.94-40.03l-0.128-188h0.128c13.16 0 23.97-10.84 23.97-24s-10.81-23.97-23.97-23.97h-240-0.032 0.001z"/>
       <path inkscape:connector-curvature="0" fill="#fff" d="m95.98 1036h240c4.572 0 8.031 3.459 8.031 8.031s-3.459 8.031-8.031 8.031h-232.8-7.188c-4.572 0-8.031-3.459-8.031-8.031 0-4.57 3.459-8.032 8.031-8.031z"/>
       <path inkscape:connector-curvature="0" fill="#29a3ec" d="m111.9 1068h208l0.122 188c0 13.44-10.58 23.97-24 23.97h-48.06c-4.393 0.051-7.923 3.637-7.907 8.029l-0.122 71.94c-0.018 4.418 3.55 8.016 7.968 8.033h0.063 28v19.94h-119.9l-0.122-19.94h27.97c4.419 0.018 8.014-3.551 8.031-7.971v-0.063-71.94c0.016-4.393-3.513-7.977-7.906-8.029h-47.94c-13.42 0-24.09-10.53-24.09-23.97l-0.121-188h-0.007z"/>
       <path inkscape:connector-curvature="0" fill="#ee746c" d="m153.1 1404h125.3c18.04 0 32.31 14.06 40.28 32.03h-205.9c7.968-17.97 22.24-32.03 40.28-32.03z"/>
       <g fill="#5a3392">
        <path inkscape:connector-curvature="0" d="m64.08 1076c-22.8 2.057-39.04 22.16-40.04 42.4-0.605 12.17 4.554 22.62 11.69 31.06 7.139 8.443 16.26 15.43 25.16 22.2 8.9 6.771 17.61 13.33 23.98 20.08 6.369 6.748 10.25 13.36 10.98 20.79 0.75 7.574-3.205 17.12-10.16 20.9-7.427 4.039-16.57 2.977-22.91-2.6-6.346-5.574-8.509-14.35-5.43-22.2 1.632-4.109-0.377-8.764-4.487-10.4-4.109-1.633-8.763 0.377-10.4 4.486-5.509 14.07-1.548 30.18 9.803 40.16 11.35 9.979 27.82 11.84 41.1 4.607 13.76-7.488 19.78-22.88 18.42-36.62-1.185-12.04-7.479-21.9-15.24-30.12-7.757-8.217-17.17-15.15-25.98-21.85-8.814-6.705-17.01-13.16-22.56-19.72-5.545-6.559-8.395-12.6-8.032-19.96 0.544-11.56 11.97-26.06 25.51-27.28 14.22-1.279 27.02 8.182 30 22.09 0.889 4.344 5.13 7.143 9.473 6.254s7.143-5.131 6.254-9.473c-0.006-0.029-0.012-0.059-0.018-0.088-4.65-21.71-25-36.72-47.13-34.72h-0.004z"/>
        <path inkscape:connector-curvature="0" d="m367.9 1076c-22.13-1.996-42.47 12.9-47.13 34.6-0.985 4.328 1.725 8.637 6.054 9.623 4.329 0.984 8.637-1.725 9.623-6.055 0.011-0.049 0.022-0.098 0.032-0.146 2.981-13.9 15.78-23.37 30-22.09 13.54 1.217 24.94 15.73 25.51 27.28 0.363 7.365-2.485 13.4-8.032 19.96-5.545 6.559-13.74 13.02-22.56 19.72-8.814 6.705-18.23 13.63-25.98 21.85-7.757 8.217-14.05 18.08-15.24 30.12-1.355 13.73 4.668 29.13 18.42 36.62 13.28 7.229 29.75 5.371 41.1-4.607 11.35-9.979 15.32-26.09 9.803-40.16-1.632-4.109-6.285-6.119-10.4-4.486-4.109 1.631-6.118 6.285-4.487 10.4 3.078 7.85 0.913 16.62-5.43 22.2-6.345 5.576-15.49 6.641-22.91 2.6-6.949-3.783-10.91-13.45-10.16-21.02 0.732-7.42 4.614-13.92 10.98-20.67 6.37-6.748 15.08-13.31 23.98-20.08 8.9-6.771 18.02-13.76 25.16-22.2 7.139-8.441 12.29-18.9 11.69-31.06-0.998-20.24-17.24-40.34-40.04-42.4h-0.004z"/>
       </g>
       <path inkscape:connector-curvature="0" fill="#3cdef6" d="m122 1078h187.9l0.122 176.3c0 12.6-9.552 22.48-21.68 22.48h-43.41c-3.968 0.049-7.157 3.41-7.142 7.529l-0.122 67.46c-0.017 4.143 3.206 7.516 7.197 7.533h0.058 25.29v18.7h-108.3l-0.122-18.7h25.26c3.991 0.016 7.239-3.33 7.255-7.473v-0.061-67.46c0.015-4.119-3.174-7.48-7.142-7.529h-43.3c-12.13 0-21.76-9.871-21.76-22.48l-0.122-176.3h0.018z"/>
       <path inkscape:connector-curvature="0" fill="#fff" d="m289.3 1108c-4.116 0.473-7.191 4.008-7.086 8.15v67.91c-0.372 4.402 2.896 8.273 7.299 8.646 4.403 0.371 8.274-2.896 8.646-7.299 0.038-0.449 0.038-0.898 0-1.348v-67.91c0.108-4.418-3.385-8.086-7.802-8.195-0.354-0.01-0.706 0.01-1.057 0.046z"/>
      </g>
      <path inkscape:connector-curvature="0" fill="#fff" d="m298.1 1212c0 4.418-3.582 8-8 8s-8-3.582-8-8 3.582-8 8-8 8 3.582 8 8z"/>
      <g style="image-rendering:auto;color-rendering:auto;shape-rendering:auto">
       <path inkscape:connector-curvature="0" fill="#fb9761" d="m165.4 1407h100.9c14.52 0 26.01 11.32 32.42 25.78h-165.7c6.414-14.46 17.9-25.78 32.42-25.78z"/>
       <path inkscape:connector-curvature="0" fill="#ebfeff" d="m114.7 1038h202.6c3.858 0 6.781 2.921 6.781 6.78s-2.921 6.781-6.781 6.781h-196.6-6.069c-3.858 0-6.781-2.92-6.781-6.781 0-3.857 2.921-6.781 6.781-6.78z"/>
       <path inkscape:connector-curvature="0" fill="#5a3392" d="m95.95 1020c-13.14 0-23.97 10.82-23.97 23.97 0 13.16 10.84 24 24 24l0.128 188c0.01 22.02 18.02 40.03 40.03 40.03h39.91v55.97h-27.97c-4.419-0.018-8.014 3.551-8.031 7.971v0.061 29.56c-21.85 5.043-39.95 22.23-47.03 45.44l-5.188 16.91h10.75 245.2l-5.187-16.91c-7.034-23.05-24.92-40.13-46.56-45.31l-0.128-29.78c-0.034-4.357-3.549-7.887-7.906-7.938h-28v-55.97h40.03c22.02 0 39.94-18.01 39.94-40.03l-0.128-188h0.128c13.16 0 23.97-10.84 23.97-24s-10.81-23.97-23.97-23.97h-240-0.032 0.001zm0.032 15.94h240c4.572 0 8.031 3.46 8.031 8.032 0 4.57-3.459 8.031-8.031 8.031h-232.8-7.187c-4.572 0-8.031-3.459-8.031-8.031s3.459-8.032 8.031-8.032zm15.94 32.03h208l0.128 188c0 13.44-10.58 23.97-24 23.97h-48.06c-4.394 0.053-7.923 3.637-7.906 8.031l-0.128 71.94c-0.017 4.418 3.552 8.014 7.97 8.031h0.061 28v19.94h-119.9l-0.128-19.94h27.97c4.419 0.018 8.014-3.551 8.031-7.971v-0.061-71.94c0.017-4.395-3.513-7.979-7.906-8.031h-47.94c-13.42 0-24.09-10.53-24.09-23.97l-0.128-188h0.006zm41.22 336h125.3c18.04 0 32.31 14.06 40.28 32.03h-205.9c7.968-17.97 22.24-32.03 40.28-32.03z"/>
      </g>
     </g>
    </g>
   </g>
   <g transform="translate(0,20)">
    <path d="m407.5 727.7v20h-260v-20" fill-rule="evenodd" sodipodi:nodetypes="cccc" inkscape:connector-curvature="0" stroke="#fff" stroke-linecap="round" stroke-miterlimit="15" fill="#edf4fe"/>
    <g font-size="9.769px" font-family="sans-serif" fill="#555753">
     <text style="word-spacing:0px;letter-spacing:0px" line-height="125%" xml:space="preserve" y="741.26868" x="215.38393" sodipodi:linespacing="125%"><tspan sodipodi:role="line" x="215.38393" y="741.26868">93</tspan></text>
     <text style="word-spacing:0px;letter-spacing:0px" line-height="125%" sodipodi:linespacing="125%" y="741.26868" x="261.59888" xml:space="preserve"><tspan y="741.26868" x="261.59888" sodipodi:role="line">93</tspan></text>
     <text style="word-spacing:0px;letter-spacing:0px" line-height="125%" xml:space="preserve" y="741.26868" x="308.3728" sodipodi:linespacing="125%"><tspan sodipodi:role="line" x="308.3728" y="741.26868">97</tspan></text>
     <text style="word-spacing:0px;letter-spacing:0px" line-height="125%" xml:space="preserve" y="741.48987" x="156.43304" sodipodi:linespacing="125%"><tspan sodipodi:role="line" x="156.43304" y="741.48987">Dan</tspan></text>
     <text style="word-spacing:0px;letter-spacing:0px" line-height="125%" sodipodi:linespacing="125%" y="740.8847" x="358.93613" xml:space="preserve"><tspan sodipodi:role="line" font-weight="bold" y="740.8847" x="358.93613" font-family="sans-serif">94<tspan font-family="sans-serif" font-weight="normal">/100</tspan></tspan></text>
    </g>
    <g transform="matrix(.02787 0 0 .02787 345.3 731.7)">
     <g transform="translate(0 -1020)">
      <g style="image-rendering:auto;color-rendering:auto;shape-rendering:auto">
       <path fill="#5a3392" inkscape:connector-curvature="0" d="m95.95 1020c-13.14 0-23.97 10.82-23.97 23.97 0 13.16 10.84 24 24 24l0.128 188c0.01 22.02 18.02 40.03 40.03 40.03h39.91v55.97h-27.97c-4.419-0.018-8.014 3.551-8.031 7.971v0.061 29.56c-21.85 5.043-39.95 22.23-47.03 45.44l-5.188 16.91h10.75 245.2l-5.187-16.91c-7.034-23.05-24.92-40.13-46.56-45.31l-0.128-29.78c-0.034-4.357-3.549-7.887-7.906-7.938h-28v-55.97h40.03c22.02 0 39.94-18.01 39.94-40.03l-0.128-188h0.128c13.16 0 23.97-10.84 23.97-24s-10.81-23.97-23.97-23.97h-240-0.032 0.001z"/>
       <path fill="#fff" inkscape:connector-curvature="0" d="m95.98 1036h240c4.572 0 8.031 3.459 8.031 8.031s-3.459 8.031-8.031 8.031h-232.8-7.188c-4.572 0-8.031-3.459-8.031-8.031 0-4.57 3.459-8.032 8.031-8.031z"/>
       <path fill="#29a3ec" inkscape:connector-curvature="0" d="m111.9 1068h208l0.122 188c0 13.44-10.58 23.97-24 23.97h-48.06c-4.393 0.051-7.923 3.637-7.907 8.029l-0.122 71.94c-0.018 4.418 3.55 8.016 7.968 8.033h0.063 28v19.94h-119.9l-0.122-19.94h27.97c4.419 0.018 8.014-3.551 8.031-7.971v-0.063-71.94c0.016-4.393-3.513-7.977-7.906-8.029h-47.94c-13.42 0-24.09-10.53-24.09-23.97l-0.121-188h-0.007z"/>
       <path fill="#ee746c" inkscape:connector-curvature="0" d="m153.1 1404h125.3c18.04 0 32.31 14.06 40.28 32.03h-205.9c7.968-17.97 22.24-32.03 40.28-32.03z"/>
       <g fill="#5a3392">
        <path inkscape:connector-curvature="0" d="m64.08 1076c-22.8 2.057-39.04 22.16-40.04 42.4-0.605 12.17 4.554 22.62 11.69 31.06 7.139 8.443 16.26 15.43 25.16 22.2 8.9 6.771 17.61 13.33 23.98 20.08 6.369 6.748 10.25 13.36 10.98 20.79 0.75 7.574-3.205 17.12-10.16 20.9-7.427 4.039-16.57 2.977-22.91-2.6-6.346-5.574-8.509-14.35-5.43-22.2 1.632-4.109-0.377-8.764-4.487-10.4-4.109-1.633-8.763 0.377-10.4 4.486-5.509 14.07-1.548 30.18 9.803 40.16 11.35 9.979 27.82 11.84 41.1 4.607 13.76-7.488 19.78-22.88 18.42-36.62-1.185-12.04-7.479-21.9-15.24-30.12-7.757-8.217-17.17-15.15-25.98-21.85-8.814-6.705-17.01-13.16-22.56-19.72-5.545-6.559-8.395-12.6-8.032-19.96 0.544-11.56 11.97-26.06 25.51-27.28 14.22-1.279 27.02 8.182 30 22.09 0.889 4.344 5.13 7.143 9.473 6.254s7.143-5.131 6.254-9.473c-0.006-0.029-0.012-0.059-0.018-0.088-4.65-21.71-25-36.72-47.13-34.72h-0.004z"/>
        <path inkscape:connector-curvature="0" d="m367.9 1076c-22.13-1.996-42.47 12.9-47.13 34.6-0.985 4.328 1.725 8.637 6.054 9.623 4.329 0.984 8.637-1.725 9.623-6.055 0.011-0.049 0.022-0.098 0.032-0.146 2.981-13.9 15.78-23.37 30-22.09 13.54 1.217 24.94 15.73 25.51 27.28 0.363 7.365-2.485 13.4-8.032 19.96-5.545 6.559-13.74 13.02-22.56 19.72-8.814 6.705-18.23 13.63-25.98 21.85-7.757 8.217-14.05 18.08-15.24 30.12-1.355 13.73 4.668 29.13 18.42 36.62 13.28 7.229 29.75 5.371 41.1-4.607 11.35-9.979 15.32-26.09 9.803-40.16-1.632-4.109-6.285-6.119-10.4-4.486-4.109 1.631-6.118 6.285-4.487 10.4 3.078 7.85 0.913 16.62-5.43 22.2-6.345 5.576-15.49 6.641-22.91 2.6-6.949-3.783-10.91-13.45-10.16-21.02 0.732-7.42 4.614-13.92 10.98-20.67 6.37-6.748 15.08-13.31 23.98-20.08 8.9-6.771 18.02-13.76 25.16-22.2 7.139-8.441 12.29-18.9 11.69-31.06-0.998-20.24-17.24-40.34-40.04-42.4h-0.004z"/>
       </g>
       <path fill="#3cdef6" inkscape:connector-curvature="0" d="m122 1078h187.9l0.122 176.3c0 12.6-9.552 22.48-21.68 22.48h-43.41c-3.968 0.049-7.157 3.41-7.142 7.529l-0.122 67.46c-0.017 4.143 3.206 7.516 7.197 7.533h0.058 25.29v18.7h-108.3l-0.122-18.7h25.26c3.991 0.016 7.239-3.33 7.255-7.473v-0.061-67.46c0.015-4.119-3.174-7.48-7.142-7.529h-43.3c-12.13 0-21.76-9.871-21.76-22.48l-0.122-176.3h0.018z"/>
       <path fill="#fff" inkscape:connector-curvature="0" d="m289.3 1108c-4.116 0.473-7.191 4.008-7.086 8.15v67.91c-0.372 4.402 2.896 8.273 7.299 8.646 4.403 0.371 8.274-2.896 8.646-7.299 0.038-0.449 0.038-0.898 0-1.348v-67.91c0.108-4.418-3.385-8.086-7.802-8.195-0.354-0.01-0.706 0.01-1.057 0.046z"/>
      </g>
      <path fill="#fff" inkscape:connector-curvature="0" d="m298.1 1212c0 4.418-3.582 8-8 8s-8-3.582-8-8 3.582-8 8-8 8 3.582 8 8z"/>
      <g style="image-rendering:auto;color-rendering:auto;shape-rendering:auto">
       <path fill="#fb9761" inkscape:connector-curvature="0" d="m165.4 1407h100.9c14.52 0 26.01 11.32 32.42 25.78h-165.7c6.414-14.46 17.9-25.78 32.42-25.78z"/>
       <path fill="#ebfeff" inkscape:connector-curvature="0" d="m114.7 1038h202.6c3.858 0 6.781 2.921 6.781 6.78s-2.921 6.781-6.781 6.781h-196.6-6.069c-3.858 0-6.781-2.92-6.781-6.781 0-3.857 2.921-6.781 6.781-6.78z"/>
       <path fill="#5a3392" inkscape:connector-curvature="0" d="m95.95 1020c-13.14 0-23.97 10.82-23.97 23.97 0 13.16 10.84 24 24 24l0.128 188c0.01 22.02 18.02 40.03 40.03 40.03h39.91v55.97h-27.97c-4.419-0.018-8.014 3.551-8.031 7.971v0.061 29.56c-21.85 5.043-39.95 22.23-47.03 45.44l-5.188 16.91h10.75 245.2l-5.187-16.91c-7.034-23.05-24.92-40.13-46.56-45.31l-0.128-29.78c-0.034-4.357-3.549-7.887-7.906-7.938h-28v-55.97h40.03c22.02 0 39.94-18.01 39.94-40.03l-0.128-188h0.128c13.16 0 23.97-10.84 23.97-24s-10.81-23.97-23.97-23.97h-240-0.032 0.001zm0.032 15.94h240c4.572 0 8.031 3.46 8.031 8.032 0 4.57-3.459 8.031-8.031 8.031h-232.8-7.187c-4.572 0-8.031-3.459-8.031-8.031s3.459-8.032 8.031-8.032zm15.94 32.03h208l0.128 188c0 13.44-10.58 23.97-24 23.97h-48.06c-4.394 0.053-7.923 3.637-7.906 8.031l-0.128 71.94c-0.017 4.418 3.552 8.014 7.97 8.031h0.061 28v19.94h-119.9l-0.128-19.94h27.97c4.419 0.018 8.014-3.551 8.031-7.971v-0.061-71.94c0.017-4.395-3.513-7.979-7.906-8.031h-47.94c-13.42 0-24.09-10.53-24.09-23.97l-0.128-188h0.006zm41.22 336h125.3c18.04 0 32.31 14.06 40.28 32.03h-205.9c7.968-17.97 22.24-32.03 40.28-32.03z"/>
      </g>
     </g>
    </g>
   </g>
  </g>
  <text style="word-spacing:0px;letter-spacing:0px" line-height="125%" xml:space="preserve" font-size="9.769px" y="587.29071" x="156.02283" font-family="sans-serif" sodipodi:linespacing="125%" fill="#555753"><tspan sodipodi:role="line" x="156.02283" y="587.29071"/></text>
  <g transform="translate(-.7680)">
   <text style="word-spacing:0px;letter-spacing:0px" line-height="125%" xml:space="preserve" font-size="12.21px" y="588.98157" x="149.52708" font-family="sans-serif" sodipodi:linespacing="125%" fill="#555753"><tspan sodipodi:role="line" x="149.52708" y="588.98157">Settings</tspan></text>
   <g>
    <path d="m147.5 613.7v-20h260v20" fill-rule="evenodd" sodipodi:nodetypes="cccc" inkscape:connector-curvature="0" stroke="#fff" stroke-linecap="round" stroke-miterlimit="15" fill="#f4feed"/>
    <g font-size="9.769px" font-family="sans-serif" fill="#555753">
     <text style="word-spacing:0px;letter-spacing:0px" line-height="125%" xml:space="preserve" y="607.48395" x="201.48402" sodipodi:linespacing="125%"><tspan sodipodi:role="line" x="201.48402" y="607.48395">by profs</tspan></text>
     <text style="word-spacing:0px;letter-spacing:0px" line-height="125%" sodipodi:linespacing="125%" y="607.48395" x="248.04405" xml:space="preserve"><tspan y="607.48395" x="248.04405" sodipodi:role="line">by peers</tspan></text>
     <text style="word-spacing:0px;letter-spacing:0px" line-height="125%" xml:space="preserve" y="607.48395" x="297.37549" sodipodi:linespacing="125%"><tspan sodipodi:role="line" font-style="italic" y="607.48395" x="297.37549" font-family="sans-serif">&quot;as prof&quot;</tspan></text>
     <text style="word-spacing:0px;letter-spacing:0px" line-height="125%" sodipodi:linespacing="125%" y="606.8847" x="358.94742" xml:space="preserve"><tspan sodipodi:role="line" font-weight="bold" y="606.8847" x="358.94742" font-family="sans-serif">Final</tspan></text>
    </g>
    <g transform="matrix(.02787 0 0 .02787 345.3 597.2)">
     <g transform="translate(0 -1020)">
      <g style="image-rendering:auto;color-rendering:auto;shape-rendering:auto">
       <path fill="#5a3392" inkscape:connector-curvature="0" d="m95.95 1020c-13.14 0-23.97 10.82-23.97 23.97 0 13.16 10.84 24 24 24l0.128 188c0.01 22.02 18.02 40.03 40.03 40.03h39.91v55.97h-27.97c-4.419-0.018-8.014 3.551-8.031 7.971v0.061 29.56c-21.85 5.043-39.95 22.23-47.03 45.44l-5.188 16.91h10.75 245.2l-5.187-16.91c-7.034-23.05-24.92-40.13-46.56-45.31l-0.128-29.78c-0.034-4.357-3.549-7.887-7.906-7.938h-28v-55.97h40.03c22.02 0 39.94-18.01 39.94-40.03l-0.128-188h0.128c13.16 0 23.97-10.84 23.97-24s-10.81-23.97-23.97-23.97h-240-0.032 0.001z"/>
       <path fill="#fff" inkscape:connector-curvature="0" d="m95.98 1036h240c4.572 0 8.031 3.459 8.031 8.031s-3.459 8.031-8.031 8.031h-232.8-7.188c-4.572 0-8.031-3.459-8.031-8.031 0-4.57 3.459-8.032 8.031-8.031z"/>
       <path fill="#29a3ec" inkscape:connector-curvature="0" d="m111.9 1068h208l0.122 188c0 13.44-10.58 23.97-24 23.97h-48.06c-4.393 0.051-7.923 3.637-7.907 8.029l-0.122 71.94c-0.018 4.418 3.55 8.016 7.968 8.033h0.063 28v19.94h-119.9l-0.122-19.94h27.97c4.419 0.018 8.014-3.551 8.031-7.971v-0.063-71.94c0.016-4.393-3.513-7.977-7.906-8.029h-47.94c-13.42 0-24.09-10.53-24.09-23.97l-0.121-188h-0.007z"/>
       <path fill="#ee746c" inkscape:connector-curvature="0" d="m153.1 1404h125.3c18.04 0 32.31 14.06 40.28 32.03h-205.9c7.968-17.97 22.24-32.03 40.28-32.03z"/>
       <g fill="#5a3392">
        <path inkscape:connector-curvature="0" d="m64.08 1076c-22.8 2.057-39.04 22.16-40.04 42.4-0.605 12.17 4.554 22.62 11.69 31.06 7.139 8.443 16.26 15.43 25.16 22.2 8.9 6.771 17.61 13.33 23.98 20.08 6.369 6.748 10.25 13.36 10.98 20.79 0.75 7.574-3.205 17.12-10.16 20.9-7.427 4.039-16.57 2.977-22.91-2.6-6.346-5.574-8.509-14.35-5.43-22.2 1.632-4.109-0.377-8.764-4.487-10.4-4.109-1.633-8.763 0.377-10.4 4.486-5.509 14.07-1.548 30.18 9.803 40.16 11.35 9.979 27.82 11.84 41.1 4.607 13.76-7.488 19.78-22.88 18.42-36.62-1.185-12.04-7.479-21.9-15.24-30.12-7.757-8.217-17.17-15.15-25.98-21.85-8.814-6.705-17.01-13.16-22.56-19.72-5.545-6.559-8.395-12.6-8.032-19.96 0.544-11.56 11.97-26.06 25.51-27.28 14.22-1.279 27.02 8.182 30 22.09 0.889 4.344 5.13 7.143 9.473 6.254s7.143-5.131 6.254-9.473c-0.006-0.029-0.012-0.059-0.018-0.088-4.65-21.71-25-36.72-47.13-34.72h-0.004z"/>
        <path inkscape:connector-curvature="0" d="m367.9 1076c-22.13-1.996-42.47 12.9-47.13 34.6-0.985 4.328 1.725 8.637 6.054 9.623 4.329 0.984 8.637-1.725 9.623-6.055 0.011-0.049 0.022-0.098 0.032-0.146 2.981-13.9 15.78-23.37 30-22.09 13.54 1.217 24.94 15.73 25.51 27.28 0.363 7.365-2.485 13.4-8.032 19.96-5.545 6.559-13.74 13.02-22.56 19.72-8.814 6.705-18.23 13.63-25.98 21.85-7.757 8.217-14.05 18.08-15.24 30.12-1.355 13.73 4.668 29.13 18.42 36.62 13.28 7.229 29.75 5.371 41.1-4.607 11.35-9.979 15.32-26.09 9.803-40.16-1.632-4.109-6.285-6.119-10.4-4.486-4.109 1.631-6.118 6.285-4.487 10.4 3.078 7.85 0.913 16.62-5.43 22.2-6.345 5.576-15.49 6.641-22.91 2.6-6.949-3.783-10.91-13.45-10.16-21.02 0.732-7.42 4.614-13.92 10.98-20.67 6.37-6.748 15.08-13.31 23.98-20.08 8.9-6.771 18.02-13.76 25.16-22.2 7.139-8.441 12.29-18.9 11.69-31.06-0.998-20.24-17.24-40.34-40.04-42.4h-0.004z"/>
       </g>
       <path fill="#3cdef6" inkscape:connector-curvature="0" d="m122 1078h187.9l0.122 176.3c0 12.6-9.552 22.48-21.68 22.48h-43.41c-3.968 0.049-7.157 3.41-7.142 7.529l-0.122 67.46c-0.017 4.143 3.206 7.516 7.197 7.533h0.058 25.29v18.7h-108.3l-0.122-18.7h25.26c3.991 0.016 7.239-3.33 7.255-7.473v-0.061-67.46c0.015-4.119-3.174-7.48-7.142-7.529h-43.3c-12.13 0-21.76-9.871-21.76-22.48l-0.122-176.3h0.018z"/>
       <path fill="#fff" inkscape:connector-curvature="0" d="m289.3 1108c-4.116 0.473-7.191 4.008-7.086 8.15v67.91c-0.372 4.402 2.896 8.273 7.299 8.646 4.403 0.371 8.274-2.896 8.646-7.299 0.038-0.449 0.038-0.898 0-1.348v-67.91c0.108-4.418-3.385-8.086-7.802-8.195-0.354-0.01-0.706 0.01-1.057 0.046z"/>
      </g>
      <path fill="#fff" inkscape:connector-curvature="0" d="m298.1 1212c0 4.418-3.582 8-8 8s-8-3.582-8-8 3.582-8 8-8 8 3.582 8 8z"/>
      <g style="image-rendering:auto;color-rendering:auto;shape-rendering:auto">
       <path fill="#fb9761" inkscape:connector-curvature="0" d="m165.4 1407h100.9c14.52 0 26.01 11.32 32.42 25.78h-165.7c6.414-14.46 17.9-25.78 32.42-25.78z"/>
       <path fill="#ebfeff" inkscape:connector-curvature="0" d="m114.7 1038h202.6c3.858 0 6.781 2.921 6.781 6.78s-2.921 6.781-6.781 6.781h-196.6-6.069c-3.858 0-6.781-2.92-6.781-6.781 0-3.857 2.921-6.781 6.781-6.78z"/>
       <path fill="#5a3392" inkscape:connector-curvature="0" d="m95.95 1020c-13.14 0-23.97 10.82-23.97 23.97 0 13.16 10.84 24 24 24l0.128 188c0.01 22.02 18.02 40.03 40.03 40.03h39.91v55.97h-27.97c-4.419-0.018-8.014 3.551-8.031 7.971v0.061 29.56c-21.85 5.043-39.95 22.23-47.03 45.44l-5.188 16.91h10.75 245.2l-5.187-16.91c-7.034-23.05-24.92-40.13-46.56-45.31l-0.128-29.78c-0.034-4.357-3.549-7.887-7.906-7.938h-28v-55.97h40.03c22.02 0 39.94-18.01 39.94-40.03l-0.128-188h0.128c13.16 0 23.97-10.84 23.97-24s-10.81-23.97-23.97-23.97h-240-0.032 0.001zm0.032 15.94h240c4.572 0 8.031 3.46 8.031 8.032 0 4.57-3.459 8.031-8.031 8.031h-232.8-7.187c-4.572 0-8.031-3.459-8.031-8.031s3.459-8.032 8.031-8.032zm15.94 32.03h208l0.128 188c0 13.44-10.58 23.97-24 23.97h-48.06c-4.394 0.053-7.923 3.637-7.906 8.031l-0.128 71.94c-0.017 4.418 3.552 8.014 7.97 8.031h0.061 28v19.94h-119.9l-0.128-19.94h27.97c4.419 0.018 8.014-3.551 8.031-7.971v-0.061-71.94c0.017-4.395-3.513-7.979-7.906-8.031h-47.94c-13.42 0-24.09-10.53-24.09-23.97l-0.128-188h0.006zm41.22 336h125.3c18.04 0 32.31 14.06 40.28 32.03h-205.9c7.968-17.97 22.24-32.03 40.28-32.03z"/>
      </g>
     </g>
    </g>
   </g>
   <g>
    <path d="m147.5 613.7h260v20h-260z" fill-rule="evenodd" inkscape:connector-curvature="0" stroke="#fff" stroke-linecap="round" stroke-miterlimit="15" fill="#edf4fe"/>
    <g font-size="9.769px" font-family="sans-serif" fill="#555753">
     <text style="word-spacing:0px;letter-spacing:0px" line-height="125%" sodipodi:linespacing="125%" y="627.26868" x="215.25037" xml:space="preserve"><tspan y="627.26868" x="215.25037" sodipodi:role="line">50      +</tspan></text>
     <text style="word-spacing:0px;letter-spacing:0px" line-height="125%" xml:space="preserve" y="627.26868" x="261.59888" sodipodi:linespacing="125%"><tspan sodipodi:role="line" x="261.59888" y="627.26868">25      +</tspan></text>
     <text style="word-spacing:0px;letter-spacing:0px" line-height="125%" sodipodi:linespacing="125%" y="627.26868" x="308.3728" xml:space="preserve"><tspan y="627.26868" x="308.3728" sodipodi:role="line">25    =</tspan></text>
     <text style="word-spacing:0px;letter-spacing:0px" line-height="125%" sodipodi:linespacing="125%" y="627.27344" x="156.90527" xml:space="preserve"><tspan y="627.27344" x="156.90527" sodipodi:role="line">Weights :</tspan></text>
     <text style="word-spacing:0px;letter-spacing:0px" line-height="125%" xml:space="preserve" y="626.8847" x="358.94742" sodipodi:linespacing="125%"><tspan sodipodi:role="line" font-weight="bold" y="626.8847" x="358.94742" font-family="sans-serif"><tspan font-family="sans-serif" font-weight="normal"><tspan font-family="sans-serif" font-weight="bold">100</tspan>/100</tspan></tspan></text>
    </g>
    <g transform="matrix(.02787 0 0 .02787 345.3 617.7)">
     <g transform="translate(0 -1020)">
      <g style="image-rendering:auto;color-rendering:auto;shape-rendering:auto">
       <path fill="#5a3392" inkscape:connector-curvature="0" d="m95.95 1020c-13.14 0-23.97 10.82-23.97 23.97 0 13.16 10.84 24 24 24l0.128 188c0.01 22.02 18.02 40.03 40.03 40.03h39.91v55.97h-27.97c-4.419-0.018-8.014 3.551-8.031 7.971v0.061 29.56c-21.85 5.043-39.95 22.23-47.03 45.44l-5.188 16.91h10.75 245.2l-5.187-16.91c-7.034-23.05-24.92-40.13-46.56-45.31l-0.128-29.78c-0.034-4.357-3.549-7.887-7.906-7.938h-28v-55.97h40.03c22.02 0 39.94-18.01 39.94-40.03l-0.128-188h0.128c13.16 0 23.97-10.84 23.97-24s-10.81-23.97-23.97-23.97h-240-0.032 0.001z"/>
       <path fill="#fff" inkscape:connector-curvature="0" d="m95.98 1036h240c4.572 0 8.031 3.459 8.031 8.031s-3.459 8.031-8.031 8.031h-232.8-7.188c-4.572 0-8.031-3.459-8.031-8.031 0-4.57 3.459-8.032 8.031-8.031z"/>
       <path fill="#29a3ec" inkscape:connector-curvature="0" d="m111.9 1068h208l0.122 188c0 13.44-10.58 23.97-24 23.97h-48.06c-4.393 0.051-7.923 3.637-7.907 8.029l-0.122 71.94c-0.018 4.418 3.55 8.016 7.968 8.033h0.063 28v19.94h-119.9l-0.122-19.94h27.97c4.419 0.018 8.014-3.551 8.031-7.971v-0.063-71.94c0.016-4.393-3.513-7.977-7.906-8.029h-47.94c-13.42 0-24.09-10.53-24.09-23.97l-0.121-188h-0.007z"/>
       <path fill="#ee746c" inkscape:connector-curvature="0" d="m153.1 1404h125.3c18.04 0 32.31 14.06 40.28 32.03h-205.9c7.968-17.97 22.24-32.03 40.28-32.03z"/>
       <g fill="#5a3392">
        <path inkscape:connector-curvature="0" d="m64.08 1076c-22.8 2.057-39.04 22.16-40.04 42.4-0.605 12.17 4.554 22.62 11.69 31.06 7.139 8.443 16.26 15.43 25.16 22.2 8.9 6.771 17.61 13.33 23.98 20.08 6.369 6.748 10.25 13.36 10.98 20.79 0.75 7.574-3.205 17.12-10.16 20.9-7.427 4.039-16.57 2.977-22.91-2.6-6.346-5.574-8.509-14.35-5.43-22.2 1.632-4.109-0.377-8.764-4.487-10.4-4.109-1.633-8.763 0.377-10.4 4.486-5.509 14.07-1.548 30.18 9.803 40.16 11.35 9.979 27.82 11.84 41.1 4.607 13.76-7.488 19.78-22.88 18.42-36.62-1.185-12.04-7.479-21.9-15.24-30.12-7.757-8.217-17.17-15.15-25.98-21.85-8.814-6.705-17.01-13.16-22.56-19.72-5.545-6.559-8.395-12.6-8.032-19.96 0.544-11.56 11.97-26.06 25.51-27.28 14.22-1.279 27.02 8.182 30 22.09 0.889 4.344 5.13 7.143 9.473 6.254s7.143-5.131 6.254-9.473c-0.006-0.029-0.012-0.059-0.018-0.088-4.65-21.71-25-36.72-47.13-34.72h-0.004z"/>
        <path inkscape:connector-curvature="0" d="m367.9 1076c-22.13-1.996-42.47 12.9-47.13 34.6-0.985 4.328 1.725 8.637 6.054 9.623 4.329 0.984 8.637-1.725 9.623-6.055 0.011-0.049 0.022-0.098 0.032-0.146 2.981-13.9 15.78-23.37 30-22.09 13.54 1.217 24.94 15.73 25.51 27.28 0.363 7.365-2.485 13.4-8.032 19.96-5.545 6.559-13.74 13.02-22.56 19.72-8.814 6.705-18.23 13.63-25.98 21.85-7.757 8.217-14.05 18.08-15.24 30.12-1.355 13.73 4.668 29.13 18.42 36.62 13.28 7.229 29.75 5.371 41.1-4.607 11.35-9.979 15.32-26.09 9.803-40.16-1.632-4.109-6.285-6.119-10.4-4.486-4.109 1.631-6.118 6.285-4.487 10.4 3.078 7.85 0.913 16.62-5.43 22.2-6.345 5.576-15.49 6.641-22.91 2.6-6.949-3.783-10.91-13.45-10.16-21.02 0.732-7.42 4.614-13.92 10.98-20.67 6.37-6.748 15.08-13.31 23.98-20.08 8.9-6.771 18.02-13.76 25.16-22.2 7.139-8.441 12.29-18.9 11.69-31.06-0.998-20.24-17.24-40.34-40.04-42.4h-0.004z"/>
       </g>
       <path fill="#3cdef6" inkscape:connector-curvature="0" d="m122 1078h187.9l0.122 176.3c0 12.6-9.552 22.48-21.68 22.48h-43.41c-3.968 0.049-7.157 3.41-7.142 7.529l-0.122 67.46c-0.017 4.143 3.206 7.516 7.197 7.533h0.058 25.29v18.7h-108.3l-0.122-18.7h25.26c3.991 0.016 7.239-3.33 7.255-7.473v-0.061-67.46c0.015-4.119-3.174-7.48-7.142-7.529h-43.3c-12.13 0-21.76-9.871-21.76-22.48l-0.122-176.3h0.018z"/>
       <path fill="#fff" inkscape:connector-curvature="0" d="m289.3 1108c-4.116 0.473-7.191 4.008-7.086 8.15v67.91c-0.372 4.402 2.896 8.273 7.299 8.646 4.403 0.371 8.274-2.896 8.646-7.299 0.038-0.449 0.038-0.898 0-1.348v-67.91c0.108-4.418-3.385-8.086-7.802-8.195-0.354-0.01-0.706 0.01-1.057 0.046z"/>
      </g>
      <path fill="#fff" inkscape:connector-curvature="0" d="m298.1 1212c0 4.418-3.582 8-8 8s-8-3.582-8-8 3.582-8 8-8 8 3.582 8 8z"/>
      <g style="image-rendering:auto;color-rendering:auto;shape-rendering:auto">
       <path fill="#fb9761" inkscape:connector-curvature="0" d="m165.4 1407h100.9c14.52 0 26.01 11.32 32.42 25.78h-165.7c6.414-14.46 17.9-25.78 32.42-25.78z"/>
       <path fill="#ebfeff" inkscape:connector-curvature="0" d="m114.7 1038h202.6c3.858 0 6.781 2.921 6.781 6.78s-2.921 6.781-6.781 6.781h-196.6-6.069c-3.858 0-6.781-2.92-6.781-6.781 0-3.857 2.921-6.781 6.781-6.78z"/>
       <path fill="#5a3392" inkscape:connector-curvature="0" d="m95.95 1020c-13.14 0-23.97 10.82-23.97 23.97 0 13.16 10.84 24 24 24l0.128 188c0.01 22.02 18.02 40.03 40.03 40.03h39.91v55.97h-27.97c-4.419-0.018-8.014 3.551-8.031 7.971v0.061 29.56c-21.85 5.043-39.95 22.23-47.03 45.44l-5.188 16.91h10.75 245.2l-5.187-16.91c-7.034-23.05-24.92-40.13-46.56-45.31l-0.128-29.78c-0.034-4.357-3.549-7.887-7.906-7.938h-28v-55.97h40.03c22.02 0 39.94-18.01 39.94-40.03l-0.128-188h0.128c13.16 0 23.97-10.84 23.97-24s-10.81-23.97-23.97-23.97h-240-0.032 0.001zm0.032 15.94h240c4.572 0 8.031 3.46 8.031 8.032 0 4.57-3.459 8.031-8.031 8.031h-232.8-7.187c-4.572 0-8.031-3.459-8.031-8.031s3.459-8.032 8.031-8.032zm15.94 32.03h208l0.128 188c0 13.44-10.58 23.97-24 23.97h-48.06c-4.394 0.053-7.923 3.637-7.906 8.031l-0.128 71.94c-0.017 4.418 3.552 8.014 7.97 8.031h0.061 28v19.94h-119.9l-0.128-19.94h27.97c4.419 0.018 8.014-3.551 8.031-7.971v-0.061-71.94c0.017-4.395-3.513-7.979-7.906-8.031h-47.94c-13.42 0-24.09-10.53-24.09-23.97l-0.128-188h0.006zm41.22 336h125.3c18.04 0 32.31 14.06 40.28 32.03h-205.9c7.968-17.97 22.24-32.03 40.28-32.03z"/>
      </g>
     </g>
    </g>
    <g fill-rule="evenodd" fill="#555753" transform="translate(0 -.1308)">
     <path d="m232.9 619.2-3.563 3.946h7.126z" sodipodi:nodetypes="cccc" inkscape:connector-curvature="0"/>
     <path d="m232.9 628.5-3.563-3.946h7.126z" sodipodi:nodetypes="cccc" inkscape:connector-curvature="0"/>
    </g>
    <g fill-rule="evenodd" transform="translate(0 -.1308)" fill="#555753">
     <path d="m232.9 619.2-3.563 3.946h7.126z" sodipodi:nodetypes="cccc" inkscape:connector-curvature="0"/>
     <path d="m232.9 628.5-3.563-3.946h7.126z" sodipodi:nodetypes="cccc" inkscape:connector-curvature="0"/>
    </g>
    <g fill-rule="evenodd" transform="translate(46.1 -.1308)" fill="#555753">
     <path d="m232.9 619.2-3.563 3.946h7.126z" sodipodi:nodetypes="cccc" inkscape:connector-curvature="0"/>
     <path d="m232.9 628.5-3.563-3.946h7.126z" sodipodi:nodetypes="cccc" inkscape:connector-curvature="0"/>
    </g>
    <g fill-rule="evenodd" transform="translate(92.19 -.1308)" fill="#555753">
     <path d="m232.9 619.2-3.563 3.946h7.126z" sodipodi:nodetypes="cccc" inkscape:connector-curvature="0"/>
     <path d="m232.9 628.5-3.563-3.946h7.126z" sodipodi:nodetypes="cccc" inkscape:connector-curvature="0"/>
    </g>
   </g>
  </g>
 </g>
</svg>
