<?xml version="1.0" encoding="UTF-8" standalone="no"?>
<!-- Generator: Adobe Illustrator 21.1.0, SVG Export Plug-In . SVG Version: 6.00 Build 0)  -->

<svg
   xmlns:dc="http://purl.org/dc/elements/1.1/"
   xmlns:cc="http://creativecommons.org/ns#"
   xmlns:rdf="http://www.w3.org/1999/02/22-rdf-syntax-ns#"
   xmlns:svg="http://www.w3.org/2000/svg"
   xmlns="http://www.w3.org/2000/svg"
   xmlns:sodipodi="http://sodipodi.sourceforge.net/DTD/sodipodi-0.dtd"
   xmlns:inkscape="http://www.inkscape.org/namespaces/inkscape"
   version="1.1"
   id="Calque_1"
   x="0px"
   y="0px"
   viewBox="0 0 128 128"
   xml:space="preserve"
   inkscape:version="0.91 r13725"
   sodipodi:docname="logo-paris5-sq.svg"
   width="128"
   height="128"><metadata
     id="metadata85"><rdf:RDF><cc:Work
         rdf:about=""><dc:format>image/svg+xml</dc:format><dc:type
           rdf:resource="http://purl.org/dc/dcmitype/StillImage" /><dc:title></dc:title></cc:Work></rdf:RDF></metadata><defs
     id="defs83" /><sodipodi:namedview
     pagecolor="#ffffff"
     bordercolor="#666666"
     borderopacity="1"
     objecttolerance="10"
     gridtolerance="10"
     guidetolerance="10"
     inkscape:pageopacity="0"
     inkscape:pageshadow="2"
     inkscape:window-width="1855"
     inkscape:window-height="1056"
     id="namedview81"
     showgrid="false"
     fit-margin-top="0"
     fit-margin-left="0"
     fit-margin-right="0"
     fit-margin-bottom="0"
     inkscape:zoom="1.1375388"
     inkscape:cx="145.05"
     inkscape:cy="56.399998"
     inkscape:window-x="65"
     inkscape:window-y="24"
     inkscape:window-maximized="1"
     inkscape:current-layer="Calque_1" /><style
     type="text/css"
     id="style3">
	.st0{fill:#CF0A2C;}
	.st1{fill:#FFFFFF;}
	.st2{fill:#717271;}
</style><path
     style="fill:#cf0a2c"
     d="M 64 0 C 28.59574 0 0 28.709219 0 64 C 0 99.290781 28.59574 128 64 128 C 99.40426 128 128 99.290781 128 64 C 128 28.595743 99.29078 0 64 0 z M 64 4.6523438 C 96.680851 4.6523437 123.34766 31.319148 123.34766 64 C 123.34766 96.680851 96.680851 123.34766 64 123.34766 C 31.319148 123.34766 4.6523438 96.680851 4.6523438 64 C 4.6523437 31.319148 31.205672 4.6523438 64 4.6523438 z M 64 8.625 C 33.475176 8.625 8.625 33.475176 8.625 64 C 8.625 94.524823 33.475176 119.375 64 119.375 C 94.524823 119.375 119.375 94.524823 119.375 64 C 119.375 33.475176 94.524823 8.625 64 8.625 z M 64 14.525391 C 68.085106 14.525391 71.375 17.815284 71.375 21.900391 L 67.404297 21.900391 C 67.404297 19.971313 65.929078 18.496094 64 18.496094 C 62.070921 18.496094 60.595703 20.084788 60.595703 21.900391 L 56.625 21.900391 C 56.625 17.815284 59.914893 14.525391 64 14.525391 z M 34.15625 25.644531 L 39.716797 25.644531 C 27.007577 33.701268 18.60957 47.886524 18.496094 64 C 18.496094 75.120567 22.469029 85.220799 29.164062 93.164062 L 29.164062 97.929688 C 20.653424 89.192099 15.318359 77.16312 15.318359 64 C 15.318359 48.4539 22.695257 34.495595 34.15625 25.644531 z M 61.957031 25.644531 L 65.929688 25.644531 L 65.929688 37.447266 C 67.631814 35.972089 69.900224 35.177734 72.283203 35.177734 L 73.304688 35.177734 L 73.304688 39.261719 L 72.283203 39.261719 C 68.765472 39.261719 65.929688 42.099457 65.929688 45.617188 L 65.929688 54.013672 C 69.106993 53.673246 71.829317 51.971257 73.417969 49.361328 L 77.84375 49.361328 C 75.914672 54.127286 71.376496 57.645902 65.929688 57.986328 L 65.929688 66.951172 C 67.631814 65.475995 69.900224 64.681641 72.283203 64.681641 L 78.525391 64.681641 L 78.525391 68.652344 L 72.283203 68.652344 C 68.765472 68.652344 65.929688 71.490082 65.929688 75.007812 L 65.929688 80.113281 L 65.929688 92.142578 L 61.957031 92.142578 L 61.957031 80.113281 L 61.957031 75.007812 C 61.957031 71.490082 59.121247 68.652344 55.603516 68.652344 L 49.474609 68.652344 L 49.474609 64.681641 L 55.716797 64.681641 C 58.099776 64.681641 60.254711 65.58947 62.070312 66.951172 L 62.070312 57.986328 C 56.623505 57.645902 52.085328 54.127286 50.15625 49.361328 L 54.582031 49.361328 C 56.170683 51.857782 58.779726 53.673246 61.957031 54.013672 L 61.957031 45.390625 C 61.843556 41.98637 59.007772 39.148438 55.603516 39.148438 L 54.582031 39.148438 L 54.582031 35.177734 L 55.603516 35.177734 C 57.986495 35.177734 60.254904 35.972282 61.957031 37.333984 L 61.957031 25.644531 z M 88.169922 25.644531 L 93.730469 25.644531 C 105.07799 34.60907 112.45312 48.4539 112.45312 64 C 112.45312 77.16312 107.12001 89.192099 98.609375 97.929688 L 98.609375 93.164062 C 105.30441 85.220799 109.27734 75.120567 109.27734 64 C 109.27734 47.886524 100.87915 33.701268 88.169922 25.644531 z M 54.240234 25.759766 L 54.582031 25.759766 L 54.582031 29.730469 L 54.240234 29.730469 C 49.474276 29.730469 45.617188 33.589511 45.617188 38.355469 L 45.617188 39.261719 L 41.644531 39.261719 L 41.644531 38.355469 C 41.644531 31.433483 47.318248 25.759766 54.240234 25.759766 z M 73.417969 25.759766 L 73.759766 25.759766 C 80.681752 25.759766 86.355469 31.433483 86.355469 38.355469 L 86.355469 39.261719 L 82.382812 39.261719 L 82.382812 38.355469 C 82.382813 33.589511 78.525724 29.616994 73.759766 29.730469 L 73.417969 29.730469 L 73.417969 25.759766 z M 44.595703 42.894531 L 45.503906 42.894531 L 45.503906 46.865234 L 44.595703 46.865234 C 39.48932 46.865234 35.404297 50.950258 35.404297 56.056641 C 35.404297 58.43962 36.424826 60.823263 38.126953 62.525391 L 35.291016 65.361328 C 32.794562 62.864874 31.433594 59.574372 31.433594 56.056641 C 31.433594 48.794229 37.333291 42.894531 44.595703 42.894531 z M 82.382812 42.894531 L 83.291016 42.894531 C 90.553428 42.894531 96.453125 48.794229 96.453125 56.056641 C 96.453125 59.574372 95.092157 62.864874 92.595703 65.361328 L 89.759766 62.525391 C 91.575369 60.823263 92.482422 58.553095 92.482422 56.056641 C 92.482422 50.950258 88.397399 46.865234 83.291016 46.865234 L 82.382812 46.865234 L 82.382812 42.894531 z M 41.417969 64.681641 L 45.390625 64.681641 L 45.390625 93.957031 L 55.490234 93.957031 C 58.894489 93.957031 61.957641 95.659602 63.886719 98.269531 C 65.815797 95.659602 68.878947 93.957031 72.283203 93.957031 L 82.382812 93.957031 L 82.382812 64.681641 L 86.355469 64.681641 L 86.355469 72.509766 L 93.277344 72.509766 L 93.277344 104.96484 L 73.304688 104.96484 C 72.510362 109.50385 68.652677 112.9082 63.886719 112.9082 C 59.120762 112.9082 55.263077 109.50385 54.46875 104.96484 L 34.496094 104.96484 L 34.496094 72.509766 L 41.417969 72.509766 L 41.417969 64.681641 z M 37.787109 75.6875 L 37.787109 101.67383 L 57.644531 101.67383 L 57.644531 103.26172 C 57.644531 106.77945 60.482269 109.61719 64 109.61719 C 67.51773 109.61719 70.355469 106.77945 70.355469 103.26172 L 70.355469 101.67383 L 90.099609 101.67383 L 90.099609 75.6875 L 86.355469 75.6875 L 86.355469 97.929688 L 72.283203 97.929688 C 68.765472 97.929688 65.929688 100.76547 65.929688 104.2832 L 65.929688 104.39648 L 61.957031 104.39648 L 61.957031 104.2832 C 61.957031 100.76547 59.121247 97.929688 55.603516 97.929688 L 41.53125 97.929688 L 41.53125 75.6875 L 37.787109 75.6875 z "
     id="path9" /></svg>