<?xml version="1.0" encoding="utf-8"?>
<!-- Generator: Adobe Illustrator 21.1.0, SVG Export Plug-In . SVG Version: 6.00 Build 0)  -->
<svg version="1.1" id="Calque_1" xmlns="http://www.w3.org/2000/svg" xmlns:xlink="http://www.w3.org/1999/xlink" x="0px" y="0px"
	 viewBox="0 0 290.1 112.8" style="enable-background:new 0 0 290.1 112.8;" xml:space="preserve">
<style type="text/css">
	.st0{fill:#CF0A2C;}
	.st1{fill:#FFFFFF;}
	.st2{fill:#717271;}
</style>
<g>
	<g>
		<path class="st0" d="M112.8,56.4c0,31.1-25.2,56.4-56.4,56.4C25.2,112.8,0,87.5,0,56.4S25.2,0,56.4,0
			C87.5,0,112.8,25.2,112.8,56.4"/>
		<path class="st1" d="M35,22.6h-4.9c-10.1,7.8-16.6,20.1-16.6,33.8c0,11.6,4.7,22.2,12.2,29.9v-4.2c-5.9-7-9.4-15.9-9.4-25.7
			C16.4,42.2,23.8,29.7,35,22.6"/>
		<path class="st1" d="M82.6,22.6h-4.9c11.2,7.1,18.6,19.6,18.6,33.8c0,9.8-3.5,18.7-9.4,25.7v4.2c7.5-7.7,12.2-18.3,12.2-29.9
			C99.1,42.7,92.6,30.5,82.6,22.6"/>
		<path class="st1" d="M56.4,105.2c-26.9,0-48.8-21.9-48.8-48.8c0-26.9,21.9-48.8,48.8-48.8s48.8,21.9,48.8,48.8
			C105.2,83.3,83.3,105.2,56.4,105.2 M56.4,4.1C27.5,4.1,4.1,27.6,4.1,56.4c0,28.8,23.5,52.3,52.3,52.3s52.3-23.5,52.3-52.3
			C108.7,27.6,85.2,4.1,56.4,4.1"/>
		<path class="st1" d="M56.4,16.3c1.7,0,3,1.3,3,3h3.5c0-3.6-2.9-6.5-6.5-6.5c-3.6,0-6.5,2.9-6.5,6.5h3.5
			C53.4,17.7,54.7,16.3,56.4,16.3"/>
		<path class="st1" d="M33.6,55.1c-1.5-1.5-2.4-3.6-2.4-5.7c0-4.5,3.6-8.1,8.1-8.1h0.8v-3.5h-0.8c-6.4,0-11.6,5.2-11.6,11.6
			c0,3.1,1.2,6,3.4,8.2L33.6,55.1z"/>
		<path class="st1" d="M40.2,33.8c0-4.2,3.4-7.6,7.6-7.6h0.3v-3.5h-0.3c-6.1,0-11.1,5-11.1,11.1v0.8h3.5V33.8z"/>
		<path class="st1" d="M73.4,37.8h-0.8v3.5h0.8c4.5,0,8.1,3.6,8.1,8.1c0,2.2-0.8,4.2-2.4,5.7l2.5,2.5c2.2-2.2,3.4-5.1,3.4-8.2
			C85,43,79.8,37.8,73.4,37.8"/>
		<path class="st1" d="M54.6,40v7.6c-2.8-0.3-5.1-1.9-6.5-4.1h-3.9c1.7,4.2,5.7,7.3,10.5,7.6V59c-1.6-1.2-3.5-2-5.6-2h-5.5v3.5H49
			c3.1,0,5.6,2.5,5.6,5.6v4.5h0v10.6h3.5V70.6h0v-4.5c0-3.1,2.5-5.6,5.6-5.6h5.5V57h-5.5c-2.1,0-4.1,0.7-5.6,2v-7.9
			c4.8-0.3,8.8-3.4,10.5-7.6h-3.9c-1.4,2.3-3.8,3.8-6.6,4.1v-7.4h0c0,0,0,0,0,0c0-3.1,2.5-5.6,5.6-5.6h0.9V31h-0.9
			c-2.1,0-4.1,0.7-5.6,2V22.6h-3.5v10.3C53.1,31.7,51.1,31,49,31h-0.9v3.5H49C52,34.5,54.5,37,54.6,40"/>
		<path class="st1" d="M72.6,33.8v0.8h3.5v-0.8c0-6.1-5-11.1-11.1-11.1h-0.3v3.5H65C69.2,26.1,72.6,29.6,72.6,33.8"/>
		<path class="st1" d="M79.4,66.7v22.9H62V91c0,3.1-2.5,5.6-5.6,5.6c-3.1,0-5.6-2.5-5.6-5.6v-1.4H33.3V66.7h3.3v19.6H49
			c3.1,0,5.6,2.5,5.6,5.6c0,0,0,0,0,0.1h0h3.5h0c0,0,0,0,0-0.1c0-3.1,2.5-5.6,5.6-5.6h12.4V66.7H79.4z M76.1,57h-3.5v25.8h-8.9
			c-3,0-5.7,1.5-7.4,3.8c-1.7-2.3-4.4-3.8-7.4-3.8h-8.9V57h-3.5v6.9h-6.1v28.6h17.6c0.7,4,4.1,7,8.3,7c4.2,0,7.6-3,8.3-7h17.6V63.9
			h-6.1V57z"/>
	</g>
	<path class="st2" d="M122.1,29.4v-15h2.4V29c0,3.2,2.5,5.6,6,5.6c3.5,0,6-2.4,6-5.6V14.4h2.4v15c0,4.4-3.5,7.6-8.4,7.6
		C125.6,37,122.1,33.8,122.1,29.4"/>
	<polygon class="st2" points="163.2,14.4 163.2,36.7 160.9,36.7 147.2,18.4 147.2,36.7 144.8,36.7 144.8,14.4 147,14.4 160.8,32.8 
		160.8,14.4 	"/>
	<rect x="169.4" y="14.4" class="st2" width="2.4" height="22.3"/>
	<polygon class="st2" points="194.1,14.4 186,36.7 183.4,36.7 175.3,14.4 177.9,14.4 184.7,33.7 191.5,14.4 	"/>
	<polygon class="st2" points="200,16.7 200,24.4 208.5,24.4 208.5,26.7 200,26.7 200,34.4 209.8,34.4 209.8,36.7 197.6,36.7 
		197.6,14.4 209.8,14.4 209.8,16.7 	"/>
	<path class="st2" d="M223.2,24.4c2.3,0,4-1.5,4-3.8c0-2.2-1.7-3.8-4-3.8h-5.5v7.6H223.2z M231,36.7h-2.7L222,26.7h-4.2v10.1h-2.4
		V14.4h8c3.4,0,6.2,2.7,6.2,6.2c0,3-2.2,5.5-5.2,5.9L231,36.7z"/>
	<path class="st2" d="M233.1,32.5l2.2-1.3c0.8,2,2.6,3.4,5.1,3.4c2.5,0,4.5-1.3,4.5-3.7c0-5.5-10.8-3.8-10.8-10.9
		c0-3.6,2.8-5.9,6.2-5.9c2.6,0,4.7,1.2,5.9,2.8l-1.9,1.6c-0.9-1.3-2.3-2-4-2c-2.1,0-3.9,1.1-3.9,3.3c0,5.3,10.8,3.5,10.8,11
		c0,3.9-3.1,6.2-6.9,6.2C237,37,234.2,35.2,233.1,32.5"/>
	<rect x="251.8" y="14.4" class="st2" width="2.4" height="22.3"/>
	<polygon class="st2" points="272.7,16.8 266.6,16.8 266.6,36.7 264.2,36.7 264.2,16.8 258,16.8 258,14.4 272.7,14.4 	"/>
	<polygon class="st2" points="279,16.7 279,24.4 287.5,24.4 287.5,26.7 279,26.7 279,34.4 288.8,34.4 288.8,36.7 276.6,36.7 
		276.6,14.4 288.8,14.4 288.8,16.7 	"/>
	<path class="st0" d="M133.1,53.3c0-1.4-1.2-2.5-2.7-2.5h-3.8v4.9h3.8C131.9,55.7,133.1,54.8,133.1,53.3 M137.8,53.3
		c0,3.8-2.9,6.5-6.6,6.5h-4.6v9h-4.9V46.5h9.5C134.9,46.5,137.8,49.5,137.8,53.3"/>
	<path class="st0" d="M149.9,60.5l-2.9-8.8l-2.9,8.8H149.9z M151.2,64.6h-8.3l-1.4,4.2h-5.2l8-22.3h5.5l8,22.3h-5.2L151.2,64.6z"/>
	<path class="st0" d="M171,53.5c0-1.5-1.2-2.6-2.7-2.6h-3.8v5.3h3.8C169.8,56.2,171,55.1,171,53.5 M177.4,68.8h-5.5l-5.5-8.6h-2v8.6
		h-4.9V46.5h9.5c3.8,0,6.6,3,6.6,6.8c0,3-1.9,5.5-4.5,6.3L177.4,68.8z"/>
	<rect x="179.6" y="46.5" class="st0" width="4.9" height="22.3"/>
	<path class="st0" d="M187.4,64.1l4-2.5c0.8,1.7,2.4,2.9,4.5,2.9c1.7,0,2.7-0.8,2.7-2c0-3.9-10.3-2.1-10.3-9.7
		c0-4.5,3.6-6.6,7.1-6.6c2.7,0,5.2,1.3,6.9,3.2l-3.3,3.1c-1.1-1.2-2.4-1.9-3.6-1.9c-1.2,0-2.2,0.6-2.2,1.9c0,3.9,10.3,1.8,10.3,10.1
		c0,4.2-3.5,6.6-7.7,6.6C192,69.1,188.9,66.9,187.4,64.1"/>
	<path class="st0" d="M129,96.6c3.5,0,6.3-2.9,6.3-6.8S132.5,83,129,83h-2.4v13.6H129z M121.7,78.6h7.4c6.1,0,11.1,5,11.1,11.1
		c0,6.2-5,11.1-11.1,11.1h-7.4V78.6z"/>
	<polygon class="st0" points="148.8,82.9 148.8,87.6 156.1,87.6 156.1,91.9 148.8,91.9 148.8,96.6 157.3,96.6 157.3,100.9 
		143.9,100.9 143.9,78.6 157.3,78.6 157.3,82.9 	"/>
	<path class="st0" d="M159.4,96.2l4-2.5c0.8,1.7,2.4,2.9,4.5,2.9c1.7,0,2.7-0.8,2.7-2c0-3.9-10.3-2.1-10.3-9.7
		c0-4.5,3.6-6.6,7.1-6.6c2.7,0,5.2,1.3,6.9,3.2l-3.3,3.1c-1.1-1.2-2.4-1.9-3.6-1.9c-1.2,0-2.2,0.6-2.2,1.9c0,3.9,10.3,1.8,10.3,10.1
		c0,4.2-3.5,6.6-7.7,6.6C164,101.2,160.9,99,159.4,96.2"/>
	<path class="st0" d="M177.8,89.8c0-6.3,5.1-11.4,11.4-11.4c4.4,0,8.2,2.5,10.1,6.1l-4.2,2.2c-1.1-2.1-3.3-3.5-5.9-3.5
		c-3.8,0-6.6,2.9-6.6,6.6c0,3.8,2.9,6.6,6.6,6.6c2.6,0,4.8-1.4,5.9-3.5l4.2,2.2c-1.9,3.6-5.7,6.1-10.1,6.1
		C183,101.2,177.8,96.1,177.8,89.8"/>
	<path class="st0" d="M212.9,92.6l-2.9-8.8l-2.9,8.8H212.9z M214.2,96.7h-8.3l-1.4,4.2h-5.2l8-22.3h5.5l8,22.3h-5.2L214.2,96.7z"/>
	<path class="st0" d="M234,85.6c0-1.5-1.2-2.6-2.7-2.6h-3.8v5.3h3.8C232.8,88.2,234,87.2,234,85.6 M240.4,100.9h-5.5l-5.5-8.6h-2
		v8.6h-4.9V78.6h9.5c3.8,0,6.6,3,6.6,6.8c0,3-1.9,5.5-4.5,6.3L240.4,100.9z"/>
	<polygon class="st0" points="256.2,83 250.6,83 250.6,100.9 245.7,100.9 245.7,83 240.1,83 240.1,78.6 256.2,78.6 	"/>
	<polygon class="st0" points="263.3,82.9 263.3,87.6 270.6,87.6 270.6,91.9 263.3,91.9 263.3,96.6 271.8,96.6 271.8,100.9 
		258.4,100.9 258.4,78.6 271.8,78.6 271.8,82.9 	"/>
	<path class="st0" d="M273.9,96.2l4-2.5c0.8,1.7,2.4,2.9,4.5,2.9c1.7,0,2.7-0.8,2.7-2c0-3.9-10.3-2.1-10.3-9.7
		c0-4.5,3.6-6.6,7.1-6.6c2.7,0,5.2,1.3,6.9,3.2l-3.3,3.1c-1.1-1.2-2.4-1.9-3.6-1.9c-1.2,0-2.2,0.6-2.2,1.9c0,3.9,10.3,1.8,10.3,10.1
		c0,4.2-3.5,6.6-7.7,6.6C278.5,101.2,275.3,99,273.9,96.2"/>
	<polygon class="st2" points="283.3,13.2 281.3,13.2 283.2,9.8 285.8,9.8 	"/>
</g>
</svg>
