<svg xmlns:inkscape="http://www.inkscape.org/namespaces/inkscape" xmlns:rdf="http://www.w3.org/1999/02/22-rdf-syntax-ns#" xmlns="http://www.w3.org/2000/svg" sodipodi:docname="CRI-logo-sq-textless.svg" xml:space="preserve" viewBox="0 0 360 360" version="1.1" xmlns:cc="http://creativecommons.org/ns#" xmlns:dc="http://purl.org/dc/elements/1.1/" inkscape:version="0.91 r13725" xmlns:sodipodi="http://sodipodi.sourceforge.net/DTD/sodipodi-0.dtd"><sodipodi:namedview fit-margin-left="0" inkscape:zoom="1.7680328" borderopacity="1" inkscape:current-layer="g4391" inkscape:cx="177.57141" inkscape:cy="155.10742" inkscape:window-maximized="1" showgrid="false" fit-margin-right="0" bordercolor="#666666" inkscape:window-x="65" guidetolerance="10" objecttolerance="10" inkscape:window-y="24" fit-margin-bottom="0" inkscape:window-width="1855" inkscape:pageopacity="0" inkscape:pageshadow="2" pagecolor="#ffffff" gridtolerance="10" inkscape:window-height="1056" fit-margin-top="0"/><g inkscape:label="ink_ext_XXXXXX" inkscape:groupmode="layer" transform="matrix(1.25 0 0 -1.25 -53.92 420.3)"><g transform="translate(1.497)"><rect fill-rule="evenodd" transform="scale(1,-1)" height="16" width="32" y="-31.86" x="41.64" fill="#62b55a"/><text style="word-spacing:0px;letter-spacing:0px" line-height="125%" xml:space="preserve" transform="scale(1,-1)" font-size="90px" y="-20.352173" x="85.06105" font-family="sans-serif" sodipodi:linespacing="125%" fill="#000000"><tspan sodipodi:role="line" font-size="16px" y="-20.352173" x="85.06105">#62b55a</tspan></text>
</g><g><g fill="#62b55a"><path d="m297 308.7c1.233 0.534 2.528 0.959 3.78 1.371 1.603 0.526 3.261 1.07 4.775 1.846 3.992 2.044 6.336 7.301 7.084 12.66-0.736 0.711-1.531 1.563-2.375 2.378-1.092-2.026-2.314-4-3.895-5.715-2.642-2.866-5.957-4.473-9.148-4.428-0.84 0.014-1.689 0.141-2.512 0.262-1.574 0.234-3.062 0.454-4.457-0.055-0.636-0.233-1.185-0.592-1.664-1.047 0.112-1.357 0.395-2.713 0.801-3.992 0.715-2.265 1.574-4.634 2.557-6.959 1.474 1.886 3.634 3.063 5.054 3.68" inkscape:connector-curvature="0"/><path d="m290 317.6c1.548 0.566 3.191 0.323 4.777 0.087 0.801-0.119 1.629-0.241 2.426-0.254l0.142-0.002c2.942 0 6.037 1.532 8.514 4.219 1.572 1.705 2.789 3.692 3.881 5.734-1.006 0.917-2.074 1.72-3.192 2.075-2.849 0.907-5.857-0.954-8.533-1.691-2.84-0.783-5.709-1.883-7.572-4.288-1.478-1.908-2.004-4.304-1.93-6.744 0.444 0.353 0.926 0.658 1.487 0.864" inkscape:connector-curvature="0"/><path d="m306.7 305.2c1.17 0.748 2.381 1.523 3.529 2.307 1.836 1.255 3.694 2.682 4.84 4.613 1.035 1.744 1.436 3.818 1.822 5.823 0.125 0.65 0.25 1.3 0.397 1.941-1.303 1.449-2.703 2.812-4.098 4.117-0.849-5.385-3.289-10.61-7.361-12.69-1.561-0.799-3.242-1.352-4.871-1.886-1.237-0.406-2.516-0.827-3.723-1.35-1.426-0.619-3.642-1.827-5.021-3.777 1.111-2.551 2.384-5.026 3.812-7.223l0.172-0.249c2.799 3.44 6.699 5.943 10.5 8.376" inkscape:connector-curvature="0"/><path d="m302.3 291.7c0.91 1.853 1.858 3.173 2.985 4.156 1.261 1.101 2.8 1.805 4.289 2.486 0.398 0.182 0.797 0.365 1.189 0.554 4.985 2.407 9.301 6.241 12.33 10.88-0.033 0.142-0.052 0.281-0.09 0.424-0.89 3.455-2.826 6.436-5.14 9.118-0.102-0.482-0.201-0.964-0.295-1.449-0.399-2.06-0.809-4.191-1.902-6.034-1.211-2.04-3.137-3.521-5.036-4.819-1.156-0.789-2.371-1.566-3.545-2.318-3.808-2.437-7.722-4.944-10.46-8.381 1.591-2.237 3.433-3.977 5.464-5.102 0.075 0.16 0.135 0.327 0.213 0.485" inkscape:connector-curvature="0"/><path d="m311 298.3c-0.396-0.192-0.8-0.377-1.203-0.561-1.445-0.661-2.939-1.345-4.131-2.384-1.056-0.923-1.955-2.178-2.826-3.951-0.078-0.159-0.138-0.327-0.215-0.488 3.731-1.821 8.037-1.651 12.52 1.134 0.428 0.266 0.851 0.541 1.266 0.829 1.677 1.161 3.224 2.514 4.46 4.182 2.329 3.141 3.17 7.38 2.366 11.78-3.073-4.486-7.346-8.185-12.24-10.55" inkscape:connector-curvature="0"/></g><g fill="#62b55a"><path d="m286.3 211.3c1.799-3.944 3.818-8.062 6.979-11.26 3.08-3.114 7.4-5.313 12.84-6.534 5.134-1.152 11.63-1.448 16.48-0.79-2.316 6.025-4.549 12.07-7.109 18.02-0.293-0.023-0.586-0.046-0.875-0.062-8.797-0.495-15.86 2.007-21.02 7.449-1.365 1.442-2.697 3.065-4.108 4.784-3.246 3.96-6.589 8.034-10.73 10.36-3.326 0.07-6.66-0.081-9.943-0.504 8.875-4.587 13.98-13.79 17.48-21.46" inkscape:connector-curvature="0"/><path d="m290 223.4c1.401-1.709 2.725-3.323 4.076-4.749 5.137-5.422 12.23-7.843 21.14-7.197l-0.043 0.1c-1.297 2.97-2.67 5.956-4.435 8.658-0.026-0.107-0.047-0.215-0.1-0.317-0.566-1.079-2.527-1.414-3.766-1.484-0.302-0.017-0.562-0.018-0.748-0.01-2.808 0.113-5.529 0.985-7.869 2.521-2.512 1.649-4.213 4.083-5.855 6.437-1.295 1.851-2.631 3.747-4.354 5.239-0.892 0.126-1.783 0.237-2.672 0.328-1.746 0.18-3.508 0.301-5.273 0.37 3.773-2.435 6.879-6.213 9.898-9.896" inkscape:connector-curvature="0"/><path d="m317.4 168.9c-15.6 1.909-33.28 4.074-36.96 16.4-0.86 2.585-1.635 5.523-2.457 8.633-2.729 10.33-5.823 22.03-13.76 28.03-3.479 2.811-7.442 4.531-11.41 6.014-0.108-0.056-0.219-0.104-0.325-0.161-3.521-1.852-6.716-4.198-9.613-6.881 4.914-1.925 9.764-4.968 14.44-9.083l0.524-0.46c3.363-2.954 6.537-5.744 8.889-9.57 2.318-3.775 4.05-8.219 5.295-13.59 0.714-3.083 1.236-6.256 1.742-9.325 0.668-4.071 1.359-8.283 2.511-12.3 1.641-5.743 5.038-13.5 11.88-17.87 3.203-2.038 7.215-3.381 12.63-4.225 1.764-0.273 3.568-0.486 5.315-0.692 2.712-0.32 5.517-0.65 8.242-1.22 2.537-0.531 4.758-1.209 6.678-2.041 1.234 3.504 2.445 7.015 3.591 10.55 1.723 5.304 3.323 10.71 3.942 16.23-3.426 0.609-7.213 1.074-11.16 1.559" inkscape:connector-curvature="0"/><path d="m293 227.7c1.609-2.303 3.271-4.683 5.678-6.264 2.242-1.47 4.847-2.305 7.537-2.414 1.127-0.045 3.431 0.241 3.906 1.144 0.187 0.359 0.06 0.833-0.375 1.41l0.053 0.041c-0.62 0.834-1.278 1.638-2.004 2.389-4.809 4.964-11.62 7.277-18.53 8.384 1.434-1.414 2.602-3.068 3.735-4.69" inkscape:connector-curvature="0"/><path d="m319.8 191.8c-4.433-0.249-9.594 0.135-13.82 1.085-5.564 1.249-9.992 3.507-13.16 6.712-3.237 3.272-5.287 7.449-7.112 11.45-3.56 7.813-8.826 17.23-18.06 21.56-4.863-0.73-9.598-2.083-14.01-4.236 3.824-1.453 7.629-3.166 11.01-5.895 8.105-6.127 11.23-17.95 13.99-28.38 0.819-3.099 1.594-6.026 2.452-8.602 3.55-11.92 21.01-14.06 36.41-15.94 3.951-0.484 7.738-0.95 11.15-1.557 0.07 0.72 0.129 1.44 0.164 2.164 0.014 0.291 0.016 0.573 0.02 0.858-0.11 2.223-0.327 4.455-0.778 6.744-0.058 0.293-0.123 0.585-0.183 0.878-0.942 3.556-2.442 6.889-3.924 10.66-0.369 0.936-0.733 1.874-1.094 2.813-0.963-0.136-1.975-0.242-3.045-0.303" inkscape:connector-curvature="0"/><path d="m243.5 167.8c4.022 6.057 8.58 12.92 2.739 19.22-5.11 5.507-13.04 7.983-19.71 9.476-1.453-2.909-2.996-5.768-4.864-8.449 4.45-0.754 9.053-1.937 11.14-6.159 2.963-7.475-0.125-14.63-3.111-21.55-1.553-3.594-3.157-7.309-3.873-11-0.875-4.294-1.549-10.46 2.669-14.42 1.29-1.143 2.622-2.271 4.034-3.467 8.73-7.393 18.6-15.76 17.75-28.47 4.248-1.033 8.527-2.002 12.8-2.83-1.142 9.735-3.285 19.6-10.46 26.53-1.323 1.274-2.77 2.514-4.17 3.715-4.614 3.951-9.383 8.039-10.92 14.33-1.658 6.798 0.201 14.33 5.533 22.39l0.443 0.667" inkscape:connector-curvature="0"/><path d="m217 129.1c-0.486 0.848-0.976 1.704-1.465 2.577-2.353 4.209-3.464 9.081-3.214 14.09 0.087 1.744 0.318 3.512 0.541 5.22 0.384 2.96 0.785 6.021 0.439 9.023-0.484 4.224-2.725 7.827-6.834 10.99-1.592-2.124-2.957-4.399-3.91-6.95-2.945-7.884-1.207-16.69 1.053-24.79 1.875-6.731 4.175-13.53 8.572-18.97 3.142-3.882 7.168-6.83 11.62-9.108-0.518 6.924-3.576 12.28-6.799 17.92" inkscape:connector-curvature="0"/><path d="m314.3 142c-2.695 0.566-5.486 0.893-8.184 1.211-1.752 0.206-3.564 0.42-5.337 0.697-5.506 0.857-9.598 2.229-12.88 4.318-7.022 4.473-10.49 12.39-12.16 18.24-1.161 4.061-1.856 8.29-2.53 12.38-0.502 3.058-1.021 6.22-1.732 9.281-1.227 5.298-2.934 9.678-5.215 13.39-2.299 3.743-5.439 6.501-8.762 9.421l-0.525 0.462c-4.711 4.146-9.598 7.185-14.54 9.074-1.848-1.76-3.567-3.661-5.164-5.659 0.42-0.17 0.849-0.32 1.275-0.459 0.692-0.226 1.346-0.439 1.906-0.762 10.54-6.451 19.54-16.58 24.69-27.8 2.023-5.617 1.396-11.74 0.791-17.65-0.528-5.137-1.072-10.45 0.195-15.2 2.002-6.863 11.04-14.58 19.01-21.38 3.812-3.253 7.412-6.326 9.666-8.864 4.824-5.434 6.582-12.13 6.939-18.95 1.422 0.9668 2.768 2.054 3.993 3.308 3.724 3.814 6.105 8.646 8.095 13.64 0.655 1.643 1.266 3.303 1.871 4.948 1.754 4.777 3.498 9.557 5.196 14.35-1.887 0.822-4.08 1.494-6.596 2.02" inkscape:connector-curvature="0"/><path d="m294.3 122.2c-2.225 2.504-5.807 5.563-9.6 8.8-8.043 6.865-17.16 14.65-19.22 21.7-1.299 4.879-0.748 10.25-0.216 15.45 0.601 5.846 1.22 11.89-0.743 17.34-5.093 11.08-14 21.11-24.42 27.49-0.494 0.284-1.115 0.487-1.773 0.702-0.484 0.157-0.996 0.333-1.5 0.55-0.955-1.221-1.867-2.476-2.734-3.757-1.823-2.692-3.328-5.552-4.764-8.447 11.96 0.224 18.35-4.403 21.84-15.69 3.072-9.234 2.164-20.81 1.361-31.02-0.168-2.138-0.326-4.16-0.439-6.069-0.17-2.855 1.041-6.196 3.695-10.21 1.076-1.207 2.205-2.453 3.338-3.704 9.924-10.97 20.17-22.3 19.84-37.33 7.795-0.2469 15.78 1.186 22.13 5.246-0.307 6.84-1.994 13.55-6.791 18.96" inkscape:connector-curvature="0"/><path d="m258.6 134.9c-1.135 1.253-2.264 2.5-3.369 3.747-2.766 4.174-4.01 7.645-3.833 10.65 0.114 1.916 0.274 3.94 0.44 6.081 0.799 10.15 1.701 21.66-1.332 30.77-3.416 11.06-9.715 15.53-21.54 15.23-0.705-1.436-1.4-2.877-2.109-4.31 6.732-1.518 14.7-4.043 19.89-9.636 6.191-6.676 1.277-14.08-2.674-20.03l-0.441-0.667c-5.227-7.902-7.057-15.26-5.442-21.88 1.487-6.09 6.176-10.11 10.71-13.99 1.409-1.206 2.864-2.454 4.198-3.742 7.377-7.119 9.535-17.21 10.68-27.13 3.51-0.668 7.01-1.243 10.48-1.643 1.322-0.1531 2.662-0.2578 4.008-0.3168 0.324 14.77-9.832 26-19.67 36.87" inkscape:connector-curvature="0"/><path d="m213.9 160.1c0.354-3.081-0.05-6.183-0.443-9.182-0.221-1.696-0.449-3.45-0.535-5.166-0.244-4.889 0.84-9.64 3.133-13.74 0.486-0.87 0.974-1.725 1.461-2.572 3.322-5.805 6.468-11.32 6.908-18.57 3.16-1.557 6.515-2.792 9.914-3.788-0.877 6.3-4.588 11.1-8.518 16.16-2.33 3.003-4.74 6.108-6.646 9.659-3.936 7.08-1.631 13.76 0.81 20.82 0.455 1.316 0.926 2.678 1.354 4.043 1.797 8.359-1.69 16.42-8.553 20.37-2.103-2.116-4.176-4.261-5.98-6.587 4.261-3.279 6.588-7.031 7.095-11.44" inkscape:connector-curvature="0"/><path d="m232.1 130.9c-1.414 1.197-2.75 2.328-4.051 3.482-4.465 4.193-3.775 10.58-2.869 15.03 0.728 3.754 2.346 7.503 3.91 11.13 2.936 6.796 5.969 13.82 3.117 21.02-1.998 4.03-6.429 5.083-10.97 5.831-0.475-0.658-0.965-1.309-1.489-1.942-1.992-2.412-4.261-4.654-6.515-6.917 7.011-4.121 10.56-12.41 8.709-21.02-0.438-1.403-0.91-2.769-1.366-4.088-2.392-6.927-4.652-13.47-0.855-20.3 1.881-3.506 4.275-6.589 6.588-9.572 4.043-5.207 7.859-10.14 8.685-16.75 0.871-0.247 1.745-0.485 2.616-0.703 3.947-0.9891 7.968-2.018 12.02-3.008 0.758 12.31-8.945 20.54-17.53 27.81" inkscape:connector-curvature="0"/></g><g fill="#62b55a"><path d="m82.1 297.5c8.805-4.81 18.15-8.669 27.79-11.47 0.1-0.03 0.19-0.047 0.289-0.073-0.055 0.139-0.111 0.278-0.166 0.418-1.494 3.853-2.965 7.717-5.012 11.3-8.625 2.238-16.61 6.962-22.58 13.57-2.938-0.731-5.402-2.471-7.844-4.486-0.8633-0.714-1.703-1.457-2.535-2.21 2.918-2.924 6.524-5.121 10.06-7.054" inkscape:connector-curvature="0"/><path d="m66.38 281.2c3.957-1.65 8.146-2.893 12.2-4.093 2.459-0.729 5-1.482 7.471-2.32 11.68-3.962 22.7-10.18 32.18-18.12 0.139 0.319 0.264 0.645 0.367 0.982 0.897 2.9 0.258 6.059-0.797 8.907-1.187 3.212-2.443 6.405-3.711 9.594-19.02 0.833-37.82 8.035-52.53 20.12-2.848-1.693-5.812-3.214-8.316-5.37-0.1758-0.151-0.3399-0.308-0.5079-0.462 3.227-3.697 7.797-6.797 13.65-9.24" inkscape:connector-curvature="0"/><path d="m113.8 276.8c-1.121 2.813-2.244 5.624-3.348 8.442-0.254 0.066-0.506 0.125-0.769 0.202-9.68 2.814-19.07 6.691-27.92 11.52-3.594 1.963-7.256 4.196-10.23 7.188-2.361-2.154-4.682-4.36-7.312-6.189-0.6816-0.473-1.383-0.913-2.092-1.345 14.5-11.85 32.97-18.94 51.68-19.82" inkscape:connector-curvature="0"/><path d="m104.5 298.5c-0.339 0.563-0.693 1.119-1.068 1.665-2.471 3.613-5.633 6.803-9.437 8.972-2.381 1.359-5.037 2.312-7.766 2.476-0.2519 0.015-0.5059 0.024-0.7578 0.026-0.8242 0.004-1.609-0.069-2.361-0.209 5.709-6.211 13.25-10.69 21.39-12.93" inkscape:connector-curvature="0"/><path d="m85.84 274.1c-2.457 0.834-4.992 1.585-7.445 2.312-4.07 1.206-8.277 2.452-12.27 4.116-5.938 2.478-10.58 5.631-13.88 9.396-3.02-2.962-4.906-6.654-5.918-10.66 4.086-4.607 10.06-8.326 18.13-11.28 3.334-1.221 6.801-2.26 10.15-3.265 5.148-1.543 10.47-3.137 15.44-5.429 4.723-2.179 12.45-6.708 16.61-14.26 2.448 1.609 4.653 3.579 6.787 5.593 1.7 1.603 3.407 3.323 4.465 5.374-9.439 7.934-20.44 14.15-32.09 18.11" inkscape:connector-curvature="0"/><path d="m89.79 258.7c-4.928 2.272-10.23 3.861-15.35 5.397-3.363 1.007-6.84 2.049-10.19 3.277-7.975 2.922-13.95 6.586-18.09 11.12-1.213-5.448-0.8633-11.4 0.418-16.84 4.209-2.91 9.379-3.888 14.82-4.912 5.27-0.992 10.72-2.019 15.17-4.993 2.348-1.569 4.291-3.598 6.023-5.774 3.725-0.945 7.059-3.146 10.81-4.053 4.039-0.976 8.197 0.157 11.75 2.16 0.336 0.19 0.666 0.391 0.992 0.595-4.07 7.419-11.68 11.88-16.33 14.02" inkscape:connector-curvature="0"/><path d="m76.19 251.2c-4.338 2.9-9.721 3.913-14.93 4.893-5.035 0.949-10.21 1.931-14.47 4.629 0.3379-1.304 0.7227-2.575 1.156-3.795 1.129-3.182 2.725-6.317 4.205-9.363 2.369-0.037 4.762-0.169 7.109-0.613 3.494-0.659 6.484-1.991 8.723-3.856 4.082 1.723 8.074 3.771 12.67 3.239 0.295-0.035 0.5899-0.08 0.8789-0.133-1.564 1.887-3.301 3.63-5.35 4.999" inkscape:connector-curvature="0"/><path d="m59.15 246.3c-2.186 0.413-4.424 0.551-6.648 0.596 1.103-2.109 2.603-4.092 4.756-5.067 2.358-1.067 5.123-0.753 7.58 0.051 0.8359 0.273 1.658 0.592 2.478 0.927-2.121 1.68-4.92 2.88-8.166 3.493" inkscape:connector-curvature="0"/></g><g fill="#62b55a"><path d="m169.6 259.7c-1.668-4.986-4.005-9.801-6.267-14.46-2.735-5.629-5.561-11.45-7.19-17.57-1.859-6.982-2.689-12.57-2.613-17.59l-0.094-0.001c1.795-3.023 3.327-6.28 5.094-9.354-0.183 11.62 5.33 22.11 10.68 32.26 1.597 3.029 3.248 6.16 4.724 9.275 8.723 19.03 9.35 38.97 1.739 54.76-3.17-0.223-6.338-0.399-9.506-0.598 6.037-13.52 7.164-25.55 3.429-36.72" inkscape:connector-curvature="0"/><path d="m141.1 268.1c-0.631-1.576-1.336-3.134-2.02-4.64-2.517-5.559-4.896-10.81-3.775-16.97 0.713-3.914 1.797-7.736 2.848-11.43 1.006-3.551 2.033-7.222 2.775-11.05 1.227-1.188 2.477-2.353 3.711-3.53-0.322 2.229-0.701 4.489-1.098 6.835-1.881 11.1-3.828 22.57 0.584 33.05 4.078 10.19 9.098 22.77 8.787 34.84-2.994-0.4-5.961-1.008-8.685-2.259 0.711-8.345-0.522-18.33-3.127-24.84" inkscape:connector-curvature="0"/><path d="m132.1 238.6c-2.203 8.247-3.832 17.19-0.875 26.68 0.789 2.534 1.861 5.074 2.899 7.53 2.156 5.106 4.375 10.38 4.228 15.96-3.291-3.301-5.697-7.611-7.562-11.94-3.78-8.777-5.977-18.53-4.266-27.93 1.158-6.352 4.064-12.2 7.842-17.4-0.848 2.26-1.608 4.629-2.266 7.101" inkscape:connector-curvature="0"/><path d="m201 281c1.721-2.653 3.346-5.159 4.768-7.667 8.193-14.44-3.418-27.88-12.75-38.68-0.983-1.138-1.943-2.249-2.854-3.33-0.953-1.132-1.959-2.301-2.992-3.503-9.068-10.54-20.3-23.61-18.43-37.68 2.826-1.452 5.957-2.288 9.179-2.776-0.045 2.875 0.268 5.492 1.326 8.141 5.86 9.921 12.96 18 20.47 26.55 4.555 5.185 9.266 10.55 13.72 16.39 8.82 11.58 3.23 23.56-2.176 35.16-1.662 3.564-3.23 6.93-4.41 10.3-0.605 1.816-0.719 3.139-0.803 4.701-4.199 2.948-8.543 5.746-13.35 7.506l-0.153 0.051c2.006-5.189 5.274-10.26 8.457-15.17" inkscape:connector-curvature="0"/><path d="m202.6 207.4c3.132 4.509 7.142 8.363 11.02 12.09 4.449 4.276 9.051 8.698 12.3 14.1 3.65 6.077 4.793 12.47 3.4 19-0.519 2.434-1.189 4.814-1.838 7.117-1.384 4.924-2.687 9.587-2.707 14.86-5.847 4.499-11.7 8.992-17.72 13.27-0.114 0.08-0.227 0.16-0.34 0.24 0.084-1.298 0.226-2.476 0.736-4.007 1.168-3.335 2.731-6.687 4.385-10.24 5.488-11.77 11.16-23.94 2.103-35.84-4.466-5.863-9.185-11.23-13.75-16.42-7.492-8.527-14.57-16.58-20.38-26.4-1.015-2.549-1.308-5.108-1.256-7.943 2.434-0.333 4.911-0.486 7.336-0.563 3.362-0.108 6.77-0.098 10.1 0.315-0.271 6.663 2.035 13.84 6.604 20.42" inkscape:connector-curvature="0"/><path d="m238 261.3c-2.144 3.99-5.455 7.147-8.994 10.03-1.166 0.948-2.355 1.867-3.535 2.775l-0.012 0.009c0.098-4.979 1.342-9.456 2.67-14.17 0.651-2.313 1.325-4.704 1.85-7.159 1.428-6.696 0.258-13.25-3.481-19.47-3.291-5.479-7.923-9.932-12.4-14.24-3.855-3.705-7.84-7.535-10.94-11.99-4.475-6.441-6.741-13.46-6.491-19.96 2.329 0.328 4.612 0.863 6.803 1.728 7.817 3.09 13.55 9.917 17.94 17.08 5.445 8.888 11.38 18.21 15.61 27.7 3.893 8.734 5.508 19.25 0.98 27.67" inkscape:connector-curvature="0"/><path d="m137.6 234.9c-1.053 3.711-2.143 7.548-2.86 11.49-1.158 6.366 1.262 11.71 3.823 17.36 0.679 1.501 1.383 3.052 2.008 4.614 2.546 6.367 3.761 16.11 3.103 24.31-1.725-0.87-3.268-1.995-4.662-3.295 0.33-5.944-1.996-11.47-4.254-16.82-1.031-2.442-2.096-4.966-2.877-7.469-2.908-9.333-1.295-18.16 0.883-26.31 0.867-3.249 1.902-6.324 3.092-9.193l0.049-0.061c1.32-1.662 2.771-3.198 4.271-4.683-0.721 3.467-1.654 6.814-2.576 10.06" inkscape:connector-curvature="0"/><path d="m179 231c3.741 4.999 7.61 10.17 10.96 15.67 4.149 6.912 5.797 14.69 5.039 23.78-1.326 9.946-7.951 19.08-14.4 26.97-1.361-0.094-2.752-0.218-4.203-0.326 7.578-15.93 6.924-35.97-1.84-55.09-1.482-3.131-3.139-6.269-4.74-9.304-5.412-10.26-11.01-20.87-10.6-32.59 0.006-0.156 0.016-0.335 0.024-0.514 0.422-0.691 0.857-1.37 1.316-2.031l0.035 0.148c3.123 12.85 10.55 22.78 18.42 33.29" inkscape:connector-curvature="0"/><path d="m205.2 273c-1.414 2.491-3.034 4.989-4.75 7.634-3.305 5.099-6.698 10.36-8.707 15.79-3.604 1.147-6.875 1.217-10.3 1.016 6.412-7.878 12.92-16.98 14.25-26.95 0.769-9.244-0.908-17.15-5.131-24.19-3.363-5.525-7.242-10.71-10.99-15.72-7.824-10.46-15.22-20.33-18.3-33.05l-0.143-0.729c1.266-1.72 2.702-3.305 4.432-4.652 0.789-0.614 1.619-1.152 2.477-1.634-1.608 14.17 9.593 27.2 18.65 37.72 1.033 1.2 2.037 2.367 2.988 3.498 0.913 1.084 1.875 2.196 2.86 3.337 9.193 10.64 20.64 23.89 12.67 37.92" inkscape:connector-curvature="0"/><path d="m165.5 296.4c-1.499-0.096-2.999-0.201-4.499-0.317 2.745-15.84-2.802-31-8.23-43.9-3.783-10.09-4.336-26.36-1.6-38.65 0.467-0.614 0.92-1.241 1.344-1.896 0.135-0.207 0.264-0.42 0.395-0.63 0.029 4.846 0.863 10.23 2.627 16.86 1.646 6.18 4.486 12.03 7.234 17.68 2.252 4.638 4.582 9.434 6.234 14.38 3.702 11.07 2.547 23.02-3.505 36.47" inkscape:connector-curvature="0"/><path d="m155.7 295.6c-0.691-0.074-1.383-0.156-2.074-0.242 0.332-12.22-4.727-24.9-8.834-35.18-4.342-10.31-2.412-21.69-0.545-32.69 0.428-2.535 0.865-5.129 1.219-7.682 1.691-1.632 3.328-3.313 4.82-5.134-2.449 12.24-1.811 27.9 1.885 37.75 5.404 12.84 10.94 27.84 8.199 43.53h0.002l-0.016 0.08c-1.553-0.125-3.105-0.266-4.656-0.434" inkscape:connector-curvature="0"/></g><path d="m174.7 215.9-0.002-69.83v-17.2c0-3.709 3.006-6.716 6.717-6.716 3.12 0 5.737 2.131 6.243 3.771 0.5058 1.641 0.6099 2.339 0.6099 3.082v34.13c0 0.73 0.2254 1.323 0.6844 1.781 0.455 0.456 1.05 0.6859 1.783 0.6859h9.045c2.557 0 4.843-0.8697 6.855-2.605 1.918-1.644 3.104-3.793 3.562-6.442 0.275-2.011 0.6379-4.592 1.097-7.744 0.457-3.153 0.8911-6.26 1.303-9.322 0.41-3.062 0.7759-5.711 1.097-7.95 0.318-2.24 0.4797-3.406 0.4797-3.495 0.274-1.737 1.049-3.154 2.33-4.25 1.279-1.097 2.74-1.644 4.388-1.644 0.455 0 0.7754 0.045 0.9594 0.136 1.826 0.275 3.31 1.165 4.455 2.673 1.141 1.508 1.575 3.174 1.3 5.003l-0.4094 3.153c-0.276 1.46-0.5726 3.31-0.8906 5.55-0.322 2.239-0.641 4.57-0.961 6.992-0.32 2.421-0.6394 4.75-0.9594 6.991-0.32 2.238-0.6166 4.18-0.8906 5.825-0.548 4.02-2.104 7.721-4.661 11.1-0.367 0.455-0.5029 1.004-0.4109 1.645 0.09 0.638 0.3649 1.186 0.8219 1.644 0.823 0.731 1.62 1.553 2.4 2.467 0.775 0.912 1.482 1.873 2.123 2.88 3.291 4.66 4.934 9.958 4.934 15.9 0 1.918-0.1819 3.79-0.5469 5.619-0.368 1.827-0.9153 3.654-1.645 5.483-2.193 5.117-5.667 9.275-10.42 12.48-4.752 3.197-10.05 4.797-15.9 4.797l-20.29 0.00078c-3.458-0.6509-5.206-2.734-5.206-6.584zm16.04-6.851h9.456c2.009 0 3.975-0.4108 5.895-1.233 2.651-1.097 4.842-2.878 6.58-5.345 1.645-2.652 2.467-5.438 2.467-8.361 0-1.92-0.3679-3.885-1.097-5.894-1.097-2.741-2.927-4.936-5.484-6.58-2.467-1.647-5.256-2.467-8.361-2.467h-9.456c-0.733 0-1.328 0.2264-1.783 0.6844-0.459 0.457-0.6844 1.006-0.6844 1.644v25.09c0 0.73 0.2254 1.322 0.6844 1.781 0.455 0.456 1.05 0.6844 1.783 0.6844z" sodipodi:nodetypes="ccsscsscsscccccccscccccccccccccscccsccssccsccsscsscs" inkscape:connector-curvature="0" fill="#231f20"/><path d="m257.7 128.9c0-3.709-3.008-6.716-6.717-6.716-3.711 0-6.717 3.007-6.717 6.716v86.9c0 3.71 3.006 6.717 6.717 6.717 3.709 0 6.717-3.007 6.717-6.717v-86.9" inkscape:connector-curvature="0" fill="#231f20"/><g fill="#62b55a"><path d="m78.92 224.2c4.389-0.387 8.533-0.752 13.09-2.124 4.133-1.241 8.834-2.84 12.34-6.119 4.183-3.915 5.994-9.689 6.992-13.69 1.51-6.052 2.223-12.28 2.117-18.52-0.193-11.48-3.17-22.79-6.051-33.72-2.181-8.287-4.435-16.86-5.472-25.45-2.713-22.56 2.873-44.99 10.02-65.02 5.717-2.435 11.93-4.063 18.01-4.591-10.02 22.06-12.84 47.36-7.666 71.06 0.898 4.121 2.049 8.271 3.162 12.28 2.389 8.612 4.856 17.52 4.947 26.55 0.057 5.616-0.826 11.28-1.697 16.09-1.713 9.447-4.017 18.89-6.851 28.07-1.727 5.595-3.965 11.9-8.702 15.92-2.81 2.382-6.33 3.808-9.714 4.994-4.375 1.533-8.875 2.788-13.42 3.773-3.772-0.484-7.512-1.603-11.19-3.598-2.728-1.481-5.039-3.203-7.01-5.121 2.457-0.359 4.809-0.57 7.084-0.771" inkscape:connector-curvature="0"/><path d="m93.09 119.4c3.582 15.51 7.285 31.55 9.83 48.09 1.092 6.547-0.021 13.23-1.099 19.69-5.764 16.13-18.93 29.05-33.79 33.29-0.6524-0.94-1.254-1.909-1.805-2.906 7.051-8.185 22.7-28.34 22.06-45.23-0.3222-8.423-1.529-16.89-2.697-25.07-1.396-9.766-2.838-19.87-2.766-29.92 0.0352-5.167 0.3203-10.42 0.5996-15.49 0.1602-2.942 0.3184-5.947 0.4356-8.958 0.7246-1.983 1.426-3.983 2.162-5.965 2.121 10.96 4.629 21.89 7.076 32.48" inkscape:connector-curvature="0"/><path d="m101.3 124.6c1.039 8.642 3.301 17.23 5.489 25.54 2.869 10.9 5.836 22.16 6.027 33.57 0.103 6.182-0.602 12.36-2.098 18.35-0.976 3.921-2.746 9.573-6.804 13.37-3.401 3.181-8.018 4.75-12.08 5.97-4.496 1.352-8.607 1.715-12.96 2.099-2.402 0.212-4.889 0.431-7.506 0.829l-0.0898 0.014c-1.043-1.071-1.988-2.199-2.844-3.378 14.97-4.36 28.21-17.39 34.03-33.69 1.099-6.569 2.222-13.3 1.113-19.96-2.547-16.56-6.254-32.61-9.838-48.13-2.521-10.92-5.119-22.2-7.277-33.49 1.697-4.446 3.644-8.759 6.541-12.51 4.133-5.346 10.68-10.01 18.15-13.33-7.08 19.96-12.55 42.27-9.85 64.74" inkscape:connector-curvature="0"/><path d="m57.02 139.7c1.258-1.825 2.596-3.617 3.918-5.368 0.9785 14.89-0.6133 29.98-4.621 44.37-1.047-4.336-2.242-8.636-3.588-12.89-0.2343-0.742-0.4726-1.489-0.7031-2.241 3.412-7.433 5.139-15.7 4.994-23.87" inkscape:connector-curvature="0"/><path d="m82.76 101.8c-0.2773 5.084-0.5664 10.34-0.6015 15.52-0.0703 10.1 1.375 20.23 2.773 30.02 1.164 8.167 2.371 16.61 2.69 25 0.6289 16.54-14.65 36.34-21.73 44.59-1.354-2.558-2.422-5.282-3.293-8.121 3.492-9.582 7.004-19.8 8.586-30.32 0.8848-5.883 1.174-11.9 1.453-17.73l2.314-48.32c3.08-5.687 5.865-11.53 8.164-17.58l0.0019-0.0059c-0.1055 2.335-0.2305 4.658-0.3555 6.944" inkscape:connector-curvature="0"/><path d="m71.98 160.7c-0.2774 5.808-0.5645 11.81-1.445 17.66-1.527 10.16-4.871 20.05-8.252 29.36-1.33-4.6-2.203-9.47-3.029-14.38 7.006-21.47 9.44-44.18 7.199-66.6 0.1016-0.158 0.2129-0.319 0.3125-0.477 2.608-4.1 5.115-8.276 7.465-12.53l-2.25 46.97" inkscape:connector-curvature="0"/><path d="m65.88 127.6c2.055 21.65-0.2617 43.57-6.863 64.34-0.6719-3.998-1.477-7.973-2.4-11.92 4.334-15.04 6.023-30.87 4.91-46.47 1.549-2.044 3.051-4.032 4.354-5.95" inkscape:connector-curvature="0"/><path d="m51.73 162.6c-0.8535-2.911-1.49-5.877-1.094-8.856 0.5918-4.481 2.906-8.876 5.736-13.1 0 7.52-1.604 15.08-4.643 21.96" inkscape:connector-curvature="0"/><path d="m169.7 89.89c-2.06 3.674-3.572 7.601-4.826 11.27-7.162 20.94-9.828 43.33-7.857 65.35-1.942 2.619-3.758 5.2-5.452 7.713 0.258-7.574-0.67-15.23-1.589-22.73-0.85-6.935-1.731-14.1-1.659-21.12 0.104-10.27 2.244-20.5 4.315-30.38 1.453-6.946 3.101-14.82 7.543-20.98 1.31-1.819 2.881-3.506 4.427-5.138l0.141 0.2117c2.221 3.387 5.002 7.22 7.867 11.34-1.084 1.415-2.045 2.915-2.91 4.458" inkscape:connector-curvature="0"/><path d="m180.4 100.8c-6.737 10.09-11.17 19.03-13.84 27.89-2.153 7.156-4.004 17.39-2.002 28.23-2.483 2.937-4.813 5.88-6.99 8.785-1.838-21.7 0.839-43.74 7.894-64.36 1.231-3.6 2.711-7.45 4.719-11.05 0.834-1.494 1.756-2.947 2.793-4.319 2.91 4.2 5.879 8.694 8.435 13.33-0.345 0.5039-0.677 1.002-1.011 1.501" inkscape:connector-curvature="0"/><path d="m142.6 181.5c0.41-4.808 0.748-11.12-0.307-17.3-0.74-4.324-2.142-8.552-3.502-12.64-0.523-1.578-1.066-3.209-1.56-4.821-8.664-28.21-5.586-59.29 8.443-85.25 0.785-1.453 1.658-2.933 2.932-3.888 1.252 0.5731 2.453 1.23 3.586 1.992 5.08 3.41 8.644 8.578 12.02 13.7-1.595 1.685-3.222 3.424-4.588 5.317-4.523 6.271-6.185 14.22-7.652 21.22-2.078 9.919-4.224 20.18-4.33 30.51-0.072 7.057 0.811 14.25 1.664 21.21 0.959 7.814 1.934 15.81 1.547 23.68-3.781 5.686-6.918 10.99-9.406 15.51 0.486-2.813 0.869-5.866 1.158-9.242" inkscape:connector-curvature="0"/><path d="m145.1 61.2c-14.11 26.12-17.21 57.38-8.494 85.76 0.498 1.617 1.041 3.253 1.566 4.834 1.35 4.065 2.746 8.269 3.477 12.54 1.043 6.104 0.707 12.36 0.299 17.13-0.356 4.169-0.858 7.84-1.524 11.17-4.129 7.682-6.191 12.68-6.193 12.68-0.807 1.605-1.545 3.359-2.277 5.166-6.715 15.36-19.16 20.76-28.37 22.58-3.841 0.71-7.691 1.057-11.52 0.796 3.908-0.92 7.779-2.034 11.56-3.358 3.444-1.207 7.03-2.662 9.922-5.113 4.871-4.128 7.151-10.54 8.905-16.22 2.839-9.203 5.152-18.67 6.869-28.15 0.877-4.833 1.765-10.54 1.709-16.21-0.094-9.112-2.575-18.06-4.971-26.71-1.111-4.005-2.26-8.145-3.154-12.25-5.172-23.67-2.315-48.97 7.771-70.98 6.154-0.443 12.12 0.2742 17.25 2.457-1.219 1.023-2.068 2.456-2.83 3.868" inkscape:connector-curvature="0"/><path d="m181.7 138.6c0.104-0.12 0.203-0.24 0.309-0.363-0.104 0.121-0.205 0.243-0.309 0.363" inkscape:connector-curvature="0"/><path d="m181.7 138.6c-0.666 0.779-1.348 1.547-2.029 2.315 0.652-0.722 1.332-1.495 2.029-2.315" inkscape:connector-curvature="0"/><path d="m182.2 138-0.215 0.257 0.119-0.14 0.096-0.117" inkscape:connector-curvature="0"/><path d="m186.9 130.7c-1.059 2.71-2.746 5.067-4.615 7.312l-0.215 0.257c-0.106 0.123-0.205 0.242-0.309 0.363-0.666 0.779-1.348 1.547-2.029 2.315-0.494 0.544-0.975 1.063-1.44 1.556 0.094-1.165 0.174-2.326 0.25-3.471 0.026-0.4 0.053-0.803 0.08-1.205 0.25-3.691 0.571-7.465 1.504-11.06 1.289-4.957 3.825-9.645 7.231-13.5 1.562 5.932 1.73 11.84-0.457 17.44" inkscape:connector-curvature="0"/><path d="m172 148.7c-0.639 0.665-1.27 1.332-1.893 2.001 0.637-0.693 1.24-1.337 1.744-1.851l0.149-0.15" inkscape:connector-curvature="0"/><path d="m177.5 143.3-0.069 0.067 0.071-0.072-0.002 0.005" inkscape:connector-curvature="0"/><path d="m170.1 150.7c-1.715 1.845-3.373 3.705-4.967 5.571 0 0 2.694-3.096 4.967-5.571" inkscape:connector-curvature="0"/><path d="m187.1 112.5c-3.602 3.983-6.278 8.875-7.623 14.05-1.014 3.899-1.311 7.972-1.575 11.93-0.009 0.154-0.021 0.309-0.031 0.463-0.094 1.405-0.193 2.837-0.318 4.268l-0.071 0.072c-2.193 2.269-4.037 3.981-5.431 5.394l-0.149 0.15c-0.504 0.513-1.107 1.158-1.744 1.851-1.715 1.845-3.373 3.705-4.967 5.571-1.822-10.52-0.025-20.42 2.073-27.38 2.631-8.741 6.998-17.57 13.63-27.53 0.312-0.4691 0.623-0.9359 0.945-1.409 0.836 1.543 1.627 3.099 2.348 4.666 1.197 2.607 2.203 5.239 2.949 7.869l-0.035 0.038" inkscape:connector-curvature="0"/></g><path d="m160.9 153c-1.92 0-3.543-0.663-4.868-1.988-1.326-1.325-1.986-2.902-1.986-4.729 0-1.371-0.275-2.742-0.824-4.112-0.914-2.103-2.192-3.656-3.838-4.66-1.736-1.189-3.699-1.783-5.893-1.783-1.554 0-2.925 0.276-4.113 0.823-1.918 0.823-3.473 2.102-4.66 3.839-1.279 1.827-1.918 3.791-1.918 5.893v52.09c0 2.103 0.639 4.066 1.918 5.894 1.187 1.736 2.742 3.015 4.66 3.838 1.188 0.547 2.559 0.823 4.113 0.823 2.194 0 4.157-0.594 5.893-1.783 1.646-1.004 2.924-2.557 3.838-4.66 0.549-1.37 0.824-2.741 0.824-4.112 0-1.827 0.66-3.404 1.986-4.729 1.325-1.325 2.948-1.988 4.868-1.988 1.826 0 3.402 0.663 4.728 1.988 1.322 1.325 1.986 2.902 1.986 4.729 0 2.378-0.365 4.707-1.095 6.991-0.733 2.284-1.739 4.433-3.016 6.442-2.65 4.022-6.215 6.945-10.69 8.772-3.016 1.28-6.123 1.92-9.321 1.92-4.752 0-9.277-1.371-13.57-4.112-3.93-2.65-6.809-6.214-8.635-10.69-1.281-3.015-1.92-6.121-1.92-9.321v-52.09c0-3.2 0.639-6.306 1.92-9.321 1.826-4.478 4.705-8.042 8.635-10.69 4.293-2.741 8.818-4.112 13.57-4.112 3.198 0 6.305 0.64 9.321 1.92 4.476 1.827 8.041 4.75 10.69 8.772 1.277 2.009 2.283 4.158 3.016 6.442 0.73 2.284 1.095 4.613 1.095 6.991 0 1.827-0.664 3.404-1.986 4.729-1.326 1.325-2.902 1.988-4.728 1.988" inkscape:connector-curvature="0" fill="#231f20"/></g></g></svg>
