<svg xmlns:xlink="http://www.w3.org/1999/xlink" xmlns="http://www.w3.org/2000/svg" stroke-width="0.501" stroke-linejoin="bevel" fill-rule="evenodd" version="1.1" overflow="visible" viewBox="0 0 96 120" x="0px" y="0px"><g fill="none" stroke="black" font-family="Times New Roman" font-size="16" transform="scale(1 -1)"><g transform="translate(0 -96)"><g><path d="M 32.214,12.396 L 32.214,16.971 C 32.214,18.118 33.144,19.047 34.292,19.047 L 47.504,19.047 C 48.649,19.047 49.577,18.118 49.577,16.971 L 49.577,12.396 L 32.214,12.396 Z M 52.427,12.396 L 52.427,16.971 C 52.427,18.118 53.355,19.047 54.502,19.047 L 67.717,19.047 C 68.862,19.047 69.792,18.118 69.792,16.971 L 69.792,12.396 L 52.427,12.396 Z M 72.637,12.396 L 72.637,16.971 C 72.637,18.118 73.568,19.047 74.713,19.047 L 87.93,19.047 C 89.072,19.047 90.003,18.118 90.003,16.971 L 90.003,12.396 L 72.637,12.396 Z M 10.618,19.311 L 10.618,39.05 L 8.184,39.05 C 6.978,39.05 5.997,40.029 5.997,41.237 L 5.997,60.998 C 5.997,62.204 6.978,63.185 8.184,63.185 L 13.589,63.185 L 18.119,58.655 L 22.648,63.185 L 29.373,63.185 L 29.373,78.342 C 29.373,79.696 30.474,80.8 31.831,80.8 L 47.862,80.8 C 47.846,80.913 47.838,81.029 47.838,81.147 C 47.838,82.502 48.939,83.605 50.296,83.605 L 58.335,83.605 C 59.689,83.605 60.793,82.502 60.793,81.147 C 60.793,81.029 60.784,80.913 60.768,80.8 L 78.847,80.8 C 80.201,80.8 81.305,79.696 81.305,78.342 L 81.305,42.769 C 81.305,41.412 80.201,40.311 78.847,40.311 L 73.079,40.311 C 71.722,40.311 70.62,41.412 70.62,42.769 C 70.62,44.123 71.722,45.227 73.079,45.227 L 76.389,45.227 L 76.389,75.884 L 34.289,75.884 L 34.289,63.185 L 39.116,63.185 C 40.322,63.185 41.301,62.204 41.301,60.998 L 41.301,58.363 C 41.301,57.157 40.322,56.178 39.116,56.178 L 34.289,56.178 L 34.289,45.227 L 56.984,45.227 C 58.339,45.227 59.442,44.123 59.442,42.769 C 59.442,41.412 58.339,40.311 56.984,40.311 L 31.831,40.311 C 30.474,40.311 29.373,41.412 29.373,42.769 L 29.373,56.178 L 25.624,56.178 L 25.624,19.311 C 25.624,18.339 24.833,17.548 23.861,17.548 L 19.843,17.548 C 18.999,17.548 18.293,18.14 18.121,18.929 C 17.946,18.14 17.24,17.548 16.399,17.548 L 12.381,17.548 C 11.409,17.548 10.618,18.339 10.618,19.311 Z M 35.177,26.362 C 35.177,29.401 37.648,31.872 40.687,31.872 C 43.726,31.872 46.197,29.401 46.197,26.362 C 46.197,23.323 43.726,20.852 40.687,20.852 C 37.648,20.852 35.177,23.323 35.177,26.362 Z M 55.387,26.362 C 55.387,29.401 57.858,31.872 60.898,31.872 C 63.937,31.872 66.408,29.401 66.408,26.362 C 66.408,23.323 63.937,20.852 60.898,20.852 C 57.858,20.852 55.387,23.323 55.387,26.362 Z M 75.598,26.362 C 75.598,29.401 78.069,31.872 81.108,31.872 C 84.147,31.872 86.618,29.401 86.618,26.362 C 86.618,23.323 84.147,20.852 81.108,20.852 C 78.069,20.852 75.598,23.323 75.598,26.362 Z M 62.381,42.769 C 62.381,44.123 63.482,45.227 64.839,45.227 L 65.221,45.227 C 66.576,45.227 67.68,44.123 67.68,42.769 C 67.68,41.412 66.576,40.311 65.221,40.311 L 64.839,40.311 C 63.482,40.311 62.381,41.412 62.381,42.769 Z M 12.486,71.249 C 12.486,74.453 15.09,77.057 18.293,77.057 C 21.497,77.057 24.101,74.453 24.101,71.249 C 24.101,68.046 21.497,65.442 18.293,65.442 C 15.09,65.442 12.486,68.046 12.486,71.249 Z" stroke-linejoin="miter" stroke-linecap="round" stroke="none" fill="#000000" stroke-width="1.639" marker-start="none" marker-end="none" stroke-miterlimit="79.8403193612775"/></g></g></g><text x="0" y="111" fill="#000000" font-size="5px" font-weight="bold" font-family="'Helvetica Neue', Helvetica, Arial-Unicode, Arial, Sans-serif">Created by Peter van Driel</text><text x="0" y="116" fill="#000000" font-size="5px" font-weight="bold" font-family="'Helvetica Neue', Helvetica, Arial-Unicode, Arial, Sans-serif">from the Noun Project</text></svg>