<svg xmlns:inkscape="http://www.inkscape.org/namespaces/inkscape" xmlns:rdf="http://www.w3.org/1999/02/22-rdf-syntax-ns#" xmlns="http://www.w3.org/2000/svg" sodipodi:docname="howto-rubric.svg" version="1.1" xmlns:cc="http://creativecommons.org/ns#" xmlns:dc="http://purl.org/dc/elements/1.1/" inkscape:version="0.91 r13725" viewBox="0 0 520 390" xmlns:sodipodi="http://sodipodi.sourceforge.net/DTD/sodipodi-0.dtd">
 <sodipodi:namedview fit-margin-left="0" inkscape:zoom="0.99813241" borderopacity="1.0" inkscape:current-layer="g5547" inkscape:cx="111.88243" inkscape:cy="188.34418" inkscape:window-maximized="1" showgrid="false" fit-margin-right="0" units="px" showguides="true" bordercolor="#666666" inkscape:window-x="65" inkscape:guide-bbox="true" inkscape:window-y="24" fit-margin-bottom="0" inkscape:window-width="1855" inkscape:pageopacity="0.0" inkscape:pageshadow="2" pagecolor="#ffffff" inkscape:document-units="px" inkscape:window-height="1056" fit-margin-top="0"/>
 <g inkscape:label="Layer 1" inkscape:groupmode="layer" transform="translate(580 -417.2)">
  <g transform="translate(20 -20)">
   <path style="image-rendering:auto;color-rendering:auto;shape-rendering:auto" d="m500-20-520 0.1074 0.6895 251.4h8.814v9.32h-9.504v16.74h9.504v8.568h-8.729l0.2051 73.91h518.7l0.1719-221.5h-8.764v-8.318h8.869v-16.74h-8.869v-9.572h8.781l0.1-103.9z" transform="translate(-580 487.2)" inkscape:connector-curvature="0" fill="#5a3392"/>
   <rect fill-rule="evenodd" height="340" width="500" y="477.2" x="-590" fill="#ee746c"/>
   <rect fill-rule="evenodd" height="320" width="480" y="487.2" x="-580" fill="#fb9761"/>
  </g>
  <g transform="translate(20 -20)">
   <path style="image-rendering:auto;color-rendering:auto;shape-rendering:auto" d="m-570 537.3 1.014 259.9h458.7l0.2871-260z" sodipodi:nodetypes="ccccc" inkscape:connector-curvature="0" fill="#5a3392"/>
   <path style="image-rendering:auto;color-rendering:auto;shape-rendering:auto" d="m-560 547.2 0.9698 239.9h438.8l0.2746-240z" sodipodi:nodetypes="ccccc" inkscape:connector-curvature="0" fill="#fff"/>
   <path style="image-rendering:auto;color-rendering:auto;shape-rendering:auto" d="m-555 552.2 0.9477 229.9h428.8l0.2683-230z" sodipodi:nodetypes="ccccc" inkscape:connector-curvature="0" fill="#ebfeff"/>
   <g fill="#5a3392">
    <path style="image-rendering:auto;color-rendering:auto;shape-rendering:auto" inkscape:connector-curvature="0" d="m-570 599.7v10h460v-10h-460z"/>
    <path style="image-rendering:auto;color-rendering:auto;shape-rendering:auto" inkscape:connector-curvature="0" d="m-570 662.2v10h460v-10h-460z"/>
    <path style="image-rendering:auto;color-rendering:auto;shape-rendering:auto" inkscape:connector-curvature="0" d="m-570 724.7v10h460v-10h-460z"/>
    <path style="image-rendering:auto;color-rendering:auto;shape-rendering:auto" d="m-570 787.2v10h460v-10h-460z" inkscape:connector-curvature="0"/>
    <path style="image-rendering:auto;color-rendering:auto;shape-rendering:auto" d="m-570 537.2v10h460v-10h-460z" inkscape:connector-curvature="0"/>
    <path style="image-rendering:auto;color-rendering:auto;shape-rendering:auto" inkscape:connector-curvature="0" d="m-335 537.2h-10v260h10v-260z"/>
    <path style="image-rendering:auto;color-rendering:auto;shape-rendering:auto" d="m-560 537.2h-10v260h10v-260z" inkscape:connector-curvature="0"/>
    <path style="image-rendering:auto;color-rendering:auto;shape-rendering:auto" d="m-110 537.2h-10v260h10v-260z" inkscape:connector-curvature="0"/>
    <path style="image-rendering:auto;color-rendering:auto;shape-rendering:auto" inkscape:connector-curvature="0" d="m-222.5 537.2h-10v260h10v-260z"/>
    <path style="image-rendering:auto;color-rendering:auto;shape-rendering:auto" inkscape:connector-curvature="0" d="m-447.5 537.2h-10v260h10v-260z"/>
   </g>
  </g>
  <g transform="translate(20 -20)">
   <path style="image-rendering:auto;color-rendering:auto;shape-rendering:auto" d="m-294.6 467.7v-9.393h-60.68c1.561-2.676 3.838-4.977 6.696-6.577 2.806-1.56 5.934-2.337 9.068-2.332 3.136 0.007 6.263 0.8018 9.051 2.401 1.361 0.775 2.58 1.725 3.655 2.783l8.787-3.445c-2.119-2.802-4.749-5.249-7.926-7.064-4.18-2.391-8.853-3.596-13.53-3.573-4.68 0.0228-9.366 1.148-13.57 3.503-5.742 3.219-9.925 8.378-12.02 14.34h-19.53v9.392" sodipodi:nodetypes="cccccccccccccc" inkscape:connector-curvature="0" fill="#5a3392"/>
   <path style="image-rendering:auto;color-rendering:auto;shape-rendering:auto" d="m-375.7 467.2h62.41 8.874v10h-71.29z" sodipodi:nodetypes="cccccc" inkscape:connector-curvature="0" fill="#3cdef6"/>
   <path style="image-rendering:auto;color-rendering:auto;shape-rendering:auto" d="m-297.1 495.6v-9.964l-84.99 0.0367v9.963" sodipodi:nodetypes="cccc" inkscape:connector-curvature="0" fill="#ee746c"/>
   <path style="image-rendering:auto;color-rendering:auto;shape-rendering:auto" d="m-294.6 486.4v-9.964l-90 0.0367v9.963" sodipodi:nodetypes="cccc" inkscape:connector-curvature="0" fill="#5a3392"/>
  </g>
  <g transform="translate(20 -20)">
   <g>
    <path sodipodi:type="inkscape:offset" d="m-137.4 490.9c-1.194 0-2.004 0.7974-2.811 1.842a1.141 1.141 0 0 0 -0.006 0.006c-0.7223 0.948-1.466 2.112-2.248 3.502-0.7487 1.288-1.3 2.15-1.496 2.402a1.141 1.141 0 0 0 -0.0117 0.0156l-2.1 2.797a1.141 1.141 0 0 0 -0.0117 0.0176c-0.5297 0.7335-1.1 1.448-1.711 2.141l0.0234-0.0254c-0.6568 0.7006-1.128 1.249-1.453 1.736a1.141 1.141 0 0 0 -0.0176 0.0273c-0.3366 0.5385-0.4922 1.175-0.4922 1.814 0 0.7086 0.2868 1.468 0.8438 1.945 0.4576 0.3922 1.068 0.6582 1.695 0.6582 1.454 0 2.456-1.022 3.668-2.502l0.006-0.008c1.202-1.417 2.32-2.835 3.354-4.256a1.141 1.141 0 0 0 0.01 -0.0137c0.168-0.238 0.2544-0.3185 0.4004-0.5117 0.0356 0.4036 0.0752 0.6459 0.1055 1.189 0.1252 2.251 0.1996 5.675 0.2207 10.24 0.00007 4.523 0.0677 8.119 0.207 10.8 0.1391 2.678 0.2941 4.354 0.6816 5.461 0.00033 0.00096 0.002 0.001 0.002 0.002 0.2762 0.8051 0.5629 1.451 0.9551 1.979 0.3926 0.5284 1.003 1.018 1.775 1.018 0.536 0 1.045-0.2569 1.389-0.582 0.3438-0.3252 0.5787-0.7113 0.7871-1.154a1.141 1.141 0 0 0 0.0176 -0.0371c0.1599-0.3732 0.1422-0.5194 0.1699-0.7891 0.0278-0.2697 0.0462-0.5971 0.0625-0.998 0.0326-0.8018 0.0488-1.897 0.0488-3.305-0.00001-4.431-0.1261-9.995-0.3809-16.7-0.2547-6.75-0.5082-11.26-0.7715-13.63l0.002 0.002c-0.1551-1.418-0.3755-2.515-0.7559-3.385-0.1902-0.435-0.4242-0.8256-0.7773-1.148-0.3532-0.3228-0.8689-0.5527-1.381-0.5527z" inkscape:original="M -137.43945 492.01953 C -137.99059 492.01953 -138.62694 492.48527 -139.34766 493.41797 C -140.02598 494.30827 -140.74665 495.43046 -141.50977 496.78711 C -142.27289 498.10136 -142.80284 498.95047 -143.09961 499.33203 L -145.19922 502.12891 C -145.75036 502.89202 -146.34259 503.63475 -146.97852 504.35547 C -147.61445 505.0338 -148.06009 505.56375 -148.31445 505.94531 C -148.52643 506.28447 -148.63281 506.68794 -148.63281 507.1543 C -148.63281 507.62064 -148.48427 507.98 -148.1875 508.23438 C -147.89073 508.48874 -147.57354 508.61719 -147.23438 508.61719 C -146.51366 508.61719 -145.58022 507.91662 -144.43555 506.51758 C -143.24848 505.11853 -142.14639 503.71936 -141.12891 502.32031 C -140.11141 500.87887 -139.43291 500.1582 -139.09375 500.1582 C -138.6274 500.1582 -138.37248 504.73714 -138.33008 513.89453 C -138.33008 522.92474 -138.05505 528.22434 -137.50391 529.79297 C -136.99517 531.27681 -136.44314 532.01953 -135.84961 532.01953 C -135.42566 532.01953 -135.04424 531.65822 -134.70508 530.9375 C -134.57789 530.64073 -134.51562 529.09302 -134.51562 526.29492 C -134.51563 521.88581 -134.64211 516.33323 -134.89648 509.63477 C -135.15086 502.89391 -135.40578 498.37724 -135.66016 496.08789 C -135.95692 493.37459 -136.54915 492.01953 -137.43945 492.01953 z " transform="matrix(.7095 0 0 .7095 -41.88 154.8)" inkscape:radius="1.1406761"/>
    <path d="m-161 620.9c-0.2077 0-0.3193 0.0254-0.5294 0.0604-0.009 0.002-0.0182 0.003-0.0272 0.005-0.1883 0.0377-0.4665 0.1036-0.8461 0.1983l-1.05 0.1907c-0.018 0.003-0.0359 0.007-0.0536 0.0111 0.0299-0.007-0.2284 0.0467-0.5848 0.1115s-0.8616 0.1548-1.514 0.269c-1.282 0.1974-2.706 0.4428-4.275 0.7371h-0.003c-1.54 0.2949-3.112 0.6071-4.716 0.9346-1.619 0.3304-2.981 0.6616-4.096 0.9993l-0.007 0.003c-0.5494 0.1717-0.9739 0.3289-1.319 0.5124-0.1727 0.0917-0.3278 0.1862-0.4835 0.3371-0.1557 0.1508-0.3524 0.4058-0.3524 0.7814 0 0.317 0.1134 0.7184 0.4086 0.9865 0.2194 0.1993 0.4728 0.2704 0.7167 0.3039 0.007 0.0367 0.003-0.001 0.003 0.0826 0 0.3519 0.1015 0.7661 0.4052 1.069 0.3036 0.303 0.7169 0.4034 1.068 0.4034 0.1823 0 0.1424-0.01 0.1864-0.0162 0.0441-0.006 0.0949-0.0148 0.1592-0.0255 0.1285-0.0214 0.3058-0.0525 0.5362-0.0936 0.4603-0.0822 1.131-0.2053 2.013-0.3686 1.787-0.3248 3.688-0.6332 5.706-0.9261l0.0111-0.002c1.424-0.226 2.049-0.2679 2.776-0.3345-0.1922 0.2653-0.3342 0.4768-0.612 0.8316-0.9526 1.217-2.403 2.949-4.333 5.171-0.433 0.4634-0.8006 0.7996-1.067 0.9942-0.2671 0.1954-0.4368 0.2068-0.3277 0.2068-0.4171 0-0.9161 0.255-1.148 0.623-0.2322 0.368-0.2758 0.7464-0.2758 1.145 0 0.658 0.2291 1.309 0.6869 1.767 0.4578 0.4578 1.109 0.6869 1.767 0.6869 0.6769 0 1.328-0.263 1.944-0.6869 0.01-0.006 0.0189-0.0129 0.0281-0.0196 0.4527-0.3396 1.07-0.6889 1.842-1.029 0.7178-0.3025 1.632-0.4707 2.755-0.4707 1.089 0 1.59 0.2784 1.924 0.8563 0.007 0.0109 0.0133 0.0217 0.0204 0.0323 0.3537 0.5527 0.652 1.86 0.652 3.815 0 2.192-0.3973 3.707-1.016 4.558-0.8036 1.101-1.878 2.03-3.254 2.796-1.375 0.7323-2.642 1.077-3.817 1.077-0.8601 0-1.34-0.1171-1.358-0.0987-0.018-0.0561-0.0506-0.144-0.0621-0.3405l0.002 0.0494c0-0.941-0.3456-1.845-0.9601-2.618-0.5803-0.7695-1.35-1.307-2.229-1.307-0.6113 0-1.212 0.4586-1.457 0.9865-0.2448 0.528-0.3107 1.125-0.3107 1.86 0 1.218 0.2562 2.36 0.7669 3.39 0.3699 0.8321 1.016 1.498 1.844 1.907 0.8336 0.4116 1.831 0.5882 2.981 0.5882 2.059 0 4.202-0.6033 6.417-1.762l0.009-0.004c2.23-1.201 3.985-2.772 5.212-4.7l0.00088-0.002c1.489-2.354 2.238-5.011 2.238-7.899 0-0.7983-0.0655-1.482-0.223-2.074-0.3464-1.345-1.204-2.61-2.487-3.824-1.283-1.247-2.492-1.998-3.764-1.998-0.0712 0-0.0815-0.007-0.1472-0.008 0.00087-0.001 0.001-0.001 0.003-0.003 0.5469-0.6515 1.378-1.609 2.487-2.864v-0.00087c1.134-1.282 1.988-2.296 2.574-3.06 0.2929-0.3819 0.519-0.699 0.6869-0.9763s0.332-0.4307 0.332-0.9295c0-0.6653-0.3084-1.26-0.761-1.829-0.429-0.5818-0.9535-1.066-1.693-1.066z" sodipodi:nodetypes="ccccccccccsccccsscssscccccccccccsssscccsccsccsccccscsccsccccsccsccccscsccc" inkscape:connector-curvature="0"/>
    <path d="m-163.1 556.2c-0.7728 0-1.361 0.5331-1.759 1.153-0.009 0.0132-0.0169 0.0266-0.0248 0.0403-0.1852 0.3242-0.2012 0.285-0.274 0.285-0.0272 0.0001-0.0544 0.001-0.0815 0.004-0.3489 0.0318-0.4809 0.1483-0.6222 0.2447-0.1413 0.0963-0.2679 0.2031-0.4059 0.3308-0.276 0.2554-0.5931 0.5937-0.9787 1.034-0.7711 0.8799-1.803 2.16-3.111 3.857l-0.004 0.006c-2.58 3.394-5.16 7.015-7.738 10.86l-0.004 0.007c-0.6828 1.042-1.203 1.932-1.565 2.693-0.3618 0.7615-0.5883 1.376-0.5883 2.022 0 0.6326 0.3617 1.306 0.9063 1.638 0.5445 0.3326 1.169 0.4224 1.894 0.4224 1.226 0 3.155-0.3134 5.993-0.9163l0.003-0.00093 3.696-0.7954c0.0788 0.3666 0.2226 1.373 0.3922 2.967 0.2313 2.802 0.5536 4.918 1.01 6.421 0.2287 0.7532 0.4842 1.357 0.8458 1.841 0.3615 0.4842 0.926 0.8824 1.572 0.8824 0.6762 0 1.249-0.3571 1.73-0.8339 0.4882-0.4498 0.8595-1.029 0.8595-1.703 0-0.4759-0.1397-0.7803-0.3326-1.243-0.1229-0.2949-0.3234-1.016-0.5296-2.047-0.1976-0.9878-0.3369-2.286-0.4059-3.874v-0.004l-0.1787-3.752 1.717-0.5718 0.004-0.001c1.514-0.4814 2.772-0.7854 3.748-0.9154l-0.0633 0.007c0.7022-0.0438 1.361-0.2563 1.861-0.701 0.0132-0.0115 0.026-0.0234 0.0385-0.0357 0.4339-0.4339 0.7395-1.016 0.7395-1.638 0-0.8281-0.5598-1.566-1.287-1.983-0.6411-0.4178-1.359-0.6588-2.095-0.6588-0.4329 0-0.8852 0.0624-1.269 0.383-0.01 0.004-0.6733 0.3285-1.663 0.6698-0.958 0.3303-1.644 0.4624-1.934 0.4682-0.003-0.0126-0.00016-0.00094-0.003-0.014-0.0456-0.2353-0.0963-0.5836-0.1475-1.027-0.0977-0.8814-0.153-2.343-0.153-4.331 0-2.436 0.0682-4.021 0.1466-4.531 0.1033-0.4713 0.376-0.9953 0.8916-1.572l-0.0349 0.0357c0.8755-0.8755 1.425-1.853 1.425-2.906 0-0.5579-0.2823-1.044-0.646-1.425-0.3754-0.462-0.9655-0.7945-1.573-0.7945zm-5 11.58 0.1457 1.398c0.2098 2.029 0.3125 3.437 0.3125 4.129 0 0.711-0.1575 0.926-0.2245 0.9777-0.0675 0.0347-0.4175 0.1802-0.9658 0.3336-0.5692 0.1592-1.347 0.3457-2.321 0.5544-1.031 0.2154-1.788 0.3628-2.426 0.482 0.3044-0.5284 0.6628-1.128 1.205-1.963l0.004-0.007c1.29-2.022 2.436-3.652 3.426-4.88l0.8439-1.025z" sodipodi:nodetypes="cccccccsccccsscsccccscscscccccccccccscscscccscccscccccsccccccccc" inkscape:connector-curvature="0"/>
   </g>
   <g transform="translate(-4 10.82)" fill="#fff">
    <path style="image-rendering:auto;color-rendering:auto;shape-rendering:auto" inkscape:connector-curvature="0" d="m-190.4 504.7c-4.082 0-7.433 3.351-7.433 7.433 0 4.083 3.351 7.433 7.433 7.433s7.433-3.351 7.433-7.433-3.351-7.433-7.433-7.433zm0 3.703c2.074 0 3.73 1.656 3.73 3.73 0.00023 2.075-1.656 3.703-3.73 3.703s-3.703-1.629-3.703-3.703 1.629-3.73 3.703-3.73z"/>
    <path style="image-rendering:auto;color-rendering:auto;shape-rendering:auto" inkscape:connector-curvature="0" d="m-179.4 504.7c-0.9561 0.0957-1.682 0.9046-1.673 1.865v7.214c-0.0114 0.1184-0.0114 0.238 0 0.3565v3.538c-0.0864 1.022 0.6726 1.921 1.695 2.008 1.023 0.0861 1.922-0.6726 2.008-1.695 0.009-0.1043 0.009-0.2086 0-0.3131v-0.7134l4.718 2.359c0.9197 0.4559 2.035 0.0794 2.49-0.8405 0.4512-0.9104 0.0871-2.014-0.817-2.478l-4.087-2.057 4.087-2.03c0.6196-0.3151 1.011-0.9503 1.015-1.646v-3.703c0.004-1.021-0.8168-1.854-1.838-1.865h-7.406c-0.0641-0.003-0.1282-0.003-0.1925 0zm2.03 3.703h3.703v0.7134l-3.703 1.838v-2.551z"/>
    <path style="image-rendering:auto;color-rendering:auto;shape-rendering:auto" inkscape:connector-curvature="0" d="m-200.9 505.2c-3.023-1.304-6.557-0.264-8.503 2.414-1.947 2.677-1.915 6.337 0.0562 8.997 1.97 2.659 5.492 3.636 8.503 2.304 0.9636-0.353 1.459-1.42 1.106-2.384-0.353-0.9638-1.42-1.459-2.384-1.106-0.0694 0.0253-0.1372 0.0548-0.203 0.0885-1.438 0.6359-3.069 0.2118-4.059-1.125-0.99-1.339-0.9803-3.26 0-4.608 0.9789-1.348 2.589-1.774 4.032-1.152 0.948 0.3988 2.04-0.0462 2.438-0.9937 0.3974-0.9443-0.0427-2.033-0.9847-2.435h-0.002z"/>
    <path style="image-rendering:auto;color-rendering:auto;shape-rendering:auto" inkscape:connector-curvature="0" d="m-166.4 504.7c-0.9561 0.0957-1.682 0.9046-1.673 1.865v11.14c-0.004 1.026 0.8249 1.861 1.851 1.865h0.0142 7.406c1.03-0.005 1.861-0.8442 1.856-1.874-0.005-1.023-0.833-1.851-1.856-1.856h-5.541v-7.433h5.541c1.023 0.0876 1.922-0.6705 2.01-1.693 0.0876-1.022-0.6705-1.922-1.693-2.01-0.1054-0.009-0.2113-0.009-0.3168 0h-7.406c-0.0641-0.003-0.1284-0.003-0.1923 0h0.00042z"/>
    <path style="image-rendering:auto;color-rendering:auto;shape-rendering:auto" inkscape:connector-curvature="0" d="m-165.5 510.3c-1.031 0.0432-1.831 0.9132-1.788 1.944s0.9132 1.832 1.944 1.788c0.0123 0 0.0246 0 0.0369-0.003h2.743c1.03-0.0104 1.857-0.8537 1.847-1.884-0.01-1.016-0.8309-1.837-1.847-1.847h-2.743c-0.0639-0.003-0.1282-0.003-0.1923 0z"/>
    <path style="image-rendering:auto;color-rendering:auto;shape-rendering:auto" inkscape:connector-curvature="0" d="m-222.1 504.7c-1.022 0.0971-1.771 1.004-1.674 2.025 0.029 0.3056 0.1333 0.5996 0.3035 0.8551l5.458 8.256h-3.895c-1.03-0.005-1.869 0.8261-1.874 1.856s0.8261 1.869 1.856 1.874h0.0181 7.379c1.026-0.009 1.851-0.8472 1.842-1.874-0.003-0.3579-0.1094-0.7076-0.3063-1.007l-5.486-8.283h3.95c1.023 0.0876 1.922-0.6705 2.01-1.693 0.0876-1.022-0.6705-1.922-1.693-2.01-0.1054-0.009-0.2113-0.009-0.3168 0h-7.379c-0.0641-0.003-0.1284-0.003-0.1923 0h-0.00083z"/>
    <path d="m-148.9 509.1a2.5 2.5 0 0 1 -2.5 2.5 2.5 2.5 0 0 1 -2.5 -2.5 2.5 2.5 0 0 1 2.5 -2.5 2.5 2.5 0 0 1 2.5 2.5z" fill-rule="evenodd" inkscape:connector-curvature="0"/>
    <path d="m-148.9 515.2a2.5 2.5 0 0 1 -2.5 2.5 2.5 2.5 0 0 1 -2.5 -2.5 2.5 2.5 0 0 1 2.5 -2.5 2.5 2.5 0 0 1 2.5 2.5z" fill-rule="evenodd" inkscape:transform-center-x="-0.094777651" inkscape:transform-center-y="-5.6866591" inkscape:connector-curvature="0"/>
   </g>
   <g transform="translate(7.25)" stroke="#888a85" stroke-width="5" fill="none">
    <g>
     <path d="m-546 562.7h16.2m2.504 0h41.29" sodipodi:nodetypes="cccc" inkscape:connector-curvature="0"/>
     <path d="m-546 576.2h28.13m2.862 0h29.01" sodipodi:nodetypes="cccc" inkscape:connector-curvature="0"/>
     <path d="m-546 589.7h8.334m2.146 0h24.09m2.385 0h23.05" sodipodi:nodetypes="cccccc" inkscape:connector-curvature="0"/>
    </g>
    <g transform="matrix(-1 0 0 1 -1032 61.67)">
     <path d="m-546 562.7h16.2m2.504 0h41.29" sodipodi:nodetypes="cccc" inkscape:connector-curvature="0"/>
     <path d="m-546 576.2h28.13m2.862 0h29.01" sodipodi:nodetypes="cccc" inkscape:connector-curvature="0"/>
     <path d="m-546 589.7h8.334m2.146 0h24.09m2.385 0h23.05" sodipodi:nodetypes="cccccc" inkscape:connector-curvature="0"/>
    </g>
    <g transform="matrix(1 0 0 -1 0 1276)">
     <path d="m-546 562.7h16.2m2.504 0h41.29" sodipodi:nodetypes="cccc" inkscape:connector-curvature="0"/>
     <path d="m-546 576.2h28.13m2.862 0h29.01" sodipodi:nodetypes="cccc" inkscape:connector-curvature="0"/>
     <path d="m-546 589.7h8.334m2.146 0h24.09m2.385 0h23.05" sodipodi:nodetypes="cccccc" inkscape:connector-curvature="0"/>
    </g>
    <g transform="matrix(-1 0 0 -1 -1032 1337)">
     <path d="m-546 562.7h16.2m2.504 0h41.29" sodipodi:nodetypes="cccc" inkscape:connector-curvature="0"/>
     <path d="m-546 576.2h28.13m2.862 0h29.01" sodipodi:nodetypes="cccc" inkscape:connector-curvature="0"/>
     <path d="m-546 589.7h8.334m2.146 0h24.09m2.385 0h23.05" sodipodi:nodetypes="cccccc" inkscape:connector-curvature="0"/>
    </g>
   </g>
   <g transform="matrix(-1 0 0 1 -812.3 0)" stroke="#888a85" stroke-width="5" fill="none">
    <g transform="translate(100)">
     <path d="m-546 562.7h16.2m2.504 0h41.29" sodipodi:nodetypes="cccc" inkscape:connector-curvature="0"/>
     <path d="m-546 576.2h28.13m2.862 0h29.01" sodipodi:nodetypes="cccc" inkscape:connector-curvature="0"/>
     <path d="m-546 589.7h8.334m2.146 0h24.09m2.385 0h23.05" sodipodi:nodetypes="cccccc" inkscape:connector-curvature="0"/>
    </g>
    <g transform="matrix(-1 0 0 1 -932 61.67)">
     <path d="m-546 562.7h16.2m2.504 0h23.41m5.009 0h12.87" sodipodi:nodetypes="cccccc" inkscape:connector-curvature="0"/>
     <path d="m-546 576.2h28.13m2.862 0h29.01" sodipodi:nodetypes="cccc" inkscape:connector-curvature="0"/>
     <path d="m-546 589.7h8.334m2.146 0h24.09m2.385 0h23.05" sodipodi:nodetypes="cccccc" inkscape:connector-curvature="0"/>
    </g>
    <g transform="matrix(1 0 0 -1 100 1276)">
     <path d="m-546 562.7h16.2m2.504 0h41.29" sodipodi:nodetypes="cccc" inkscape:connector-curvature="0"/>
     <path d="m-546 576.2h28.13m2.862 0h29.01" sodipodi:nodetypes="cccc" inkscape:connector-curvature="0"/>
     <path d="m-546 589.7h8.334m2.146 0h24.09m2.385 0h23.05" sodipodi:nodetypes="cccccc" inkscape:connector-curvature="0"/>
    </g>
    <g transform="matrix(-1 0 0 -1 -932 1337)">
     <path d="m-546 562.7h16.2m2.504 0h41.29" sodipodi:nodetypes="cccc" inkscape:connector-curvature="0"/>
     <path d="m-546 576.2h28.13m2.862 0h29.01" sodipodi:nodetypes="cccc" inkscape:connector-curvature="0"/>
     <path d="m-546 589.7h8.334m2.146 0h24.09m2.385 0h23.05" sodipodi:nodetypes="cccccc" inkscape:connector-curvature="0"/>
    </g>
   </g>
   <g transform="translate(12.25)" stroke="#888a85" stroke-width="5" fill="none">
    <g transform="translate(220)">
     <path d="m-546 562.7h16.2m2.504 0h24.62m3.006 0h13.67" sodipodi:nodetypes="cccccc" inkscape:connector-curvature="0"/>
     <path d="m-546 576.2h28.13m2.862 0h29.01" sodipodi:nodetypes="cccc" inkscape:connector-curvature="0"/>
     <path d="m-546 589.7h8.334m2.146 0h24.09m2.385 0h23.05" sodipodi:nodetypes="cccccc" inkscape:connector-curvature="0"/>
    </g>
    <g transform="matrix(-1 0 0 1 -812 61.67)">
     <path d="m-546 562.7h16.2m2.504 0h21.51m3.256 0h16.53" sodipodi:nodetypes="cccccc" inkscape:connector-curvature="0"/>
     <path d="m-546 576.2h28.13m2.862 0h29.01" sodipodi:nodetypes="cccc" inkscape:connector-curvature="0"/>
     <path d="m-546 589.7h8.334m2.146 0h24.09m2.385 0h23.05" sodipodi:nodetypes="cccccc" inkscape:connector-curvature="0"/>
    </g>
    <g transform="matrix(1 0 0 -1 220 1276)">
     <path d="m-546 562.7h16.2m2.504 0h41.29" sodipodi:nodetypes="cccc" inkscape:connector-curvature="0"/>
     <path d="m-546 576.2h28.13m2.862 0h29.01" sodipodi:nodetypes="cccc" inkscape:connector-curvature="0"/>
     <path d="m-546 589.7h8.334m2.146 0h24.09m2.385 0h23.05" sodipodi:nodetypes="cccccc" inkscape:connector-curvature="0"/>
    </g>
    <g transform="matrix(-1 0 0 -1 -812 1337)">
     <path d="m-546 562.7h16.2m2.504 0h41.29" sodipodi:nodetypes="cccc" inkscape:connector-curvature="0"/>
     <path d="m-546 576.2h28.13m2.862 0h29.01" sodipodi:nodetypes="cccc" inkscape:connector-curvature="0"/>
     <path d="m-546 589.7h8.334m2.146 0h24.09m2.385 0h23.05" sodipodi:nodetypes="cccccc" inkscape:connector-curvature="0"/>
    </g>
   </g>
   <g fill="#888a85">
    <g transform="translate(-5.291 -5.81)">
     <path d="m-139.1 571.2-11.88 25.21q-0.4084 0.9282-0.854 1.262-0.4084 0.3713-1.077 0.3713-0.7426 0-1.3-0.5569-0.5569-0.5198-0.5569-1.225 0-0.5198 0.4455-1.411l11.92-25.17q0.4084-0.9282 0.8168-1.262 0.4084-0.3713 1.077-0.3713 0.7426 0 1.3 0.5569 0.5569 0.5198 0.5569 1.225 0 0.4827-0.4455 1.374z" inkscape:connector-curvature="0"/>
     <path d="m-129.8 584.2q-1.522 0-3.379 0.7797-1.856 0.7797-2.116 0.7797-0.8168 0-1.337-0.5941-0.5198-0.5941-0.5198-1.485v-10.54h11.21q2.45 0 2.45 1.856t-2.45 1.856h-7.5v4.27q2.079-0.6312 3.676-0.6312 3.379 0 5.606 2.339 2.228 2.339 2.228 5.903 0 3.936-2.488 6.015-2.488 2.042-6.832 2.042-3.342 0-5.606-1.04-2.265-1.077-2.265-2.636 0-0.7426 0.5569-1.262 0.5569-0.5569 1.3-0.5569 0.5569 0 0.9654 0.297 0.4455 0.2599 0.7797 0.5941t1.411 0.6312q1.114 0.2599 2.822 0.2599 2.896 0 4.27-1.04 1.374-1.077 1.374-3.267 0-2.042-1.151-3.304t-3.007-1.262z" inkscape:connector-curvature="0"/>
    </g>
    <g transform="translate(-5.768 -2.337)">
     <path d="m-138.6 629.3-11.88 25.21q-0.4084 0.9282-0.854 1.262-0.4084 0.3713-1.077 0.3713-0.7426 0-1.3-0.5569-0.5569-0.5198-0.5569-1.225 0-0.5198 0.4455-1.411l11.92-25.17q0.4084-0.9282 0.8168-1.262 0.4084-0.3713 1.077-0.3713 0.7426 0 1.3 0.5569 0.5569 0.5198 0.5569 1.225 0 0.4827-0.4455 1.374z" inkscape:connector-curvature="0"/>
     <path d="m-129.3 642.4q-1.522 0-3.379 0.7797-1.856 0.7797-2.116 0.7797-0.8168 0-1.337-0.5941-0.5198-0.5941-0.5198-1.485v-10.54h11.21q2.45 0 2.45 1.856t-2.45 1.856h-7.5v4.27q2.079-0.6312 3.676-0.6312 3.379 0 5.606 2.339 2.228 2.339 2.228 5.903 0 3.936-2.488 6.015-2.488 2.042-6.832 2.042-3.342 0-5.606-1.04-2.265-1.077-2.265-2.636 0-0.7426 0.5569-1.262 0.5569-0.5569 1.3-0.5569 0.5569 0 0.9654 0.297 0.4455 0.2599 0.7797 0.5941t1.411 0.6312q1.114 0.2599 2.822 0.2599 2.896 0 4.27-1.04 1.374-1.077 1.374-3.267 0-2.042-1.151-3.304t-3.007-1.262z" inkscape:connector-curvature="0"/>
    </g>
    <g transform="translate(-3.383 -6.497)">
     <path d="m-141 695.2-11.88 25.21q-0.4084 0.9282-0.854 1.262-0.4084 0.3713-1.077 0.3713-0.7426 0-1.3-0.5569-0.5569-0.5198-0.5569-1.225 0-0.5198 0.4455-1.411l11.92-25.17q0.4084-0.9282 0.8168-1.262 0.4084-0.3713 1.077-0.3713 0.7426 0 1.3 0.5569 0.5569 0.5198 0.5569 1.225 0 0.4827-0.4455 1.374z" inkscape:connector-curvature="0"/>
     <path d="m-131.7 708.3q-1.522 0-3.379 0.7797-1.856 0.7797-2.116 0.7797-0.8168 0-1.337-0.5941-0.5198-0.5941-0.5198-1.485v-10.54h11.21q2.45 0 2.45 1.856t-2.45 1.856h-7.5v4.27q2.079-0.6312 3.676-0.6312 3.379 0 5.606 2.339 2.228 2.339 2.228 5.903 0 3.936-2.488 6.015-2.488 2.042-6.832 2.042-3.342 0-5.606-1.04-2.265-1.077-2.265-2.636 0-0.7426 0.5569-1.262 0.5569-0.5569 1.3-0.5569 0.5569 0 0.9654 0.297 0.4455 0.2599 0.7797 0.5941t1.411 0.6312q1.114 0.2599 2.822 0.2599 2.896 0 4.27-1.04 1.374-1.077 1.374-3.267 0-2.042-1.151-3.304t-3.007-1.262z" inkscape:connector-curvature="0"/>
    </g>
    <g transform="translate(-.8142 5.562)">
     <path d="m-143.5 744.8-11.88 25.21q-0.4084 0.9282-0.854 1.262-0.4084 0.3713-1.077 0.3713-0.7426 0-1.3-0.5569-0.5569-0.5198-0.5569-1.225 0-0.5198 0.4455-1.411l11.92-25.17q0.4084-0.9282 0.8168-1.262 0.4084-0.3713 1.077-0.3713 0.7426 0 1.3 0.5569 0.5569 0.5198 0.5569 1.225 0 0.4827-0.4455 1.374z" inkscape:connector-curvature="0"/>
     <path d="m-134.3 757.9q-1.522 0-3.379 0.7797-1.856 0.7797-2.116 0.7797-0.8168 0-1.337-0.5941-0.5198-0.5941-0.5198-1.485v-10.54h11.21q2.45 0 2.45 1.856t-2.45 1.856h-7.5v4.27q2.079-0.6312 3.676-0.6312 3.379 0 5.606 2.339 2.228 2.339 2.228 5.903 0 3.936-2.488 6.015-2.488 2.042-6.832 2.042-3.342 0-5.606-1.04-2.265-1.077-2.265-2.636 0-0.7426 0.5569-1.262 0.5569-0.5569 1.3-0.5569 0.5569 0 0.9654 0.297 0.4455 0.2599 0.7797 0.5941t1.411 0.6312q1.114 0.2599 2.822 0.2599 2.896 0 4.27-1.04 1.374-1.077 1.374-3.267 0-2.042-1.151-3.304t-3.007-1.262z" inkscape:connector-curvature="0"/>
    </g>
   </g>
   <path sodipodi:type="inkscape:offset" d="m-121.2 490.8c-0.9759 0-2.096 0.1697-3.416 0.4883l0.0176-0.004c-1.097 0.2477-4.256 0.5377-9.1 0.7539-2.442 0.109-4.333 0.2251-5.691 0.3476-0.6792 0.0613-1.224 0.123-1.658 0.1934-0.4342 0.0704-0.6658 0.0444-1.178 0.3516a1.235 1.235 0 0 0 -0.0332 0.0195c-0.6681 0.4295-0.7708 0.9234-0.918 1.432-0.1472 0.5082-0.2456 1.103-0.3262 1.834-0.1612 1.462-0.2344 3.46-0.2344 6.047 0 3.065 0.0902 5.468 0.2832 7.25 0.0965 0.8912 0.2166 1.625 0.3809 2.24 0.1643 0.6152 0.3207 1.125 0.8047 1.609 0.7283 0.7283 1.249 1.34 2.371 1.34 0.7934 0 1.198-0.3509 1.668-0.7266 0.4699-0.3757 0.9649-0.8711 1.535-1.51a1.235 1.235 0 0 0 0.01 -0.0117c0.7284-0.8376 1.917-1.748 3.568-2.656 1.694-0.9079 2.969-1.285 3.512-1.285 0.1253 0 0.1676 0.006 0.3281 0.1562 0.1606 0.1505 0.3948 0.482 0.6113 1.023 0.4368 1.092 0.6934 2.639 0.6934 4.621 0 2.566-0.3921 4.87-1.16 6.932a1.235 1.235 0 0 0 -0.004 0.0117c-0.8736 2.413-1.851 3.972-2.697 4.688-0.7995 0.6706-2.021 1.076-3.83 1.076-2.135 0-3.732-0.3204-4.779-0.8418-0.9932-0.5148-1.886-1.428-2.668-2.875l0.0273 0.0547c-0.2546-0.5322-0.4762-0.948-0.7188-1.297-0.1213-0.1745-0.2436-0.3334-0.4316-0.5-0.1881-0.1666-0.4767-0.4043-1.006-0.4043-0.4436 0-0.9158 0.2678-1.146 0.543-0.2307 0.2751-0.3182 0.529-0.3848 0.7676-0.1331 0.4771-0.1582 0.9526-0.1582 1.553 0 1.988 1.054 4.011 2.879 6.248 0.9538 1.181 1.696 1.972 2.639 2.414 0.9283 0.4846 2.013 0.5859 3.469 0.5859 4.386 0 7.988-1.193 10.56-3.664 2.613-2.47 4.306-6.269 5.246-11.29a1.235 1.235 0 0 0 0.002 -0.002c0.2286-1.234 0.3457-2.394 0.3457-3.482 0-2.53-0.4408-4.91-1.328-7.105-0.88-2.22-1.999-3.823-3.613-4.555-0.7371-0.3623-1.546-0.4531-2.547-0.4531-2.76 0-5.562 0.9361-8.365 2.678 0.0374-0.3634 0.0879-0.7509 0.0879-1.053 0-0.9701-0.1204-1.892-0.375-2.758l0.0215 0.0801c-0.1656-0.7452-0.2324-1.287-0.2324-1.426 0-0.806 0.1837-1.139 0.6055-1.449 0.4218-0.3102 1.265-0.5742 2.59-0.5742h1.043c2.6 0 5.672-0.5244 9.26-1.543l0.004-0.002c1.814-0.509 3.192-0.9777 4.199-1.457 0.5043-0.2399 0.918-0.4761 1.279-0.7891 0.3613-0.3129 0.7598-0.7814 0.7598-1.482 0-0.6574-0.4338-1.418-1.004-1.75-0.5701-0.3323-1.154-0.3965-1.795-0.3965z" inkscape:original="M -121.20312 492.01953 C -122.02831 492.01953 -123.07058 492.17059 -124.33008 492.47461 C -125.67644 492.77862 -128.78221 493.04065 -133.64648 493.25781 C -138.51076 493.47497 -141.15944 493.71402 -141.59375 493.97461 C -142.20178 494.36549 -142.50586 497.12319 -142.50586 502.24805 C -142.50586 508.32839 -142.13676 511.73628 -141.39844 512.47461 C -140.74697 513.12607 -140.24784 513.45312 -139.90039 513.45312 C -139.46608 513.45312 -138.70492 512.84498 -137.61914 511.62891 C -136.75052 510.62999 -135.44818 509.65275 -133.71094 508.69727 C -131.93026 507.74179 -130.56291 507.26367 -129.60742 507.26367 C -128.7388 507.26367 -128.04266 507.91582 -127.52148 509.21875 C -127.00031 510.52168 -126.74023 512.21413 -126.74023 514.29883 C -126.74023 516.99156 -127.15332 519.44713 -127.97852 521.66211 C -128.89057 524.18112 -129.90986 525.91757 -131.03906 526.87305 C -132.12484 527.78509 -133.66818 528.24023 -135.66602 528.24023 C -137.92443 528.24023 -139.70488 527.91514 -141.00781 527.26367 C -142.26731 526.61221 -143.3306 525.48391 -144.19922 523.87695 C -144.67696 522.87804 -145.02503 522.37695 -145.24219 522.37695 C -145.54621 522.37695 -145.69727 522.92009 -145.69727 524.00586 C -145.69727 525.52595 -144.82904 527.3504 -143.0918 529.47852 C -142.17974 530.60772 -141.44156 531.30387 -140.87695 531.56445 C -140.31235 531.86848 -139.33511 532.01953 -137.94531 532.01953 C -133.77593 532.01953 -130.54013 530.91226 -128.23828 528.69727 C -125.893 526.48229 -124.26557 522.9424 -123.35352 518.07812 C -123.13636 516.90548 -123.02734 515.81923 -123.02734 514.82031 C -123.02734 512.43161 -123.44044 510.21704 -124.26562 508.17578 C -125.09082 506.09109 -126.08908 504.78875 -127.26172 504.26758 C -127.69603 504.05042 -128.3692 503.94141 -129.28125 503.94141 C -131.80025 503.94141 -134.40493 504.78861 -137.09766 506.48242 L -139.31445 507.84961 L -138.92188 505.83008 C -138.83501 505.22204 -138.79297 504.72291 -138.79297 504.33203 C -138.79297 503.46341 -138.90003 502.6602 -139.11719 501.92188 C -139.29091 501.14011 -139.37891 500.57596 -139.37891 500.22852 C -139.37891 498.05696 -137.90253 496.9707 -134.94922 496.9707 L -133.90625 496.9707 C -131.47411 496.9707 -128.49838 496.47157 -124.98047 495.47266 C -121.41912 494.47374 -119.63867 493.62654 -119.63867 492.93164 C -119.63867 492.32361 -120.16078 492.01953 -121.20312 492.01953 z " transform="matrix(.7273 0 0 .7273 -71.89 389.4)" inkscape:radius="1.2347043"/>
   <path d="m-161.4 682.5c-0.2077 0-0.3193 0.0254-0.5294 0.0604-0.009 0.002-0.0182 0.003-0.0272 0.005-0.1883 0.0377-0.4665 0.1036-0.8461 0.1983l-1.05 0.1907c-0.018 0.003-0.0359 0.007-0.0536 0.0111 0.0299-0.007-0.2284 0.0467-0.5848 0.1115s-0.8616 0.1548-1.514 0.269c-1.282 0.1974-2.706 0.4428-4.275 0.7371h-0.003c-1.54 0.2949-3.112 0.6071-4.716 0.9346-1.619 0.3304-2.981 0.6616-4.096 0.9993l-0.007 0.003c-0.5494 0.1717-0.9739 0.3289-1.319 0.5124-0.1727 0.0917-0.3278 0.1862-0.4835 0.3371-0.1557 0.1508-0.3524 0.4058-0.3524 0.7814 0 0.317 0.1134 0.7184 0.4086 0.9865 0.2194 0.1993 0.4728 0.2704 0.7167 0.3039 0.007 0.0367 0.003-0.001 0.003 0.0826 0 0.3519 0.1015 0.7661 0.4052 1.069 0.3036 0.303 0.7169 0.4034 1.068 0.4034 0.1823 0 0.1424-0.01 0.1864-0.0162 0.0441-0.006 0.0949-0.0148 0.1592-0.0255 0.1285-0.0214 0.3058-0.0525 0.5362-0.0936 0.4603-0.0822 1.131-0.2053 2.013-0.3686 1.787-0.3248 3.688-0.6332 5.706-0.9261l0.0111-0.002c1.424-0.226 2.049-0.2679 2.776-0.3345-0.1922 0.2653-0.3342 0.4768-0.612 0.8316-0.9526 1.217-2.403 2.949-4.333 5.171-0.433 0.4634-0.8006 0.7996-1.067 0.9942-0.2671 0.1954-0.4368 0.2068-0.3277 0.2068-0.4171 0-0.9161 0.255-1.148 0.623-0.2322 0.368-0.2758 0.7464-0.2758 1.145 0 0.658 0.2291 1.309 0.6869 1.767 0.4578 0.4578 1.109 0.6869 1.767 0.6869 0.6769 0 1.328-0.263 1.944-0.6869 0.01-0.006 0.0189-0.0129 0.0281-0.0196 0.4527-0.3396 1.07-0.6889 1.842-1.029 0.7178-0.3025 1.632-0.4707 2.755-0.4707 1.089 0 1.59 0.2784 1.924 0.8563 0.007 0.0109 0.0134 0.0217 0.0204 0.0323 0.3537 0.5527 0.652 1.86 0.652 3.815 0 2.192-0.3973 3.707-1.016 4.558-0.8036 1.101-1.878 2.03-3.254 2.796-1.375 0.7323-2.642 1.077-3.817 1.077-0.8601 0-1.34-0.1171-1.358-0.0987-0.018-0.0561-0.0506-0.144-0.0621-0.3405l0.002 0.0494c0-0.941-0.3456-1.845-0.9601-2.618-0.5803-0.7695-1.35-1.307-2.229-1.307-0.6113 0-1.212 0.4586-1.457 0.9865-0.2448 0.528-0.3107 1.125-0.3107 1.86 0 1.218 0.2562 2.36 0.7669 3.39 0.3699 0.8321 1.016 1.498 1.844 1.907 0.8336 0.4116 1.831 0.5882 2.981 0.5882 2.059 0 4.202-0.6033 6.417-1.762l0.009-0.004c2.23-1.201 3.985-2.772 5.212-4.7l0.00088-0.002c1.489-2.354 2.238-5.011 2.238-7.899 0-0.7983-0.0655-1.482-0.223-2.074-0.3464-1.345-1.204-2.61-2.487-3.824-1.283-1.247-2.492-1.998-3.764-1.998-0.0712 0-0.0815-0.007-0.1472-0.008 0.00087-0.001 0.001-0.001 0.003-0.003 0.5469-0.6515 1.378-1.609 2.487-2.864v-0.00087c1.134-1.282 1.988-2.296 2.574-3.06 0.2929-0.3819 0.519-0.699 0.6869-0.9763s0.332-0.4307 0.332-0.9295c0-0.6653-0.3084-1.26-0.761-1.829-0.429-0.5818-0.9535-1.066-1.693-1.066z" sodipodi:nodetypes="ccccccccccsccccsscssscccccccccccsssscccsccsccsccccscsccsccccsccsccccscsccc" inkscape:connector-curvature="0"/>
   <g transform="translate(-136.6 2)" fill="#fff">
    <path style="image-rendering:auto;color-rendering:auto;shape-rendering:auto" inkscape:connector-curvature="0" d="m-375.6 492.6c-2.292 0.2294-4.032 2.169-4.012 4.472v17.3c-0.0273 0.284-0.0273 0.5707 0 0.8547v8.483c-0.2071 2.451 1.612 4.606 4.064 4.814 2.452 0.2066 4.607-1.612 4.814-4.064 0.0212-0.25 0.0212-0.5 0-0.7505v-1.71l11.31 5.655c2.205 1.093 4.878 0.1904 5.97-2.015 1.082-2.183 0.2088-4.83-1.959-5.942l-9.799-4.931 9.799-4.866c1.486-0.7556 2.425-2.278 2.434-3.945v-8.877c0.009-2.448-1.958-4.444-4.406-4.472h-17.76c-0.1537-0.007-0.3073-0.007-0.4616 0zm4.866 8.877h8.878v1.71l-8.878 4.406v-6.116z"/>
    <path style="image-rendering:auto;color-rendering:auto;shape-rendering:auto" inkscape:connector-curvature="0" d="m-343 492.7c-2.794 0.009-4.534 2.23-4.514 4.533v26.7c-0.009 2.46 1.977 4.462 4.473 4.461s4.489-2.013 4.477-4.482c-0.0218-8.777 0.0265-17.55-0.0332-26.33 0.2099-2.451-1.608-4.89-4.402-4.881z"/>
    <path style="image-rendering:auto;color-rendering:auto;shape-rendering:auto" inkscape:connector-curvature="0" d="m-324.2 501.7c4.162 0.7735 7.273 4.384 7.273 8.785 0.0005 4.395-3.101 7.947-7.252 8.717-0.002-5.834-0.002-11.67-0.0215-17.5zm-4.412-9.05c-2.794 0.009-4.523 2.218-4.523 4.733l0.01 26.49c-0.009 2.46 1.977 4.449 4.473 4.448h2.783c9.772 0.3503 17.82-8.048 17.82-17.83 0-9.787-8.035-17.83-17.82-17.83z"/>
    <path style="image-rendering:auto;color-rendering:auto;shape-rendering:auto" inkscape:connector-curvature="0" d="m-399.5 492.7c-6.325-0.1524-12.56 3.058-15.93 8.885-4.894 8.477-1.954 19.45 6.521 24.34 3.029 1.749 6.047 2.481 8.9 2.334v0.0547c9.787 0 15.83-6.035 15.83-15.82v-0.7422c-0.009-2.794-2.217-4.523-4.732-4.523l-11.16 0.004v6.947c2.917-0.003 3.923-0.006 6.84-0.0156-0.7365 3.963-3.544 5.004-6.361 5.234-1.634 0.0587-3.311-0.3263-4.85-1.215-4.306-2.486-5.736-7.821-3.25-12.13 2.486-4.306 7.854-5.793 12.16-3.307l4.439-7.687c-2.649-1.529-5.543-2.294-8.418-2.363z"/>
   </g>
   <path sodipodi:type="inkscape:offset" d="m-121.2 490.8c-0.9759 0-2.096 0.1697-3.416 0.4883l0.0176-0.004c-1.097 0.2477-4.256 0.5377-9.1 0.7539-2.442 0.109-4.333 0.2251-5.691 0.3476-0.6792 0.0613-1.224 0.123-1.658 0.1934-0.4342 0.0704-0.6658 0.0444-1.178 0.3516a1.235 1.235 0 0 0 -0.0332 0.0195c-0.6681 0.4295-0.7708 0.9234-0.918 1.432-0.1472 0.5082-0.2456 1.103-0.3262 1.834-0.1612 1.462-0.2344 3.46-0.2344 6.047 0 3.065 0.0902 5.468 0.2832 7.25 0.0965 0.8912 0.2166 1.625 0.3809 2.24 0.1643 0.6152 0.3207 1.125 0.8047 1.609 0.7283 0.7283 1.249 1.34 2.371 1.34 0.7934 0 1.198-0.3509 1.668-0.7266 0.4699-0.3757 0.9649-0.8711 1.535-1.51a1.235 1.235 0 0 0 0.01 -0.0117c0.7284-0.8376 1.917-1.748 3.568-2.656 1.694-0.9079 2.969-1.285 3.512-1.285 0.1253 0 0.1676 0.006 0.3281 0.1562 0.1606 0.1505 0.3948 0.482 0.6113 1.023 0.4368 1.092 0.6934 2.639 0.6934 4.621 0 2.566-0.3921 4.87-1.16 6.932a1.235 1.235 0 0 0 -0.004 0.0117c-0.8736 2.413-1.851 3.972-2.697 4.688-0.7995 0.6706-2.021 1.076-3.83 1.076-2.135 0-3.732-0.3204-4.779-0.8418-0.9932-0.5148-1.886-1.428-2.668-2.875l0.0273 0.0547c-0.2546-0.5322-0.4762-0.948-0.7188-1.297-0.1213-0.1745-0.2436-0.3334-0.4316-0.5-0.1881-0.1666-0.4767-0.4043-1.006-0.4043-0.4436 0-0.9158 0.2678-1.146 0.543-0.2307 0.2751-0.3182 0.529-0.3848 0.7676-0.1331 0.4771-0.1582 0.9526-0.1582 1.553 0 1.988 1.054 4.011 2.879 6.248 0.9538 1.181 1.696 1.972 2.639 2.414 0.9283 0.4846 2.013 0.5859 3.469 0.5859 4.386 0 7.988-1.193 10.56-3.664 2.613-2.47 4.306-6.269 5.246-11.29a1.235 1.235 0 0 0 0.002 -0.002c0.2286-1.234 0.3457-2.394 0.3457-3.482 0-2.53-0.4408-4.91-1.328-7.105-0.88-2.22-1.999-3.823-3.613-4.555-0.7371-0.3623-1.546-0.4531-2.547-0.4531-2.76 0-5.562 0.9361-8.365 2.678 0.0374-0.3634 0.0879-0.7509 0.0879-1.053 0-0.9701-0.1204-1.892-0.375-2.758l0.0215 0.0801c-0.1656-0.7452-0.2324-1.287-0.2324-1.426 0-0.806 0.1837-1.139 0.6055-1.449 0.4218-0.3102 1.265-0.5742 2.59-0.5742h1.043c2.6 0 5.672-0.5244 9.26-1.543l0.004-0.002c1.814-0.509 3.192-0.9777 4.199-1.457 0.5043-0.2399 0.918-0.4761 1.279-0.7891 0.3613-0.3129 0.7598-0.7814 0.7598-1.482 0-0.6574-0.4338-1.418-1.004-1.75-0.5701-0.3323-1.154-0.3965-1.795-0.3965z" inkscape:original="M -121.20312 492.01953 C -122.02831 492.01953 -123.07058 492.17059 -124.33008 492.47461 C -125.67644 492.77862 -128.78221 493.04065 -133.64648 493.25781 C -138.51076 493.47497 -141.15944 493.71402 -141.59375 493.97461 C -142.20178 494.36549 -142.50586 497.12319 -142.50586 502.24805 C -142.50586 508.32839 -142.13676 511.73628 -141.39844 512.47461 C -140.74697 513.12607 -140.24784 513.45312 -139.90039 513.45312 C -139.46608 513.45312 -138.70492 512.84498 -137.61914 511.62891 C -136.75052 510.62999 -135.44818 509.65275 -133.71094 508.69727 C -131.93026 507.74179 -130.56291 507.26367 -129.60742 507.26367 C -128.7388 507.26367 -128.04266 507.91582 -127.52148 509.21875 C -127.00031 510.52168 -126.74023 512.21413 -126.74023 514.29883 C -126.74023 516.99156 -127.15332 519.44713 -127.97852 521.66211 C -128.89057 524.18112 -129.90986 525.91757 -131.03906 526.87305 C -132.12484 527.78509 -133.66818 528.24023 -135.66602 528.24023 C -137.92443 528.24023 -139.70488 527.91514 -141.00781 527.26367 C -142.26731 526.61221 -143.3306 525.48391 -144.19922 523.87695 C -144.67696 522.87804 -145.02503 522.37695 -145.24219 522.37695 C -145.54621 522.37695 -145.69727 522.92009 -145.69727 524.00586 C -145.69727 525.52595 -144.82904 527.3504 -143.0918 529.47852 C -142.17974 530.60772 -141.44156 531.30387 -140.87695 531.56445 C -140.31235 531.86848 -139.33511 532.01953 -137.94531 532.01953 C -133.77593 532.01953 -130.54013 530.91226 -128.23828 528.69727 C -125.893 526.48229 -124.26557 522.9424 -123.35352 518.07812 C -123.13636 516.90548 -123.02734 515.81923 -123.02734 514.82031 C -123.02734 512.43161 -123.44044 510.21704 -124.26562 508.17578 C -125.09082 506.09109 -126.08908 504.78875 -127.26172 504.26758 C -127.69603 504.05042 -128.3692 503.94141 -129.28125 503.94141 C -131.80025 503.94141 -134.40493 504.78861 -137.09766 506.48242 L -139.31445 507.84961 L -138.92188 505.83008 C -138.83501 505.22204 -138.79297 504.72291 -138.79297 504.33203 C -138.79297 503.46341 -138.90003 502.6602 -139.11719 501.92188 C -139.29091 501.14011 -139.37891 500.57596 -139.37891 500.22852 C -139.37891 498.05696 -137.90253 496.9707 -134.94922 496.9707 L -133.90625 496.9707 C -131.47411 496.9707 -128.49838 496.47157 -124.98047 495.47266 C -121.41912 494.47374 -119.63867 493.62654 -119.63867 492.93164 C -119.63867 492.32361 -120.16078 492.01953 -121.20312 492.01953 z " transform="matrix(.7273 0 0 .7273 -24.67 145.2)" inkscape:radius="1.2347043"/>
  </g>
 </g>
</svg>
