<svg xmlns:inkscape="http://www.inkscape.org/namespaces/inkscape" xmlns:rdf="http://www.w3.org/1999/02/22-rdf-syntax-ns#" xmlns="http://www.w3.org/2000/svg" sodipodi:docname="howto-setup.svg" version="1.1" xmlns:cc="http://creativecommons.org/ns#" xmlns:dc="http://purl.org/dc/elements/1.1/" inkscape:version="0.91 r13725" viewBox="0 0 166 73" xmlns:sodipodi="http://sodipodi.sourceforge.net/DTD/sodipodi-0.dtd">
 <sodipodi:namedview bordercolor="#666666" inkscape:pageshadow="2" guidetolerance="10" pagecolor="#ffffff" gridtolerance="10" inkscape:window-maximized="1" inkscape:zoom="4.1355422" objecttolerance="10" borderopacity="1" inkscape:current-layer="g4306" inkscape:cx="83" inkscape:cy="35.001831" inkscape:window-y="24" inkscape:window-x="65" inkscape:window-width="1855" showgrid="false" inkscape:pageopacity="0" inkscape:window-height="1056"/>
 <g transform="translate(0,1)">
  <g transform="translate(0 9.408)">
   <rect rx="3.043" height="53.78" width="54" y="-.7964" x="0" fill="#fff"/>
   <polygon points="8.873 44.94 20.52 31.68 32.16 44.94" fill="#cbd2d7" transform="matrix(1.2 0 0 1.2 -6.104 -11.66)"/>
   <polygon points="39.49 25.25 56.79 44.94 22.18 44.94" fill="#cbd2d7" transform="matrix(1.2 0 0 1.2 -9.897 -11.66)"/>
  </g>
  <g transform="translate(112.8 9.408)">
   <rect rx="3.043" height="54" width="54" y="-.9084" x="-.7606" fill="#fff"/>
   <g fill="#cbd2d7" transform="translate(10.14 13.13)">
    <g transform="translate(0 .7574)">
     <ellipse cy="1.767" cx="3.533" rx="3.549" ry="3.535"/>
     <rect y="-.00008369" x="9.668" height="3.535" width="30"/>
    </g>
    <g transform="translate(0 22.47)">
     <ellipse cy="1.767" cx="3.533" rx="3.549" ry="3.535"/>
     <rect y="-.00001172" x="9.668" height="3.535" width="30"/>
    </g>
    <g transform="translate(0 11.61)">
     <ellipse cy="1.767" cx="3.533" rx="3.549" ry="3.535"/>
     <rect y="-.00004770" x="9.668" height="3.535" width="30"/>
    </g>
   </g>
  </g>
  <g fill-rule="evenodd" transform="matrix(.9737 0 0 .9709 3.023 .6278)" stroke="#5a3392" stroke-width="2.962">
   <rect height="58.25" width="70.99" y="13.27" x="46.65" fill="#ffc3b6"/>
   <rect rx="4" height="18.18" width="70.99" y=".3195" x="46.65" fill="#ff876d"/>
   <g transform="translate(57 29.2)" fill="#ff876d">
    <rect height="10.1" width="10.14" y=".4068" x="39.85"/>
    <rect height="10.1" width="10.14" y=".4068" x="20.07"/>
    <rect height="10.1" width="10.14" y="20.6" x="20.07"/>
    <rect height="10.1" width="10.14" y="20.6" x=".8028"/>
   </g>
  </g>
 </g>
</svg>
