<?xml version="1.0" encoding="UTF-8" standalone="no"?>
<svg
   xmlns:dc="http://purl.org/dc/elements/1.1/"
   xmlns:cc="http://creativecommons.org/ns#"
   xmlns:rdf="http://www.w3.org/1999/02/22-rdf-syntax-ns#"
   xmlns:svg="http://www.w3.org/2000/svg"
   xmlns="http://www.w3.org/2000/svg"
   xmlns:sodipodi="http://sodipodi.sourceforge.net/DTD/sodipodi-0.dtd"
   xmlns:inkscape="http://www.inkscape.org/namespaces/inkscape"
   sodipodi:docname="howto-grades.svg"
   version="1.1"
   inkscape:version="0.91 r13725"
   viewBox="0 0 166 73"
   id="svg2">
  <metadata
     id="metadata295">
    <rdf:RDF>
      <cc:Work
         rdf:about="">
        <dc:format>image/svg+xml</dc:format>
        <dc:type
           rdf:resource="http://purl.org/dc/dcmitype/StillImage" />
        <dc:title />
      </cc:Work>
    </rdf:RDF>
  </metadata>
  <defs
     id="defs4" />
  <sodipodi:namedview
     bordercolor="#666666"
     inkscape:pageshadow="2"
     guidetolerance="10"
     pagecolor="#ffffff"
     gridtolerance="10"
     inkscape:window-maximized="1"
     inkscape:zoom="4.1566265"
     objecttolerance="10"
     borderopacity="1"
     inkscape:current-layer="svg2"
     inkscape:cx="38.853623"
     inkscape:cy="-6.5941481"
     inkscape:window-y="24"
     inkscape:window-x="65"
     inkscape:window-width="1855"
     showgrid="false"
     inkscape:pageopacity="0"
     inkscape:window-height="1056"
     id="namedview9" />
  <g
     fill-rule="evenodd"
     id="g11">
    <rect
       rx="3"
       height="54"
       width="54"
       y="9.5"
       x="112"
       id="rect13"
       style="fill:#ffffff" />
    <rect
       rx="3"
       height="54"
       width="54"
       y="9.5"
       x="0"
       id="rect15"
       style="fill:#ffffff" />
  </g>
  <g
     fill="none"
     transform="matrix(1 0 0 1.004 47 0.5)"
     id="g19">
    <rect
       rx="3"
       height="71.7"
       width="72"
       y="0"
       x="0"
       fill="#ffe69c"
       id="rect21" />
  </g>
  <g
     transform="matrix(.1340 0 0 .1340 51.9 2.972)"
     id="g159">
    <g
       transform="translate(0 -1020)"
       id="g161">
      <g
         style="image-rendering:auto;color-rendering:auto;shape-rendering:auto"
         id="g163">
        <path
           inkscape:connector-curvature="0"
           fill="#5a3392"
           d="m232.3 1020v0.16c-8.32 0-16.65 2.021-24.12 6.251-10.21 5.781-17.65 15.05-21.38 25.75h-34.72v15.97l-104.1 0.256 1.25 290.4h16v40h-15.84l0.374 85.38h365.8l0.312-255.9h-15.91v-40h15.94l0.16-120-104-0.191v-15.97h-107.9c2.776-4.807 6.824-8.938 11.91-11.81 4.989-2.802 10.55-4.198 16.12-4.188 5.576 0.013 11.14 1.44 16.09 4.313 2.42 1.392 4.587 3.098 6.5 4.998l15.62-6.188c-3.768-5.033-8.445-9.427-14.09-12.69-7.433-4.294-15.74-6.458-24.06-6.501l-0.002-0.035z"
           id="path165" />
        <path
           inkscape:connector-curvature="0"
           fill="#ee746c"
           d="m152.1 1084v16.06h160v-15.94h88.03l-0.484 384h-333.9l-1.627-383.9 87.96-0.219z"
           id="path167" />
        <path
           inkscape:connector-curvature="0"
           fill="#fb9761"
           d="m157.7 1098v14.94h148.8v-14.82h81.87l-0.423 357.1h-310.5l-1.512-357 81.78-0.202z"
           id="path169" />
        <path
           inkscape:connector-curvature="0"
           fill="#5a3392"
           d="m88.07 1229v7.914 200.1h288.1v-208h-288.1z"
           id="path171" />
        <g
           fill="#fff"
           id="g173">
          <g
             id="g175">
            <path
               inkscape:connector-curvature="0"
               d="m104.1 1244h255.9v176h-255.9v-176z"
               id="path177" />
            <path
               inkscape:connector-curvature="0"
               d="m232 1133c-17.58 0-32.01 14.43-32.01 32.01s14.43 32.01 32.01 32.01 32.01-14.43 32.01-32.01-14.43-32.01-32.01-32.01zm0 15.94c8.931 0 16.06 7.131 16.06 16.06 0.001 8.934-7.132 15.94-16.06 15.94-8.931 0-15.94-7.014-15.94-15.94 0-8.931 7.014-16.06 15.94-16.06z"
               id="path179" />
            <path
               d="m272.1 1141v47.83c-0.372 4.402 2.896 8.273 7.299 8.646 4.403 0.371 8.274-2.896 8.646-7.299 0.038-0.449 0.038-0.898 0-1.348v-3.072l20.32 10.16c3.96 1.963 8.761 0.342 10.72-3.619 1.943-3.92 0.375-8.674-3.518-10.67l-17.6-8.857 17.6-8.74c2.668-1.357 4.355-4.092 4.372-7.086v-15.94c0.017-4.396-3.517-7.982-7.913-8.031l-34.36 0.206c-2.473 0.206-5.597 3.689-5.561 7.825zm15.94 7.913h15.94v3.072l-15.94 7.914v-10.98z"
               sodipodi:nodetypes="ccccccccccccccccccccccc"
               inkscape:connector-curvature="0"
               id="path181" />
            <path
               d="m186.9 1135c-13.02-5.613-28.24-1.137-36.61 10.4-8.384 11.53-8.245 27.29 0.242 38.74 8.484 11.45 23.65 15.66 36.61 9.92 4.149-1.52 6.281-6.115 4.761-10.26-1.52-4.15-5.217-6.73-11.72-3.962-5.608 2.319-12.63 0.493-16.89-5.265-4.263-5.764-4.221-14.04 0-19.84 4.215-5.805 11.15-7.639 17.36-4.959 4.082 1.717 8.783-0.199 10.5-4.279 1.711-4.066-0.184-8.752-4.24-10.48h-0.007z"
               sodipodi:nodetypes="ccccccccccccc"
               inkscape:connector-curvature="0"
               id="path183" />
          </g>
          <g
             id="g185">
            <path
               d="m328.1 1189c-0.017 4.418 3.552 8.014 5.792 8.022l34.13 0.01c4.436-0.021 8.014-3.635 7.992-8.07-0.021-4.404-3.587-7.971-7.992-7.992h-23.86v-32.01h23.86c4.403 0.377 8.277-2.887 8.654-7.289s-2.887-8.277-5.77-8.466c-0.454-0.039-37.24 0.016-37.24 0.016-2.472 0.205-5.596 3.688-5.578 5.755z"
               sodipodi:nodetypes="ccccccccscccc"
               inkscape:connector-curvature="0"
               id="path187" />
            <path
               d="m331.6 1165c0.185 4.439 3.932 7.887 6.23 7.789 0.053 0 14.11-0.098 14.11-0.098 4.436-0.045 7.996-3.676 7.951-8.111-0.043-4.373-3.578-7.908-7.951-7.951l-14.44 0.094c-2.633 0.094-6.081 3.84-5.896 8.277z"
               sodipodi:nodetypes="ccccccc"
               inkscape:connector-curvature="0"
               id="path189" />
            <path
               d="m89.49 1145 23.5 35.55h-16.77c-4.436-0.021-8.049 3.557-8.07 7.992s3.557 8.049 5.814 8.06l34.03 0.011c4.419-0.037 7.97-3.648 7.933-8.068-0.013-1.541-0.471-3.047-1.319-4.334l-23.62-35.67h17.01c4.403 0.377 8.277-2.887 8.654-7.289s-2.887-8.277-5.77-8.466c-0.454-0.039-37.27 0.019-37.27 0.019-2.615 0.2073-5.843 4.111-5.572 6.969 0.271 2.857 0.72 4.123 1.453 5.223z"
               sodipodi:nodetypes="cccsccccccscccc"
               inkscape:connector-curvature="0"
               id="path191" />
          </g>
        </g>
        <path
           inkscape:connector-curvature="0"
           fill="#3cdef6"
           d="m168 1069h112.1 15.94v15.94h-128v-15.94z"
           id="path193" />
        <path
           inkscape:connector-curvature="0"
           fill="#ebfeff"
           d="m113.4 1251h237.4v163.3h-237.4v-163.3z"
           id="path195" />
        <g
           fill="#5a3392"
           id="g197">
          <path
             inkscape:connector-curvature="0"
             d="m92.09 1356v16.06h280v-16.06h-280z"
             id="path199" />
          <path
             inkscape:connector-curvature="0"
             d="m92.09 1293v15.94h280v-15.94h-280z"
             id="path201" />
          <path
             inkscape:connector-curvature="0"
             d="m136.1 1233v200h15.94v-200h-15.94z"
             id="path203" />
          <path
             inkscape:connector-curvature="0"
             d="m312.1 1233v200h15.94v-200h-15.94z"
             id="path205" />
          <path
             inkscape:connector-curvature="0"
             d="m264.1 1233v200h16.06v-200h-16.06z"
             id="path207" />
        </g>
      </g>
      <g
         fill="#5a3392"
         id="g209">
        <path
           inkscape:connector-curvature="0"
           d="m49.27 1371h16v16h-16v-16z"
           id="path211" />
        <path
           inkscape:connector-curvature="0"
           d="m416 1201h-16v16h16v-16z"
           id="path213" />
      </g>
    </g>
  </g>
  <g
     transform="matrix(0.1005,0,0,0.1005,2.87,13.994414)"
     id="g215">
    <g
       transform="translate(0,-1020)"
       id="g217">
      <g
         style="color-rendering:auto;image-rendering:auto;shape-rendering:auto"
         id="g219">
        <path
           inkscape:connector-curvature="0"
           d="m 400.7,1020 c 6.079,0.608 9.27,7.517 5.781,12.53 l -110.5,159.9 0,41.78 c -20.53,-14.02 -45.34,-22.25 -72.03,-22.25 -26.71,0 -51.52,8.25 -72.06,22.28 l 0,-41.75 -110.6,-160 c -3.653,-5.321 0.181,-12.56 6.625,-12.53 l 95.91,0 c 0.242,-0.015 0.544,-0.015 0.81,0 2.352,0.24 4.469,1.552 5.781,3.531 l 73.53,108.1 73.41,-108.1 c 1.488,-2.201 3.967,-3.524 6.625,-3.531 l 95.91,0 c 0.242,-0.015 0.544,-0.015 0.81,0 l 0.006,0 z"
           id="path221"
           style="fill:#5a3392" />
        <path
           inkscape:connector-curvature="0"
           d="m 384.6,1036 -76.41,0 -74.59,109.9 23.25,34.22 28.16,0 99.59,-144.1 z"
           id="path223"
           style="fill:#29a3ec" />
        <path
           inkscape:connector-curvature="0"
           d="m 139.6,1036 -76.44,0 99.59,144.1 74.78,0 -97.94,-144.1 z"
           id="path225"
           style="fill:#3cdef6" />
        <path
           inkscape:connector-curvature="0"
           d="m 279.9,1196 -112,0 0,29.09 c 16.94,-8.27 35.88,-13.03 55.97,-13.03 20.1,0 39.06,4.76 56,13.03 l 0,-29.09 z"
           id="path227"
           style="fill:#ee746c" />
        <path
           inkscape:connector-curvature="0"
           d="m 223.9,1228 c -61.95,0 -112,50.02 -112,112 -0.001,61.95 50.02,112.1 112,112.1 61.95,0 112,-50.14 112,-112.1 0,-61.95 -50.02,-112 -112,-112 z"
           id="path229"
           style="fill:#ffffff" />
        <path
           inkscape:connector-curvature="0"
           d="m 223.9,1233 c -59.21,0 -107,47.81 -107,107 -0.001,59.21 47.81,107.1 107,107.1 59.21,0 107,-47.93 107,-107.1 0,-59.21 -47.81,-107 -107,-107 z"
           id="path231"
           style="fill:#ebfeff" />
        <path
           inkscape:connector-curvature="0"
           d="m 223.9,1265 c -41.82,0 -75.58,33.64 -75.59,75.46 0,41.82 33.77,75.59 75.59,75.59 41.82,0 75.59,-33.77 75.59,-75.59 0,-41.82 -33.77,-75.46 -75.59,-75.46 z"
           id="path233"
           style="fill:#ee746c" />
        <path
           inkscape:connector-curvature="0"
           d="m 223.9,1276 c -35.75,0 -64.62,28.76 -64.62,64.51 0,35.75 28.87,64.62 64.62,64.62 35.75,0 64.62,-28.87 64.62,-64.62 C 288.519,1304.76 259.65,1276 223.9,1276 Z"
           id="path235"
           style="fill:#fb9761" />
        <path
           inkscape:connector-curvature="0"
           d="m 225.4,1292 c 2.707,0.475 4.981,2.303 6.023,4.846 l 9.803,23.15 27.28,2.836 c 4.397,0.438 7.608,4.355 7.171,8.752 -0.211,2.125 -1.262,4.076 -2.92,5.422 l -19.84,16.06 5.551,25.51 c 0.901,4.326 -1.875,8.563 -6.201,9.465 -1.962,0.408 -4.006,0.064 -5.728,-0.961 l -22.32,-13.35 -23.86,13.23 c -3.884,2.105 -8.741,0.664 -10.85,-3.219 -0.955,-1.762 -1.214,-3.814 -0.728,-5.758 l 6.142,-24.09 -20.2,-17.48 c -3.352,-2.879 -3.735,-7.932 -0.855,-11.28 1.409,-1.639 3.421,-2.639 5.578,-2.771 l 26.22,-1.771 11.1,-23.98 c 1.493,-3.318 5.037,-5.211 8.625,-4.607 z"
           id="path237"
           style="fill:#5a3392" />
        <path
           d="m 223.8,1320 -5.551,11.93 c -1.234,2.65 -3.815,4.418 -6.732,4.607 l -11.58,0.832 9.331,8.031 c 2.279,1.992 3.239,5.102 2.479,8.031 l -2.836,10.99 11.69,-6.496 c 2.481,-1.346 5.489,-1.285 7.913,0.16 l 10.51,6.262 -2.715,-12.28 c -0.656,-2.938 0.394,-5.996 2.715,-7.912 l 8.622,-6.969 -12.76,-1.297 c -2.884,-0.318 -5.369,-2.172 -6.496,-4.846 l -4.608,-10.98 0.004,-0.05 z"
           inkscape:connector-curvature="0"
           id="path239"
           style="fill:#fce94f" />
        <path
           inkscape:connector-curvature="0"
           d="m 268.7,1199 -89.53,0 0,23.26 c 13.54,-6.613 28.69,-10.42 44.75,-10.42 16.07,0 31.23,3.811 44.78,10.42 l 0,-23.26 z"
           id="path241"
           style="fill:#fb9761" />
        <g
           id="g243"
           style="fill:#5a3392">
          <path
             inkscape:connector-curvature="0"
             d="m 220.3,1212 c 44.54,-1.217 87.96,20.95 112.5,60.69 32.73,52.99 22.49,122 -24.19,163.2 -46.68,41.22 -116.4,42.84 -164.9,3.813 -3.437,-2.777 -3.972,-7.816 -1.194,-11.25 2.769,-3.428 7.787,-3.971 11.22,-1.217 42.54,34.21 103.4,32.83 144.3,-3.313 40.92,-36.14 49.84,-96.36 21.16,-142.8 -28.69,-46.45 -86.52,-65.44 -137.2,-45.03 -50.64,20.41 -79.14,74.2 -67.59,127.6 1.127,4.273 -1.424,8.65 -5.696,9.775 -4.273,1.127 -8.65,-1.424 -9.776,-5.695 -0.061,-0.232 -0.112,-0.469 -0.152,-0.705 -13.17,-60.87 19.49,-122.5 77.25,-145.8 14.44,-5.822 29.4,-8.812 44.25,-9.22 z"
             id="path245" />
          <path
             inkscape:connector-curvature="0"
             d="m 115.9,1385 c 3.208,-0.135 6.186,1.662 7.563,4.563 3.234,6.553 7.117,12.79 11.56,18.59 2.684,3.512 2.012,8.535 -1.5,11.22 -3.512,2.684 -8.535,2.012 -11.22,-1.5 -5.081,-6.629 -9.492,-13.73 -13.19,-21.22 -2.023,-3.928 -0.478,-8.754 3.451,-10.78 1.033,-0.532 2.169,-0.833 3.33,-0.882 z"
             id="path247" />
          <path
             inkscape:connector-curvature="0"
             d="m 231.1,1252 c 42.41,3.494 76.33,36.98 80.38,79.34 0.424,4.4 -2.8,8.313 -7.201,8.736 -4.401,0.423 -8.312,-2.801 -8.736,-7.201 -3.322,-34.76 -30.95,-62.04 -65.75,-64.91 -34.8,-2.865 -66.54,19.51 -75.5,53.25 -8.965,33.74 7.464,68.94 39.09,83.72 31.626,14.78 69.18,4.836 89.31,-23.69 2.39,-3.717 7.34,-4.793 11.06,-2.402 3.717,2.391 4.792,7.34 2.402,11.06 -0.124,0.193 -0.256,0.381 -0.396,0.563 -24.54,34.77 -70.57,46.99 -109.1,28.97 -38.55,-18.02 -58.74,-61.18 -47.81,-102.3 10.93,-41.13 49.87,-68.62 92.28,-65.13 z"
             id="path249" />
        </g>
        <path
           d="m 223.9,1312 -7.462,16.04 c -1.659,3.562 -5.128,5.939 -9.049,6.193 l -15.56,1.118 12.54,10.8 c 3.064,2.678 4.354,6.858 3.332,10.8 l -3.812,14.77 15.72,-8.732 c 3.335,-1.809 7.379,-1.727 10.64,0.215 l 14.13,8.418 -3.65,-16.51 c -0.8818,-3.949 0.5296,-8.06 3.65,-10.64 l 11.59,-9.368 -17.15,-1.743 c -3.877,-0.4276 -7.217,-2.92 -8.732,-6.514 l -6.194,-14.77 0.005,-0.067 z"
           inkscape:connector-curvature="0"
           id="path251"
           style="fill:#fce94f" />
      </g>
      <path
         inkscape:connector-curvature="0"
         d="m 293.5,1360 c 0,4.418 3.582,8 8,8 4.418,0 8,-3.582 8,-8 0,-4.418 -3.582,-8 -8,-8 -4.418,0 -8,3.582 -8,8 z"
         id="path253"
         style="fill:#5a3392" />
    </g>
  </g>
  <g
     transform="matrix(0.1005,0,0,0.1005,118.1,13.994414)"
     id="g255">
    <g
       transform="translate(0,-1020)"
       id="g257">
      <g
         style="color-rendering:auto;image-rendering:auto;shape-rendering:auto"
         id="g259">
        <path
           inkscape:connector-curvature="0"
           d="m 400.7,1020 c 6.079,0.608 9.27,7.517 5.781,12.53 l -110.5,159.9 0,41.78 c -20.53,-14.02 -45.34,-22.25 -72.03,-22.25 -26.71,0 -51.52,8.25 -72.06,22.28 l 0,-41.75 -110.6,-160 c -3.653,-5.321 0.181,-12.56 6.625,-12.53 l 95.91,0 c 0.242,-0.015 0.544,-0.015 0.81,0 2.352,0.24 4.469,1.552 5.781,3.531 l 73.53,108.1 73.41,-108.1 c 1.488,-2.201 3.967,-3.524 6.625,-3.531 l 95.91,0 c 0.242,-0.015 0.544,-0.015 0.81,0 l 0.006,0 z"
           id="path261"
           style="fill:#5a3392" />
        <path
           inkscape:connector-curvature="0"
           d="m 384.6,1036 -76.41,0 -74.59,109.9 23.25,34.22 28.16,0 99.59,-144.1 z"
           id="path263"
           style="fill:#29a3ec" />
        <path
           inkscape:connector-curvature="0"
           d="m 139.6,1036 -76.44,0 99.59,144.1 74.78,0 -97.94,-144.1 z"
           id="path265"
           style="fill:#3cdef6" />
        <path
           inkscape:connector-curvature="0"
           d="m 279.9,1196 -112,0 0,29.09 c 16.94,-8.27 35.88,-13.03 55.97,-13.03 20.1,0 39.06,4.76 56,13.03 l 0,-29.09 z"
           id="path267"
           style="fill:#ee746c" />
        <path
           inkscape:connector-curvature="0"
           d="m 223.9,1228 c -61.95,0 -112,50.02 -112,112 -0.001,61.95 50.02,112.1 112,112.1 61.95,0 112,-50.14 112,-112.1 0,-61.95 -50.02,-112 -112,-112 z"
           id="path269"
           style="fill:#ffffff" />
        <path
           inkscape:connector-curvature="0"
           d="m 223.9,1233 c -59.21,0 -107,47.81 -107,107 -0.001,59.21 47.81,107.1 107,107.1 59.21,0 107,-47.93 107,-107.1 0,-59.21 -47.81,-107 -107,-107 z"
           id="path271"
           style="fill:#ebfeff" />
        <path
           inkscape:connector-curvature="0"
           d="m 223.9,1265 c -41.82,0 -75.58,33.64 -75.59,75.46 0,41.82 33.77,75.59 75.59,75.59 41.82,0 75.59,-33.77 75.59,-75.59 0,-41.82 -33.77,-75.46 -75.59,-75.46 z"
           id="path273"
           style="fill:#ee746c" />
        <path
           inkscape:connector-curvature="0"
           d="m 223.9,1276 c -35.75,0 -64.62,28.76 -64.62,64.51 0,35.75 28.87,64.62 64.62,64.62 35.75,0 64.62,-28.87 64.62,-64.62 C 288.519,1304.76 259.65,1276 223.9,1276 Z"
           id="path275"
           style="fill:#fb9761" />
        <path
           inkscape:connector-curvature="0"
           d="m 225.4,1292 c 2.707,0.475 4.981,2.303 6.023,4.846 l 9.803,23.15 27.28,2.836 c 4.397,0.438 7.608,4.355 7.171,8.752 -0.211,2.125 -1.262,4.076 -2.92,5.422 l -19.84,16.06 5.551,25.51 c 0.901,4.326 -1.875,8.563 -6.201,9.465 -1.962,0.408 -4.006,0.064 -5.728,-0.961 l -22.32,-13.35 -23.86,13.23 c -3.884,2.105 -8.741,0.664 -10.85,-3.219 -0.955,-1.762 -1.214,-3.814 -0.728,-5.758 l 6.142,-24.09 -20.2,-17.48 c -3.352,-2.879 -3.735,-7.932 -0.855,-11.28 1.409,-1.639 3.421,-2.639 5.578,-2.771 l 26.22,-1.771 11.1,-23.98 c 1.493,-3.318 5.037,-5.211 8.625,-4.607 z"
           id="path277"
           style="fill:#5a3392" />
        <path
           inkscape:connector-curvature="0"
           d="m 223.8,1320 -5.551,11.93 c -1.234,2.65 -3.815,4.418 -6.732,4.607 l -11.58,0.832 9.331,8.031 c 2.279,1.992 3.239,5.102 2.479,8.031 l -2.836,10.99 11.69,-6.496 c 2.481,-1.346 5.489,-1.285 7.913,0.16 l 10.51,6.262 -2.715,-12.28 c -0.656,-2.938 0.394,-5.996 2.715,-7.912 l 8.622,-6.969 -12.76,-1.297 c -2.884,-0.318 -5.369,-2.172 -6.496,-4.846 l -4.608,-10.98 0.004,-0.05 z"
           id="path279"
           style="fill:#d3d7cf" />
        <path
           inkscape:connector-curvature="0"
           d="m 268.7,1199 -89.53,0 0,23.26 c 13.54,-6.613 28.69,-10.42 44.75,-10.42 16.07,0 31.23,3.811 44.78,10.42 l 0,-23.26 z"
           id="path281"
           style="fill:#fb9761" />
        <g
           id="g283"
           style="fill:#5a3392">
          <path
             inkscape:connector-curvature="0"
             d="m 220.3,1212 c 44.54,-1.217 87.96,20.95 112.5,60.69 32.73,52.99 22.49,122 -24.19,163.2 -46.68,41.22 -116.4,42.84 -164.9,3.813 -3.437,-2.777 -3.972,-7.816 -1.194,-11.25 2.769,-3.428 7.787,-3.971 11.22,-1.217 42.54,34.21 103.4,32.83 144.3,-3.313 40.92,-36.14 49.84,-96.36 21.16,-142.8 -28.69,-46.45 -86.52,-65.44 -137.2,-45.03 -50.64,20.41 -79.14,74.2 -67.59,127.6 1.127,4.273 -1.424,8.65 -5.696,9.775 -4.273,1.127 -8.65,-1.424 -9.776,-5.695 -0.061,-0.232 -0.112,-0.469 -0.152,-0.705 -13.17,-60.87 19.49,-122.5 77.25,-145.8 14.44,-5.822 29.4,-8.812 44.25,-9.22 z"
             id="path285" />
          <path
             inkscape:connector-curvature="0"
             d="m 115.9,1385 c 3.208,-0.135 6.186,1.662 7.563,4.563 3.234,6.553 7.117,12.79 11.56,18.59 2.684,3.512 2.012,8.535 -1.5,11.22 -3.512,2.684 -8.535,2.012 -11.22,-1.5 -5.081,-6.629 -9.492,-13.73 -13.19,-21.22 -2.023,-3.928 -0.478,-8.754 3.451,-10.78 1.033,-0.532 2.169,-0.833 3.33,-0.882 z"
             id="path287" />
          <path
             inkscape:connector-curvature="0"
             d="m 231.1,1252 c 42.41,3.494 76.33,36.98 80.38,79.34 0.424,4.4 -2.8,8.313 -7.201,8.736 -4.401,0.423 -8.312,-2.801 -8.736,-7.201 -3.322,-34.76 -30.95,-62.04 -65.75,-64.91 -34.8,-2.865 -66.54,19.51 -75.5,53.25 -8.965,33.74 7.464,68.94 39.09,83.72 31.626,14.78 69.18,4.836 89.31,-23.69 2.39,-3.717 7.34,-4.793 11.06,-2.402 3.717,2.391 4.792,7.34 2.402,11.06 -0.124,0.193 -0.256,0.381 -0.396,0.563 -24.54,34.77 -70.57,46.99 -109.1,28.97 -38.55,-18.02 -58.74,-61.18 -47.81,-102.3 10.93,-41.13 49.87,-68.62 92.28,-65.13 z"
             id="path289" />
        </g>
        <path
           inkscape:connector-curvature="0"
           d="m 223.9,1312 -7.462,16.04 c -1.659,3.562 -5.128,5.939 -9.049,6.193 l -15.56,1.118 12.54,10.8 c 3.064,2.678 4.354,6.858 3.332,10.8 l -3.812,14.77 15.72,-8.732 c 3.335,-1.809 7.378,-1.727 10.64,0.2151 l 14.13,8.418 -3.65,-16.51 c -0.8818,-3.949 0.5296,-8.06 3.65,-10.64 l 11.59,-9.368 -17.15,-1.743 c -3.877,-0.4275 -7.217,-2.92 -8.732,-6.514 l -6.194,-14.77 0.005,-0.067 z"
           id="path291"
           style="fill:#d3d7cf" />
      </g>
      <path
         inkscape:connector-curvature="0"
         d="m 293.5,1360 c 0,4.418 3.582,8 8,8 4.418,0 8,-3.582 8,-8 0,-4.418 -3.582,-8 -8,-8 -4.418,0 -8,3.582 -8,8 z"
         id="path293"
         style="fill:#5a3392" />
    </g>
  </g>
</svg>
