<svg xmlns:inkscape="http://www.inkscape.org/namespaces/inkscape" xmlns:rdf="http://www.w3.org/1999/02/22-rdf-syntax-ns#" xmlns="http://www.w3.org/2000/svg" sodipodi:docname="howto-invite.svg" version="1.1" xmlns:cc="http://creativecommons.org/ns#" xmlns:dc="http://purl.org/dc/elements/1.1/" inkscape:version="0.91 r13725" viewBox="0 0 166 73" xmlns:sodipodi="http://sodipodi.sourceforge.net/DTD/sodipodi-0.dtd">
 <sodipodi:namedview bordercolor="#666666" inkscape:pageshadow="2" guidetolerance="10" pagecolor="#ffffff" gridtolerance="10" inkscape:window-maximized="1" inkscape:zoom="3.1204819" objecttolerance="10" borderopacity="1" inkscape:current-layer="svg2" inkscape:cx="83" inkscape:cy="36.5" inkscape:window-y="24" inkscape:window-x="65" inkscape:window-width="1855" showgrid="false" inkscape:pageopacity="0" inkscape:window-height="1056"/>
 <g fill-rule="evenodd">
  <rect rx="3" height="54" width="54" y="9.5" x="0" fill="#fff"/>
  <rect rx="3" height="54" width="54" y="9.5" x="112" fill="#fff"/>
  <rect rx="3" height="72" width="72" y=".5" x="47" fill="#cee7b2"/>
 </g>
 <g transform="matrix(.3146 0 0 .3146 50.5 3)">
  <g>
   <path inkscape:connector-curvature="0" fill="#d65128" d="m31.28 122.2s8.933 18.48 6.727 34.14c-2.204 15.66-14.61 23.04-19.9 13.23 0 0-26.01 37.04 85.98 37.04v-101.3l-72.81 16.91z"/>
   <path inkscape:connector-curvature="0" fill="#d65128" d="m177.6 117.6s-11.19 23.06-8.983 38.72c2.204 15.66 14.61 23.04 19.9 13.23 0 0 26.01 37.04-85.98 37.04v-101.3l75.06 12.33z"/>
   <g>
    <g>
     <rect height="32.92" width="29.4" y="156.3" x="89.39" fill="#fdcc9b"/>
     <path inkscape:connector-curvature="0" fill="#fcbc85" d="m89.39 160.2s12.36 7.874 29.39 6.05v-9.928h-29.39v3.878z"/>
     <ellipse rx="14.34" ry="16.36" cy="105.3" cx="47" fill="#916a50"/>
     <ellipse rx="14.34" ry="16.36" cy="105.3" cx="161.2" fill="#916a50"/>
     <path inkscape:connector-curvature="0" fill="#fdcc9b" d="m161.1 74.04c0-24.1-17.64-41.74-57.02-41.74-39.39 0-57.03 17.64-57.03 41.74s-4.115 87.6 57.03 87.6c61.14-0.001 57.02-63.49 57.02-87.6z"/>
     <g>
      <g>
       <ellipse rx="6.173" ry="6.761" cy="101.4" cx="76.31" fill="#3b2519"/>
       <circle cy="98.39" cx="73.62" r="1.846" fill="#fff"/>
      </g>
      <path inkscape:connector-curvature="0" fill="#d96e27" d="m66.43 86.8c2.919 1.118 7.606-3.798 18.34 0.478 1.956 0.78 3.124-6.668-8.377-6.668-9.958 0-11.72 5.515-9.958 6.19z"/>
      <g>
       <ellipse rx="6.173" ry="6.761" cy="101.4" cx="132.6" fill="#3b2519"/>
       <circle cy="98.39" cx="129.9" r="1.847" fill="#fff"/>
      </g>
      <path inkscape:connector-curvature="0" fill="#d96e27" d="m141.7 86.8c-2.919 1.118-7.605-3.798-18.34 0.478-1.956 0.78-3.123-6.668 8.378-6.668 9.957 0 11.72 5.515 9.957 6.19z"/>
     </g>
     <path inkscape:connector-curvature="0" fill="#fcbc85" d="m104.1 125.2c-6.1 0-9.774-4.556-9.774-2.352 0 2.205 1.764 6.394 9.774 6.394s9.773-4.189 9.773-6.394c0-2.204-3.674 2.352-9.773 2.352z"/>
     <path inkscape:connector-curvature="0" fill="#fcbc85" d="m104.1 145.4c-2.109 0-3.381-1.576-3.381-0.813s0.61 2.211 3.381 2.211 3.38-1.448 3.38-2.211c-0.001-0.763-1.271 0.813-3.38 0.813z"/>
     <path inkscape:connector-curvature="0" fill="#f7945e" d="m104.1 139.8c-9.668 0-15.49-3.936-15.49-2.939s2.796 4.924 15.49 4.924c12.7 0 15.49-3.926 15.49-4.924s-5.825 2.939-15.49 2.939z"/>
    </g>
    <circle cy="123" cx="68.37" r="8.378" fill="#f9aa8d"/>
    <circle cy="123" cx="140.8" r="8.377" fill="#f9aa8d"/>
   </g>
   <path inkscape:connector-curvature="0" fill="#f6a2b1" d="m104.1 169.6v37.04h-64.37c0-14.99 30.57-37.04 64.37-37.04z"/>
   <path inkscape:connector-curvature="0" fill="#f6a2b1" d="m104.1 169.6v37.04h64.37c0-14.99-30.57-37.04-64.37-37.04z"/>
   <path inkscape:connector-curvature="0" fill="#fdcc9b" d="m89.39 170.9 14.7 26.28c0.879 0 14.7-26.28 14.7-26.28s-15.25-5.552-29.39 0z"/>
   <g fill="#f38191">
    <path inkscape:connector-curvature="0" d="m89.39 166.6 8.535 8.928 6.162 21.66-8.818-13.23-9.921 5.365-8.597-15.46c0.001-0.001 7.421-6.757 12.64-7.259z"/>
    <path inkscape:connector-curvature="0" d="m118.8 166.6-8.536 8.928-6.161 21.66 8.818-13.23 9.92 5.365 8.598-15.46c-0.001-0.001-7.421-6.757-12.64-7.259z"/>
    <polygon points="104.1 206.6 104.1 197.1 99.24 189.9"/>
    <polygon points="104.1 206.6 104.1 197.1 108.5 189.9"/>
   </g>
   <path inkscape:connector-curvature="0" fill="#d96e27" d="m146.8 17.02s-35.31-26.68-78.45-13.23c-41.02 12.79-41.89 67.02-40.57 97.59 1.323 30.57 11.91 34.24 22.49 29.98 13.99-5.638 0-23.22 0-23.22 6.614-6.761 3.969-19.21 3.969-19.21 10.36-0.384 14.11-17.24 14.11-17.24 20.16 7.769 25.94-7.496 25.94-7.496 18.89 10.14 33.77-7.937 33.77-7.937s9.303 19.34 21.12 17.2c0 0-3.107 18.6 4.262 21.16 0 0-7.895 23.81 2.446 31.08 10.34 7.275 27.1 0.042 26.66-36.77s-7.056-75.44-35.74-71.92z"/>
  </g>
 </g>
 <g transform="matrix(.3146 0 0 .3146 111 4.277)">
  <g>
   <g>
    <rect height="32.92" width="29.4" y="148.2" x="84.55" fill="#fdcc9b"/>
    <g fill="#fcbc85">
     <path inkscape:connector-curvature="0" d="m84.55 152.1s12.36 7.874 29.4 6.05v-9.928h-29.4v3.878z"/>
     <ellipse rx="14.34" ry="16.36" cy="97.18" cx="42.16"/>
     <ellipse rx="14.34" ry="16.36" cy="97.18" cx="156.3"/>
    </g>
    <path inkscape:connector-curvature="0" fill="#fdcc9b" d="m156.3 65.92c0-24.1-17.64-41.74-57.03-41.74s-57.03 17.64-57.03 41.74-4.115 87.6 57.03 87.6 57.03-63.49 57.03-87.6z"/>
    <g>
     <g>
      <ellipse rx="6.173" ry="6.761" cy="93.26" cx="71.47" fill="#3b2519"/>
      <circle cy="90.28" cx="68.78" r="1.846" fill="#fff"/>
     </g>
     <path inkscape:connector-curvature="0" fill="#51362a" d="m61.6 76.51c2.919 1.46 7.606-4.96 18.34 0.625 1.956 1.018 3.123-8.708-8.377-8.708-9.958 0-11.72 7.202-9.958 8.083z"/>
     <g>
      <ellipse rx="6.173" ry="6.761" cy="93.26" cx="127.8" fill="#3b2519"/>
      <circle cy="90.28" cx="125.1" r="1.846" fill="#fff"/>
     </g>
     <path inkscape:connector-curvature="0" fill="#51362a" d="m136.9 76.51c-2.919 1.46-7.606-4.96-18.34 0.625-1.956 1.018-3.123-8.708 8.378-8.708 9.957 0 11.72 7.202 9.957 8.083z"/>
    </g>
    <path inkscape:connector-curvature="0" fill="#fcbc85" d="m99.25 117c-6.1 0-9.774-4.556-9.774-2.352 0 2.205 1.764 6.394 9.774 6.394s9.774-4.189 9.774-6.394-3.675 2.352-9.774 2.352z"/>
    <path inkscape:connector-curvature="0" fill="#fcbc85" d="m99.25 137.3c-2.11 0-3.381-1.576-3.381-0.813s0.61 2.211 3.381 2.211 3.38-1.448 3.38-2.211-1.271 0.813-3.38 0.813z"/>
    <path inkscape:connector-curvature="0" fill="#f7945e" d="m99.25 131.7c-9.668 0-15.49-3.937-15.49-2.939s2.796 4.924 15.49 4.924c12.7 0 15.49-3.926 15.49-4.924-0.001-0.998-5.825 2.939-15.49 2.939z"/>
   </g>
   <path inkscape:connector-curvature="0" fill="#f7941e" d="m99.25 161.5v37.04h-71.43c0-14.99 37.62-37.04 71.43-37.04z"/>
   <path inkscape:connector-curvature="0" fill="#f7941e" d="m99.25 161.5v37.04h71.43c0-14.99-37.62-37.04-71.43-37.04z"/>
   <path inkscape:connector-curvature="0" fill="#f36c21" d="m99.25 161.5c-7.19 0-14.55 1.005-21.69 2.72 0.048 0.063 7.916 10.21 21.69 10.21 12.75 0 21.23-8.693 22.46-10.03-7.378-1.831-15.01-2.904-22.46-2.904z"/>
   <path inkscape:connector-curvature="0" fill="#fdcc9b" d="m84.55 162.7s4.299 5.332 14.7 5.332 14.7-5.332 14.7-5.332-15.25-5.551-29.4 0z"/>
   <path inkscape:connector-curvature="0" fill="#51362a" d="m146.1 19.04s-21.16-26.9-65.15-16.76-47.28 36.6-45.96 62.34c1.323 25.74 4.85 40.84 9.022 38.97 4.172-1.867 2.001-18.86 2.442-22.78 0.441-3.921 4.409-21.65 31.16-19.01 26.75 2.646 49.3-7.055 49.3-7.055s9.075 11.47 15.05 13.67c11.93 4.391 8.02 33.67 12.7 33.67 4.676 0 27.6-67.62-8.553-83.05z"/>
  </g>
 </g>
 <g transform="matrix(.3146 0 0 .3146 -7.849 3.452)">
  <g>
   <path inkscape:connector-curvature="0" fill="#543c2a" d="m101.9 66.14v131.4h60.26s11.45-59.36 11.17-95.11c-0.281-35.75-71.43-36.28-71.43-36.28z"/>
   <path inkscape:connector-curvature="0" fill="#543c2a" d="m101.9 66.14v131.4h-60.26s-11.45-59.36-11.17-95.11 71.43-36.28 71.43-36.28z"/>
   <g>
    <g>
     <rect height="32.92" width="29.4" y="153.5" x="87.17" fill="#f6c677"/>
     <g fill="#fcbc85">
      <path inkscape:connector-curvature="0" d="m87.17 157.3s12.36 7.874 29.4 6.051v-9.929h-29.4v3.878z"/>
      <ellipse rx="14.34" ry="16.36" cy="102.4" cx="44.78"/>
      <ellipse rx="14.34" ry="16.36" cy="102.4" cx="159"/>
     </g>
     <path d="m158.9 71.16c0-24.1-17.64-41.74-57.03-41.74s-57.02 17.64-57.02 41.74-4.115 87.6 57.02 87.6 57.03-63.49 57.03-87.6z" inkscape:connector-curvature="0" fill="#f6c677"/>
     <g>
      <g>
       <ellipse rx="6.173" ry="6.761" cy="98.5" cx="74.09" fill="#3b2519"/>
       <circle cy="95.52" cx="71.4" r="1.846" fill="#fff"/>
      </g>
      <path inkscape:connector-curvature="0" fill="#684b37" d="m64.22 83.92c2.919 1.117 7.605-3.798 18.34 0.478 1.956 0.78 3.123-6.668-8.378-6.668-9.957 0-11.72 5.515-9.957 6.19z"/>
      <g>
       <ellipse rx="6.173" ry="6.761" cy="98.5" cx="130.4" fill="#3b2519"/>
       <circle cy="95.52" cx="127.7" r="1.846" fill="#fff"/>
      </g>
      <path inkscape:connector-curvature="0" fill="#684b37" d="m139.5 83.92c-2.919 1.117-7.606-3.798-18.34 0.478-1.956 0.78-3.123-6.668 8.377-6.668 9.958 0 11.72 5.515 9.958 6.19z"/>
     </g>
     <path inkscape:connector-curvature="0" fill="#fcbc85" d="m101.9 122.3c-6.099 0-9.773-4.557-9.773-2.352 0 2.204 1.764 6.394 9.773 6.394 8.011 0 9.774-4.189 9.774-6.394 0.001-2.205-3.674 2.352-9.774 2.352z"/>
     <path inkscape:connector-curvature="0" fill="#fcbc85" d="m101.9 142.6c-2.109 0-3.38-1.575-3.38-0.814 0 0.763 0.61 2.212 3.38 2.212 2.771 0 3.381-1.449 3.381-2.212 0-0.761-1.27 0.814-3.381 0.814z"/>
     <path inkscape:connector-curvature="0" fill="#f7945e" d="m101.9 136.9c-9.668 0-15.49-3.937-15.49-2.939s2.795 4.924 15.49 4.924 15.49-3.927 15.49-4.924-5.825 2.939-15.49 2.939z"/>
    </g>
    <circle cy="120.1" cx="66.15" r="8.377" fill="#f9aa8d"/>
    <circle cy="120.1" cx="138.6" r="8.377" fill="#f9aa8d"/>
   </g>
   <path inkscape:connector-curvature="0" fill="#f5a860" d="m101.9 166.7v37.04h-64.37c0-14.99 30.57-37.04 64.37-37.04z"/>
   <path inkscape:connector-curvature="0" fill="#f5a860" d="m101.9 166.7v37.04h64.37c0-14.99-30.57-37.04-64.37-37.04z"/>
   <path inkscape:connector-curvature="0" fill="#f18b45" d="m89.6 167.7c-0.189 0.027-0.379 0.065-0.569 0.094-3.963 0.634-7.829 1.529-11.54 2.653l24.38 33.34v-18.52l-11-17.72c-0.421 0.059-0.85 0.086-1.27 0.15z"/>
   <path inkscape:connector-curvature="0" fill="#f18b45" d="m114.1 167.7c0.19 0.027 0.38 0.065 0.57 0.094 3.963 0.634 7.829 1.529 11.54 2.653l-24.38 33.34v-18.52l11-17.72c0.421 0.058 0.851 0.085 1.27 0.149z"/>
   <path inkscape:connector-curvature="0" fill="#684b37" d="m101.9 0c-66.46 0-74.25 46.99-71.46 102.4 2.79 55.43 49.82 82.8 49.82 82.8s-52.7-75.43-8.864-141.6c0 0-8.232 14.16-7.786 26.02 0 0 10.33-3.527 38.25-3.527 27.93 0 38.25 3.527 38.25 3.527 0.447-11.86-7.785-26.02-7.785-26.02 43.84 66.14-8.865 141.6-8.865 141.6s47.04-27.37 49.82-82.8c2.8-55.41-5-102.4-71.4-102.4z"/>
   <path d="m87.17 168 14.7 24.41 14.7-24.41c0.001 0-15.25-5.552-29.39 0.001z" inkscape:connector-curvature="0" fill="#f6c677"/>
  </g>
 </g>
 <g stroke="#82c533" stroke-width="8" fill="none">
  <polyline transform="matrix(.5355 0 0 .5355 21.74 44.34)" points="17.7 32.33 30.96 46.47 55.67 23.16"/>
  <polyline transform="matrix(.5355 0 0 .5355 78.23 44.34)" points="17.7 32.33 30.96 46.47 55.67 23.16"/>
  <polyline transform="matrix(.5355 0 0 .5355 134.7 44.34)" points="17.7 32.33 30.96 46.47 55.67 23.16"/>
 </g>
</svg>
